AgencyFB-Regular.ufo
<glyph name="exclam" format="1">
  <advance width="199"/>
  <unicode hex="0021"/>
  <outline>
    <contour>
      <point x="137" y="764" type="line" name="hr00"/>
      <point x="62" y="764" type="line"/>
      <point x="77" y="172" type="line"/>
      <point x="122" y="172" type="line"/>
    </contour>
    <contour>
      <point x="136" y="0" type="line"/>
      <point x="136" y="86" type="line"/>
      <point x="63" y="86" type="line"/>
      <point x="63" y="0" type="line"/>
    </contour>
  </outline>
</glyph>
<glyph name="quotedbl" format="1">
  <advance width="307"/>
  <unicode hex="0022"/>
  <outline>
    <contour>
      <point x="259" y="764" type="line" name="hr00"/>
      <point x="188" y="764" type="line"/>
      <point x="202" y="524" type="line"/>
      <point x="245" y="524" type="line"/>
    </contour>
    <contour>
      <point x="119" y="764" type="line"/>
      <point x="47" y="764" type="line"/>
      <point x="62" y="524" type="line"/>
      <point x="104" y="524" type="line"/>
    </contour>
  </outline>
</glyph>
<glyph name="numbersign" format="1">
  <advance width="521"/>
  <unicode hex="0023"/>
  <outline>
    <contour>
      <point x="496" y="499" type="line" name="hr00"/>
      <point x="496" y="555" type="line"/>
      <point x="411" y="555" type="line"/>
      <point x="448" y="764" type="line"/>
      <point x="386" y="764" type="line"/>
      <point x="350" y="555" type="line"/>
      <point x="232" y="555" type="line"/>
      <point x="270" y="764" type="line"/>
      <point x="208" y="764" type="line"/>
      <point x="171" y="555" type="line"/>
      <point x="60" y="555" type="line"/>
      <point x="60" y="499" type="line"/>
      <point x="161" y="499" type="line"/>
      <point x="120" y="265" type="line"/>
      <point x="25" y="265" type="line"/>
      <point x="25" y="209" type="line"/>
      <point x="110" y="209" type="line"/>
      <point x="73" y="0" type="line"/>
      <point x="135" y="0" type="line"/>
      <point x="171" y="209" type="line"/>
      <point x="289" y="209" type="line"/>
      <point x="251" y="0" type="line"/>
      <point x="313" y="0" type="line"/>
      <point x="350" y="209" type="line"/>
      <point x="461" y="209" type="line"/>
      <point x="461" y="265" type="line"/>
      <point x="360" y="265" type="line"/>
      <point x="401" y="499" type="line"/>
    </contour>
    <contour>
      <point x="340" y="499" type="line"/>
      <point x="298" y="265" type="line"/>
      <point x="181" y="265" type="line"/>
      <point x="222" y="499" type="line"/>
    </contour>
  </outline>
</glyph>
<glyph name="ampersand" format="1">
  <advance width="435"/>
  <unicode hex="0026"/>
  <outline>
    <contour>
      <point x="415" y="369" type="line" name="hr00"/>
      <point x="415" y="428" type="line"/>
      <point x="196" y="428" type="line"/>
      <point x="127" y="474" type="line"/>
      <point x="127" y="704" type="line"/>
      <point x="294" y="704" type="line"/>
      <point x="294" y="550" type="line"/>
      <point x="362" y="550" type="line"/>
      <point x="362" y="710" type="line" smooth="yes"/>
      <point x="362" y="742"/>
      <point x="339" y="764"/>
      <point x="307" y="764" type="curve" smooth="yes"/>
      <point x="114" y="764" type="line" smooth="yes"/>
      <point x="82" y="764"/>
      <point x="60" y="742"/>
      <point x="60" y="710" type="curve" smooth="yes"/>
      <point x="60" y="483" type="line" smooth="yes"/>
      <point x="60" y="460"/>
      <point x="67" y="446"/>
      <point x="85" y="435" type="curve" smooth="yes"/>
      <point x="140" y="400" type="line"/>
      <point x="83" y="363" type="line" smooth="yes"/>
      <point x="64" y="351"/>
      <point x="58" y="337"/>
      <point x="58" y="314" type="curve" smooth="yes"/>
      <point x="58" y="54" type="line" smooth="yes"/>
      <point x="58" y="22"/>
      <point x="80" y="0"/>
      <point x="112" y="0" type="curve" smooth="yes"/>
      <point x="359" y="0" type="line"/>
      <point x="359" y="369" type="line"/>
    </contour>
    <contour>
      <point x="292" y="60" type="line"/>
      <point x="125" y="60" type="line"/>
      <point x="125" y="324" type="line"/>
      <point x="195" y="369" type="line"/>
      <point x="292" y="369" type="line"/>
    </contour>
  </outline>
</glyph>
<glyph name="quotesingle" format="1">
  <advance width="166"/>
  <unicode hex="0027"/>
  <outline>
    <contour>
      <point x="119" y="764" type="line" name="hr00"/>
      <point x="47" y="764" type="line"/>
      <point x="62" y="524" type="line"/>
      <point x="104" y="524" type="line"/>
    </contour>
  </outline>
</glyph>
<glyph name="parenleft" format="1">
  <advance width="263"/>
  <unicode hex="0028"/>
  <outline>
    <contour>
      <point x="231" y="-98" type="line" name="hr00"/>
      <point x="231" y="-93" type="line"/>
      <point x="159" y="38"/>
      <point x="119" y="156"/>
      <point x="119" y="333" type="curve" smooth="yes"/>
      <point x="119" y="510"/>
      <point x="159" y="628"/>
      <point x="231" y="759" type="curve"/>
      <point x="231" y="764" type="line"/>
      <point x="172" y="764" type="line"/>
      <point x="99" y="645"/>
      <point x="51" y="521"/>
      <point x="51" y="333" type="curve" smooth="yes"/>
      <point x="51" y="145"/>
      <point x="99" y="21"/>
      <point x="172" y="-98" type="curve"/>
    </contour>
  </outline>
</glyph>
<glyph name="parenright" format="1">
  <advance width="263"/>
  <unicode hex="0029"/>
  <outline>
    <contour>
      <point x="212" y="333" type="curve" name="hr00"/>
      <point x="212" y="521"/>
      <point x="164" y="645"/>
      <point x="91" y="764" type="curve"/>
      <point x="33" y="764" type="line"/>
      <point x="33" y="759" type="line"/>
      <point x="105" y="628"/>
      <point x="145" y="510"/>
      <point x="145" y="333" type="curve" smooth="yes"/>
      <point x="145" y="156"/>
      <point x="105" y="38"/>
      <point x="33" y="-93" type="curve"/>
      <point x="33" y="-98" type="line"/>
      <point x="91" y="-98" type="line"/>
      <point x="164" y="21"/>
      <point x="212" y="145"/>
    </contour>
  </outline>
</glyph>
<glyph name="plus" format="1">
  <advance width="409"/>
  <unicode hex="002B"/>
  <outline>
    <contour>
      <point x="375" y="307" type="line" name="hr00"/>
      <point x="375" y="364" type="line"/>
      <point x="235" y="364" type="line"/>
      <point x="235" y="502" type="line"/>
      <point x="175" y="502" type="line"/>
      <point x="175" y="364" type="line"/>
      <point x="34" y="364" type="line"/>
      <point x="34" y="307" type="line"/>
      <point x="175" y="307" type="line"/>
      <point x="175" y="169" type="line"/>
      <point x="235" y="169" type="line"/>
      <point x="235" y="307" type="line"/>
    </contour>
  </outline>
</glyph>
<glyph name="comma" format="1">
  <advance width="166"/>
  <unicode hex="002C"/>
  <outline>
    <contour>
      <point x="130" y="86" type="line" name="hr00"/>
      <point x="54" y="86" type="line"/>
      <point x="40" y="-54" type="line"/>
      <point x="87" y="-54" type="line"/>
    </contour>
  </outline>
</glyph>
<glyph name="hyphen" format="1">
  <advance width="295"/>
  <unicode hex="002D"/>
  <unicode hex="00AD"/>
  <outline>
    <contour>
      <point x="248" y="261" type="line" name="hr00"/>
      <point x="248" y="322" type="line"/>
      <point x="47" y="322" type="line"/>
      <point x="47" y="261" type="line"/>
    </contour>
  </outline>
</glyph>
<glyph name="period" format="1">
  <advance width="166"/>
  <unicode hex="002E"/>
  <outline>
    <contour>
      <point x="120" y="0" type="line" name="hr00"/>
      <point x="120" y="86" type="line"/>
      <point x="46" y="86" type="line"/>
      <point x="46" y="0" type="line"/>
    </contour>
  </outline>
</glyph>
<glyph name="zero" format="1">
  <advance width="434"/>
  <unicode hex="0030"/>
  <outline>
    <contour>
      <point x="373" y="54" type="curve" name="hr00"/>
      <point x="373" y="710" type="line" smooth="yes"/>
      <point x="373" y="742"/>
      <point x="350" y="764"/>
      <point x="318" y="764" type="curve" smooth="yes"/>
      <point x="115" y="764" type="line" smooth="yes"/>
      <point x="83" y="764"/>
      <point x="61" y="742"/>
      <point x="61" y="710" type="curve" smooth="yes"/>
      <point x="61" y="54" type="line" smooth="yes"/>
      <point x="61" y="22"/>
      <point x="83" y="0"/>
      <point x="115" y="0" type="curve" smooth="yes"/>
      <point x="318" y="0" type="line" smooth="yes"/>
      <point x="350" y="0"/>
      <point x="373" y="22"/>
    </contour>
    <contour>
      <point x="305" y="60" type="line"/>
      <point x="129" y="60" type="line"/>
      <point x="129" y="704" type="line"/>
      <point x="305" y="704" type="line"/>
    </contour>
  </outline>
</glyph>
<glyph name="one" format="1">
  <advance width="203"/>
  <unicode hex="0031"/>
  <outline>
    <contour>
      <point x="137" y="0" type="line" name="hr00"/>
      <point x="137" y="764" type="line"/>
      <point x="82" y="764" type="line"/>
      <point x="39" y="532" type="line"/>
      <point x="39" y="530" type="line"/>
      <point x="69" y="530" type="line"/>
      <point x="69" y="0" type="line"/>
    </contour>
  </outline>
</glyph>
<glyph name="two" format="1">
  <advance width="390"/>
  <unicode hex="0032"/>
  <outline>
    <contour>
      <point x="345" y="0" type="line" name="hr00"/>
      <point x="345" y="60" type="line"/>
      <point x="124" y="60" type="line"/>
      <point x="326" y="481" type="line" smooth="yes"/>
      <point x="337" y="504"/>
      <point x="344" y="522"/>
      <point x="344" y="548" type="curve" smooth="yes"/>
      <point x="344" y="710" type="line" smooth="yes"/>
      <point x="344" y="742"/>
      <point x="322" y="764"/>
      <point x="290" y="764" type="curve" smooth="yes"/>
      <point x="106" y="764" type="line" smooth="yes"/>
      <point x="74" y="764"/>
      <point x="52" y="742"/>
      <point x="52" y="710" type="curve" smooth="yes"/>
      <point x="52" y="532" type="line"/>
      <point x="120" y="532" type="line"/>
      <point x="120" y="704" type="line"/>
      <point x="276" y="704" type="line"/>
      <point x="276" y="522" type="line"/>
      <point x="42" y="36" type="line"/>
      <point x="42" y="0" type="line"/>
    </contour>
  </outline>
</glyph>
<glyph name="three" format="1">
  <advance width="422"/>
  <unicode hex="0033"/>
  <outline>
    <contour>
      <point x="366" y="54" type="curve" name="hr00"/>
      <point x="366" y="281" type="line" smooth="yes"/>
      <point x="366" y="307"/>
      <point x="358" y="324"/>
      <point x="337" y="339" type="curve" smooth="yes"/>
      <point x="245" y="403" type="line"/>
      <point x="336" y="467" type="line" smooth="yes"/>
      <point x="357" y="481"/>
      <point x="365" y="498"/>
      <point x="365" y="524" type="curve" smooth="yes"/>
      <point x="365" y="710" type="line" smooth="yes"/>
      <point x="365" y="742"/>
      <point x="343" y="764"/>
      <point x="311" y="764" type="curve" smooth="yes"/>
      <point x="116" y="764" type="line" smooth="yes"/>
      <point x="84" y="764"/>
      <point x="62" y="742"/>
      <point x="62" y="710" type="curve" smooth="yes"/>
      <point x="62" y="532" type="line"/>
      <point x="130" y="532" type="line"/>
      <point x="130" y="704" type="line"/>
      <point x="297" y="704" type="line"/>
      <point x="297" y="510" type="line"/>
      <point x="163" y="410" type="line"/>
      <point x="163" y="395" type="line"/>
      <point x="298" y="294" type="line"/>
      <point x="298" y="60" type="line"/>
      <point x="129" y="60" type="line"/>
      <point x="129" y="248" type="line"/>
      <point x="61" y="248" type="line"/>
      <point x="61" y="54" type="line" smooth="yes"/>
      <point x="61" y="22"/>
      <point x="83" y="0"/>
      <point x="115" y="0" type="curve" smooth="yes"/>
      <point x="312" y="0" type="line" smooth="yes"/>
      <point x="344" y="0"/>
      <point x="366" y="22"/>
    </contour>
  </outline>
</glyph>
<glyph name="four" format="1">
  <advance width="383"/>
  <unicode hex="0034"/>
  <outline>
    <contour>
      <point x="359" y="199" type="line" name="hr00"/>
      <point x="359" y="257" type="line"/>
      <point x="301" y="257" type="line"/>
      <point x="301" y="534" type="line"/>
      <point x="237" y="534" type="line"/>
      <point x="237" y="257" type="line"/>
      <point x="94" y="257" type="line"/>
      <point x="270" y="761" type="line"/>
      <point x="270" y="764" type="line"/>
      <point x="206" y="764" type="line"/>
      <point x="21" y="234" type="line"/>
      <point x="21" y="199" type="line"/>
      <point x="237" y="199" type="line"/>
      <point x="237" y="0" type="line"/>
      <point x="301" y="0" type="line"/>
      <point x="301" y="199" type="line"/>
    </contour>
  </outline>
</glyph>
<glyph name="six" format="1">
  <advance width="424"/>
  <unicode hex="0036"/>
  <outline>
    <contour>
      <point x="364" y="54" type="curve" name="hr00"/>
      <point x="364" y="367" type="line" smooth="yes"/>
      <point x="364" y="399"/>
      <point x="342" y="421"/>
      <point x="310" y="421" type="curve" smooth="yes"/>
      <point x="129" y="421" type="line"/>
      <point x="129" y="704" type="line"/>
      <point x="294" y="704" type="line"/>
      <point x="294" y="541" type="line"/>
      <point x="362" y="541" type="line"/>
      <point x="362" y="710" type="line" smooth="yes"/>
      <point x="362" y="742"/>
      <point x="340" y="764"/>
      <point x="308" y="764" type="curve" smooth="yes"/>
      <point x="115" y="764" type="line" smooth="yes"/>
      <point x="83" y="764"/>
      <point x="61" y="742"/>
      <point x="61" y="710" type="curve" smooth="yes"/>
      <point x="61" y="54" type="line" smooth="yes"/>
      <point x="61" y="22"/>
      <point x="83" y="0"/>
      <point x="115" y="0" type="curve" smooth="yes"/>
      <point x="310" y="0" type="line" smooth="yes"/>
      <point x="342" y="0"/>
      <point x="364" y="22"/>
    </contour>
    <contour>
      <point x="296" y="60" type="line"/>
      <point x="129" y="60" type="line"/>
      <point x="129" y="362" type="line"/>
      <point x="296" y="362" type="line"/>
    </contour>
  </outline>
</glyph>
<glyph name="seven" format="1">
  <advance width="363"/>
  <unicode hex="0037"/>
  <outline>
    <contour>
      <point x="338" y="729" type="line" name="hr00"/>
      <point x="338" y="764" type="line"/>
      <point x="35" y="764" type="line"/>
      <point x="35" y="592" type="line"/>
      <point x="103" y="592" type="line"/>
      <point x="103" y="704" type="line"/>
      <point x="266" y="704" type="line"/>
      <point x="107" y="0" type="line"/>
      <point x="174" y="0" type="line"/>
    </contour>
  </outline>
</glyph>
<glyph name="eight" format="1">
  <advance width="431"/>
  <unicode hex="0038"/>
  <outline>
    <contour>
      <point x="369" y="54" type="curve" name="hr00"/>
      <point x="369" y="303" type="line" smooth="yes"/>
      <point x="369" y="326"/>
      <point x="362" y="340"/>
      <point x="343" y="352" type="curve" smooth="yes"/>
      <point x="270" y="400" type="line"/>
      <point x="342" y="445" type="line" smooth="yes"/>
      <point x="360" y="457"/>
      <point x="367" y="471"/>
      <point x="367" y="494" type="curve" smooth="yes"/>
      <point x="367" y="710" type="line" smooth="yes"/>
      <point x="367" y="742"/>
      <point x="345" y="764"/>
      <point x="313" y="764" type="curve" smooth="yes"/>
      <point x="115" y="764" type="line" smooth="yes"/>
      <point x="83" y="764"/>
      <point x="61" y="742"/>
      <point x="61" y="710" type="curve" smooth="yes"/>
      <point x="61" y="494" type="line" smooth="yes"/>
      <point x="61" y="471"/>
      <point x="68" y="457"/>
      <point x="86" y="445" type="curve" smooth="yes"/>
      <point x="158" y="400" type="line"/>
      <point x="84" y="352" type="line" smooth="yes"/>
      <point x="66" y="340"/>
      <point x="59" y="326"/>
      <point x="59" y="303" type="curve" smooth="yes"/>
      <point x="59" y="54" type="line" smooth="yes"/>
      <point x="59" y="22"/>
      <point x="81" y="0"/>
      <point x="113" y="0" type="curve" smooth="yes"/>
      <point x="314" y="0" type="line" smooth="yes"/>
      <point x="346" y="0"/>
      <point x="369" y="22"/>
    </contour>
    <contour>
      <point x="299" y="485" type="line"/>
      <point x="214" y="428" type="line"/>
      <point x="129" y="485" type="line"/>
      <point x="129" y="704" type="line"/>
      <point x="299" y="704" type="line"/>
    </contour>
    <contour>
      <point x="301" y="60" type="line"/>
      <point x="127" y="60" type="line"/>
      <point x="127" y="313" type="line"/>
      <point x="214" y="370" type="line"/>
      <point x="301" y="313" type="line"/>
    </contour>
  </outline>
</glyph>
<glyph name="colon" format="1">
  <advance width="166"/>
  <unicode hex="003A"/>
  <outline>
    <contour>
      <point x="120" y="330" type="line" name="hr00"/>
      <point x="120" y="416" type="line"/>
      <point x="46" y="416" type="line"/>
      <point x="46" y="330" type="line"/>
    </contour>
    <contour>
      <point x="120" y="0" type="line"/>
      <point x="120" y="86" type="line"/>
      <point x="46" y="86" type="line"/>
      <point x="46" y="0" type="line"/>
    </contour>
  </outline>
</glyph>
<glyph name="semicolon" format="1">
  <advance width="166"/>
  <unicode hex="003B"/>
  <unicode hex="037E"/>
  <outline>
    <contour>
      <point x="120" y="330" type="line" name="hr00"/>
      <point x="120" y="416" type="line"/>
      <point x="46" y="416" type="line"/>
      <point x="46" y="330" type="line"/>
    </contour>
    <contour>
      <point x="123" y="86" type="line"/>
      <point x="46" y="86" type="line"/>
      <point x="32" y="-54" type="line"/>
      <point x="79" y="-54" type="line"/>
    </contour>
  </outline>
</glyph>
<glyph name="equal" format="1">
  <advance width="441"/>
  <unicode hex="003D"/>
  <outline>
    <contour>
      <point x="391" y="369" type="line" name="hr00"/>
      <point x="391" y="428" type="line"/>
      <point x="50" y="428" type="line"/>
      <point x="50" y="369" type="line"/>
    </contour>
    <contour>
      <point x="391" y="191" type="line"/>
      <point x="391" y="249" type="line"/>
      <point x="50" y="249" type="line"/>
      <point x="50" y="191" type="line"/>
    </contour>
  </outline>
</glyph>
<glyph name="greater" format="1">
  <advance width="341"/>
  <unicode hex="003E"/>
  <outline>
    <contour>
      <point x="304" y="302" type="line"/>
      <point x="304" y="337" type="line"/>
      <point x="60" y="522" type="line"/>
      <point x="56" y="522" type="line"/>
      <point x="56" y="454" type="line"/>
      <point x="237" y="320" type="line"/>
      <point x="56" y="186" type="line"/>
      <point x="56" y="118" type="line"/>
      <point x="60" y="118" type="line"/>
    </contour>
  </outline>
</glyph>
<glyph name="question" format="1">
  <advance width="382"/>
  <unicode hex="003F"/>
  <outline>
    <contour>
      <point x="336" y="538" type="curve" name="hr00"/>
      <point x="336" y="710" type="line" smooth="yes"/>
      <point x="336" y="742"/>
      <point x="313" y="764"/>
      <point x="281" y="764" type="curve" smooth="yes"/>
      <point x="99" y="764" type="line" smooth="yes"/>
      <point x="67" y="764"/>
      <point x="44" y="742"/>
      <point x="44" y="710" type="curve" smooth="yes"/>
      <point x="44" y="532" type="line"/>
      <point x="112" y="532" type="line"/>
      <point x="112" y="704" type="line"/>
      <point x="268" y="704" type="line"/>
      <point x="268" y="522" type="line"/>
      <point x="167" y="371" type="line" smooth="yes"/>
      <point x="157" y="355"/>
      <point x="153" y="339"/>
      <point x="153" y="318" type="curve" smooth="yes"/>
      <point x="153" y="172" type="line"/>
      <point x="221" y="172" type="line"/>
      <point x="221" y="334" type="line"/>
      <point x="321" y="486" type="line" smooth="yes"/>
      <point x="331" y="501"/>
      <point x="336" y="518"/>
    </contour>
    <contour>
      <point x="224" y="0" type="line"/>
      <point x="224" y="86" type="line"/>
      <point x="150" y="86" type="line"/>
      <point x="150" y="0" type="line"/>
    </contour>
  </outline>
</glyph>
<glyph name="B" format="1">
  <advance width="425"/>
  <unicode hex="0042"/>
  <outline>
    <contour>
      <point x="367" y="54" type="curve" name="hr00"/>
      <point x="367" y="314" type="line" smooth="yes"/>
      <point x="367" y="337"/>
      <point x="360" y="351"/>
      <point x="342" y="363" type="curve" smooth="yes"/>
      <point x="284" y="400" type="line"/>
      <point x="340" y="435" type="line" smooth="yes"/>
      <point x="358" y="446"/>
      <point x="365" y="460"/>
      <point x="365" y="483" type="curve" smooth="yes"/>
      <point x="365" y="710" type="line" smooth="yes"/>
      <point x="365" y="742"/>
      <point x="343" y="764"/>
      <point x="311" y="764" type="curve" smooth="yes"/>
      <point x="61" y="764" type="line"/>
      <point x="61" y="0" type="line"/>
      <point x="313" y="0" type="line" smooth="yes"/>
      <point x="345" y="0"/>
      <point x="367" y="22"/>
    </contour>
    <contour>
      <point x="297" y="474" type="line"/>
      <point x="229" y="428" type="line"/>
      <point x="129" y="428" type="line"/>
      <point x="129" y="704" type="line"/>
      <point x="297" y="704" type="line"/>
    </contour>
    <contour>
      <point x="299" y="60" type="line"/>
      <point x="129" y="60" type="line"/>
      <point x="129" y="369" type="line"/>
      <point x="230" y="369" type="line"/>
      <point x="299" y="324" type="line"/>
    </contour>
  </outline>
</glyph>
<glyph name="C" format="1">
  <advance width="425"/>
  <unicode hex="0043"/>
  <outline>
    <contour>
      <point x="367" y="54" type="curve" name="hr00"/>
      <point x="367" y="248" type="line"/>
      <point x="299" y="248" type="line"/>
      <point x="299" y="60" type="line"/>
      <point x="129" y="60" type="line"/>
      <point x="129" y="704" type="line"/>
      <point x="299" y="704" type="line"/>
      <point x="299" y="532" type="line"/>
      <point x="367" y="532" type="line"/>
      <point x="367" y="710" type="line" smooth="yes"/>
      <point x="367" y="742"/>
      <point x="344" y="764"/>
      <point x="312" y="764" type="curve" smooth="yes"/>
      <point x="115" y="764" type="line" smooth="yes"/>
      <point x="83" y="764"/>
      <point x="61" y="742"/>
      <point x="61" y="710" type="curve" smooth="yes"/>
      <point x="61" y="54" type="line" smooth="yes"/>
      <point x="61" y="22"/>
      <point x="83" y="0"/>
      <point x="115" y="0" type="curve" smooth="yes"/>
      <point x="312" y="0" type="line" smooth="yes"/>
      <point x="344" y="0"/>
      <point x="367" y="22"/>
    </contour>
  </outline>
</glyph>
<glyph name="E" format="1">
  <advance width="357"/>
  <unicode hex="0045"/>
  <outline>
    <contour>
      <point x="312" y="0" type="line" name="hr00"/>
      <point x="312" y="60" type="line"/>
      <point x="129" y="60" type="line"/>
      <point x="129" y="358" type="line"/>
      <point x="293" y="358" type="line"/>
      <point x="293" y="419" type="line"/>
      <point x="129" y="419" type="line"/>
      <point x="129" y="704" type="line"/>
      <point x="309" y="704" type="line"/>
      <point x="309" y="764" type="line"/>
      <point x="61" y="764" type="line"/>
      <point x="61" y="0" type="line"/>
    </contour>
  </outline>
</glyph>
<glyph name="F" format="1">
  <advance width="340"/>
  <unicode hex="0046"/>
  <outline>
    <contour>
      <point x="307" y="704" type="line" name="hr00"/>
      <point x="307" y="764" type="line"/>
      <point x="61" y="764" type="line"/>
      <point x="61" y="0" type="line"/>
      <point x="129" y="0" type="line"/>
      <point x="129" y="353" type="line"/>
      <point x="293" y="353" type="line"/>
      <point x="293" y="414" type="line"/>
      <point x="129" y="414" type="line"/>
      <point x="129" y="704" type="line"/>
    </contour>
  </outline>
</glyph>
<glyph name="G" format="1">
  <advance width="430"/>
  <unicode hex="0047"/>
  <outline>
    <contour>
      <point x="370" y="54" type="curve" name="hr00"/>
      <point x="370" y="383" type="line"/>
      <point x="220" y="383" type="line"/>
      <point x="220" y="324" type="line"/>
      <point x="302" y="324" type="line"/>
      <point x="302" y="60" type="line"/>
      <point x="129" y="60" type="line"/>
      <point x="129" y="704" type="line"/>
      <point x="302" y="704" type="line"/>
      <point x="302" y="532" type="line"/>
      <point x="370" y="532" type="line"/>
      <point x="370" y="710" type="line" smooth="yes"/>
      <point x="370" y="742"/>
      <point x="348" y="764"/>
      <point x="316" y="764" type="curve" smooth="yes"/>
      <point x="115" y="764" type="line" smooth="yes"/>
      <point x="83" y="764"/>
      <point x="61" y="742"/>
      <point x="61" y="710" type="curve" smooth="yes"/>
      <point x="61" y="54" type="line" smooth="yes"/>
      <point x="61" y="22"/>
      <point x="83" y="0"/>
      <point x="115" y="0" type="curve" smooth="yes"/>
      <point x="316" y="0" type="line" smooth="yes"/>
      <point x="348" y="0"/>
      <point x="370" y="22"/>
    </contour>
  </outline>
</glyph>
<glyph name="H" format="1">
  <advance width="442"/>
  <unicode hex="0048"/>
  <outline>
    <contour>
      <point x="381" y="0" type="line" name="hr00"/>
      <point x="381" y="764" type="line"/>
      <point x="313" y="764" type="line"/>
      <point x="313" y="428" type="line"/>
      <point x="129" y="428" type="line"/>
      <point x="129" y="764" type="line"/>
      <point x="61" y="764" type="line"/>
      <point x="61" y="0" type="line"/>
      <point x="129" y="0" type="line"/>
      <point x="129" y="367" type="line"/>
      <point x="313" y="367" type="line"/>
      <point x="313" y="0" type="line"/>
    </contour>
  </outline>
</glyph>
<glyph name="I" format="1">
  <advance width="199"/>
  <unicode hex="0049"/>
  <outline>
    <contour>
      <point x="133" y="0" type="line" name="hr00"/>
      <point x="133" y="764" type="line"/>
      <point x="65" y="764" type="line"/>
      <point x="65" y="0" type="line"/>
    </contour>
  </outline>
</glyph>
<glyph name="J" format="1">
  <advance width="391"/>
  <unicode hex="004A"/>
  <outline>
    <contour>
      <point x="330" y="54" type="curve" name="hr00"/>
      <point x="330" y="764" type="line"/>
      <point x="262" y="764" type="line"/>
      <point x="262" y="60" type="line"/>
      <point x="112" y="60" type="line"/>
      <point x="112" y="248" type="line"/>
      <point x="44" y="248" type="line"/>
      <point x="44" y="54" type="line" smooth="yes"/>
      <point x="44" y="22"/>
      <point x="66" y="0"/>
      <point x="98" y="0" type="curve" smooth="yes"/>
      <point x="276" y="0" type="line" smooth="yes"/>
      <point x="308" y="0"/>
      <point x="330" y="22"/>
    </contour>
  </outline>
</glyph>
<glyph name="L" format="1">
  <advance width="337"/>
  <unicode hex="004C"/>
  <outline>
    <contour>
      <point x="305" y="0" type="line" name="hr00"/>
      <point x="305" y="60" type="line"/>
      <point x="129" y="60" type="line"/>
      <point x="129" y="764" type="line"/>
      <point x="61" y="764" type="line"/>
      <point x="61" y="0" type="line"/>
    </contour>
  </outline>
</glyph>
<glyph name="M" format="1">
  <advance width="500"/>
  <unicode hex="004D"/>
  <outline>
    <contour>
      <point x="439" y="0" type="line" name="hr00"/>
      <point x="439" y="764" type="line"/>
      <point x="376" y="764" type="line"/>
      <point x="252" y="267" type="line" smooth="yes"/>
      <point x="251" y="263"/>
      <point x="250" y="245"/>
      <point x="250" y="245" type="curve"/>
      <point x="250" y="245"/>
      <point x="249" y="263"/>
      <point x="248" y="267" type="curve" smooth="yes"/>
      <point x="124" y="764" type="line"/>
      <point x="61" y="764" type="line"/>
      <point x="61" y="0" type="line"/>
      <point x="125" y="0" type="line"/>
      <point x="125" y="484" type="line" smooth="yes"/>
      <point x="125" y="494"/>
      <point x="118" y="544"/>
      <point x="118" y="544" type="curve"/>
      <point x="243" y="72" type="line"/>
      <point x="257" y="72" type="line"/>
      <point x="382" y="544" type="line"/>
      <point x="382" y="544"/>
      <point x="375" y="494"/>
      <point x="375" y="484" type="curve" smooth="yes"/>
      <point x="375" y="0" type="line"/>
    </contour>
  </outline>
</glyph>
<glyph name="P" format="1">
  <advance width="410"/>
  <unicode hex="0050"/>
  <outline>
    <contour>
      <point x="364" y="358" type="curve" name="hr00"/>
      <point x="364" y="710" type="line" smooth="yes"/>
      <point x="364" y="742"/>
      <point x="341" y="764"/>
      <point x="309" y="764" type="curve" smooth="yes"/>
      <point x="61" y="764" type="line"/>
      <point x="61" y="0" type="line"/>
      <point x="129" y="0" type="line"/>
      <point x="129" y="303" type="line"/>
      <point x="309" y="303" type="line" smooth="yes"/>
      <point x="341" y="303"/>
      <point x="364" y="326"/>
    </contour>
    <contour>
      <point x="296" y="364" type="line"/>
      <point x="129" y="364" type="line"/>
      <point x="129" y="704" type="line"/>
      <point x="296" y="704" type="line"/>
    </contour>
  </outline>
</glyph>
<glyph name="Q" format="1">
  <advance width="450"/>
  <unicode hex="0051"/>
  <outline>
    <contour>
      <point x="436" y="-1" type="line" name="hr00"/>
      <point x="436" y="66" type="line"/>
      <point x="384" y="108" type="line"/>
      <point x="384" y="710" type="line" smooth="yes"/>
      <point x="384" y="742"/>
      <point x="362" y="764"/>
      <point x="330" y="764" type="curve" smooth="yes"/>
      <point x="115" y="764" type="line" smooth="yes"/>
      <point x="83" y="764"/>
      <point x="61" y="742"/>
      <point x="61" y="710" type="curve" smooth="yes"/>
      <point x="61" y="54" type="line" smooth="yes"/>
      <point x="61" y="22"/>
      <point x="83" y="0"/>
      <point x="115" y="0" type="curve" smooth="yes"/>
      <point x="330" y="0" type="line" smooth="yes"/>
      <point x="353" y="0"/>
      <point x="373" y="13"/>
      <point x="379" y="36" type="curve" smooth="yes"/>
      <point x="380" y="40" type="line"/>
      <point x="430" y="-1" type="line"/>
    </contour>
    <contour>
      <point x="316" y="60" type="line"/>
      <point x="129" y="60" type="line"/>
      <point x="129" y="704" type="line"/>
      <point x="316" y="704" type="line"/>
      <point x="316" y="162" type="line"/>
      <point x="241" y="224" type="line"/>
      <point x="235" y="224" type="line"/>
      <point x="235" y="157" type="line"/>
      <point x="316" y="90" type="line"/>
    </contour>
  </outline>
</glyph>
<glyph name="T" format="1">
  <advance width="343"/>
  <unicode hex="0054"/>
  <outline>
    <contour>
      <point x="324" y="704" type="line" name="hr00"/>
      <point x="324" y="764" type="line"/>
      <point x="19" y="764" type="line"/>
      <point x="19" y="704" type="line"/>
      <point x="138" y="704" type="line"/>
      <point x="138" y="0" type="line"/>
      <point x="206" y="0" type="line"/>
      <point x="206" y="704" type="line"/>
    </contour>
  </outline>
</glyph>
<glyph name="V" format="1">
  <advance width="390"/>
  <unicode hex="0056"/>
  <outline>
    <contour>
      <point x="359" y="762" type="line" name="hr00"/>
      <point x="359" y="764" type="line"/>
      <point x="294" y="764" type="line"/>
      <point x="199" y="156" type="line"/>
      <point x="196" y="106" type="line"/>
      <point x="193" y="156" type="line"/>
      <point x="98" y="764" type="line"/>
      <point x="31" y="764" type="line"/>
      <point x="31" y="762" type="line"/>
      <point x="163" y="-2" type="line"/>
      <point x="227" y="-2" type="line"/>
    </contour>
  </outline>
</glyph>
<glyph name="W" format="1">
  <advance width="548"/>
  <unicode hex="0057"/>
  <outline>
    <contour>
      <point x="518" y="764" type="line" name="hr00"/>
      <point x="451" y="764" type="line"/>
      <point x="386" y="213" type="line"/>
      <point x="384" y="158" type="line"/>
      <point x="382" y="213" type="line"/>
      <point x="303" y="764" type="line"/>
      <point x="245" y="764" type="line"/>
      <point x="166" y="213" type="line"/>
      <point x="164" y="158" type="line"/>
      <point x="162" y="213" type="line"/>
      <point x="97" y="764" type="line"/>
      <point x="30" y="764" type="line"/>
      <point x="134" y="-2" type="line"/>
      <point x="189" y="-2" type="line"/>
      <point x="272" y="574" type="line"/>
      <point x="274" y="619" type="line"/>
      <point x="276" y="574" type="line"/>
      <point x="359" y="-2" type="line"/>
      <point x="414" y="-2" type="line"/>
    </contour>
  </outline>
</glyph>
<glyph name="X" format="1">
  <advance width="384"/>
  <unicode hex="0058"/>
  <outline>
    <contour>
      <point x="363" y="0" type="line" name="hr00"/>
      <point x="363" y="4" type="line"/>
      <point x="228" y="395" type="line"/>
      <point x="355" y="760" type="line"/>
      <point x="355" y="764" type="line"/>
      <point x="287" y="764" type="line"/>
      <point x="192" y="474" type="line"/>
      <point x="100" y="764" type="line"/>
      <point x="29" y="764" type="line"/>
      <point x="29" y="760" type="line"/>
      <point x="157" y="391" type="line"/>
      <point x="21" y="4" type="line"/>
      <point x="21" y="0" type="line"/>
      <point x="89" y="0" type="line"/>
      <point x="191" y="314" type="line"/>
      <point x="293" y="0" type="line"/>
    </contour>
  </outline>
</glyph>
<glyph name="Z" format="1">
  <advance width="344"/>
  <unicode hex="005A"/>
  <outline>
    <contour>
      <point x="317" y="0" type="line" name="hr00"/>
      <point x="317" y="60" type="line"/>
      <point x="102" y="60" type="line"/>
      <point x="317" y="729" type="line"/>
      <point x="317" y="764" type="line"/>
      <point x="45" y="764" type="line"/>
      <point x="45" y="704" type="line"/>
      <point x="239" y="704" type="line"/>
      <point x="24" y="36" type="line"/>
      <point x="24" y="0" type="line"/>
    </contour>
  </outline>
</glyph>
<glyph name="bracketleft" format="1">
  <advance width="290"/>
  <unicode hex="005B"/>
  <outline>
    <contour>
      <point x="247" y="-121" type="line" name="hr00"/>
      <point x="247" y="-61" type="line"/>
      <point x="131" y="-61" type="line"/>
      <point x="131" y="704" type="line"/>
      <point x="247" y="704" type="line"/>
      <point x="247" y="764" type="line"/>
      <point x="117" y="764" type="line" smooth="yes"/>
      <point x="85" y="764"/>
      <point x="63" y="742"/>
      <point x="63" y="710" type="curve" smooth="yes"/>
      <point x="63" y="-67" type="line" smooth="yes"/>
      <point x="63" y="-99"/>
      <point x="85" y="-121"/>
      <point x="117" y="-121" type="curve" smooth="yes"/>
    </contour>
  </outline>
</glyph>
<glyph name="bracketright" format="1">
  <advance width="290"/>
  <unicode hex="005D"/>
  <outline>
    <contour>
      <point x="228" y="-67" type="curve" name="hr00"/>
      <point x="228" y="710" type="line" smooth="yes"/>
      <point x="228" y="742"/>
      <point x="205" y="764"/>
      <point x="173" y="764" type="curve" smooth="yes"/>
      <point x="43" y="764" type="line"/>
      <point x="43" y="704" type="line"/>
      <point x="160" y="704" type="line"/>
      <point x="160" y="-61" type="line"/>
      <point x="43" y="-61" type="line"/>
      <point x="43" y="-121" type="line"/>
      <point x="173" y="-121" type="line" smooth="yes"/>
      <point x="205" y="-121"/>
      <point x="228" y="-99"/>
    </contour>
  </outline>
</glyph>
<glyph name="asciicircum" format="1">
  <advance width="400"/>
  <unicode hex="005E"/>
  <outline>
    <contour>
      <point x="353" y="494" type="line" name="hr00"/>
      <point x="353" y="498" type="line"/>
      <point x="226" y="764" type="line"/>
      <point x="175" y="764" type="line"/>
      <point x="47" y="498" type="line"/>
      <point x="47" y="494" type="line"/>
      <point x="100" y="494" type="line"/>
      <point x="199" y="683" type="line"/>
      <point x="298" y="494" type="line"/>
    </contour>
  </outline>
</glyph>
<glyph name="underscore" format="1">
  <advance width="361"/>
  <unicode hex="005F"/>
  <outline>
    <contour>
      <point x="361" y="-200" type="line" name="hr00"/>
      <point x="361" y="-146" type="line"/>
      <point x="0" y="-146" type="line"/>
      <point x="0" y="-200" type="line"/>
    </contour>
  </outline>
</glyph>
<glyph name="c" format="1">
  <advance width="369"/>
  <unicode hex="0063"/>
  <outline>
    <contour>
      <point x="317" y="55" type="curve" name="hr00"/>
      <point x="317" y="163" type="line"/>
      <point x="253" y="163" type="line"/>
      <point x="253" y="57" type="line"/>
      <point x="118" y="57" type="line"/>
      <point x="118" y="418" type="line"/>
      <point x="253" y="418" type="line"/>
      <point x="253" y="325" type="line"/>
      <point x="317" y="325" type="line"/>
      <point x="317" y="420" type="line" smooth="yes"/>
      <point x="317" y="457"/>
      <point x="299" y="475"/>
      <point x="262" y="475" type="curve" smooth="yes"/>
      <point x="108" y="475" type="line" smooth="yes"/>
      <point x="71" y="475"/>
      <point x="53" y="457"/>
      <point x="53" y="420" type="curve" smooth="yes"/>
      <point x="53" y="55" type="line" smooth="yes"/>
      <point x="53" y="18"/>
      <point x="71" y="0"/>
      <point x="108" y="0" type="curve" smooth="yes"/>
      <point x="262" y="0" type="line" smooth="yes"/>
      <point x="299" y="0"/>
      <point x="317" y="18"/>
    </contour>
  </outline>
</glyph>
<glyph name="d" format="1">
  <advance width="377"/>
  <unicode hex="0064"/>
  <outline>
    <contour>
      <point x="323" y="0" type="line" name="hr00"/>
      <point x="323" y="764" type="line"/>
      <point x="259" y="764" type="line"/>
      <point x="259" y="475" type="line"/>
      <point x="152" y="475" type="line" smooth="yes"/>
      <point x="92" y="475"/>
      <point x="51" y="430"/>
      <point x="51" y="373" type="curve" smooth="yes"/>
      <point x="51" y="95" type="line" smooth="yes"/>
      <point x="51" y="36"/>
      <point x="91" y="-3"/>
      <point x="143" y="-3" type="curve" smooth="yes"/>
      <point x="154" y="-3"/>
      <point x="163" y="-2"/>
      <point x="174" y="0" type="curve" smooth="yes"/>
      <point x="259" y="13" type="line"/>
      <point x="259" y="0" type="line"/>
    </contour>
    <contour>
      <point x="259" y="59" type="line"/>
      <point x="197" y="55" type="line"/>
      <point x="191" y="54"/>
      <point x="175" y="54"/>
      <point x="169" y="54" type="curve" smooth="yes"/>
      <point x="133" y="54"/>
      <point x="115" y="76"/>
      <point x="115" y="109" type="curve" smooth="yes"/>
      <point x="115" y="363" type="line" smooth="yes"/>
      <point x="115" y="397"/>
      <point x="133" y="418"/>
      <point x="169" y="418" type="curve" smooth="yes"/>
      <point x="259" y="418" type="line"/>
    </contour>
  </outline>
</glyph>
<glyph name="g" format="1">
  <advance width="377"/>
  <unicode hex="0067"/>
  <outline>
    <contour>
      <point x="323" y="-125" type="curve" name="hr00"/>
      <point x="323" y="475" type="line"/>
      <point x="259" y="475" type="line"/>
      <point x="259" y="462" type="line"/>
      <point x="174" y="475" type="line" smooth="yes"/>
      <point x="163" y="477"/>
      <point x="154" y="478"/>
      <point x="143" y="478" type="curve" smooth="yes"/>
      <point x="91" y="478"/>
      <point x="51" y="439"/>
      <point x="51" y="380" type="curve" smooth="yes"/>
      <point x="51" y="102" type="line" smooth="yes"/>
      <point x="51" y="45"/>
      <point x="92" y="0"/>
      <point x="152" y="0" type="curve" smooth="yes"/>
      <point x="259" y="0" type="line"/>
      <point x="259" y="-125" type="line"/>
      <point x="123" y="-125" type="line"/>
      <point x="123" y="-62" type="line"/>
      <point x="59" y="-62" type="line"/>
      <point x="59" y="-125" type="line" smooth="yes"/>
      <point x="59" y="-162"/>
      <point x="77" y="-180"/>
      <point x="114" y="-180" type="curve" smooth="yes"/>
      <point x="268" y="-180" type="line" smooth="yes"/>
      <point x="305" y="-180"/>
      <point x="323" y="-162"/>
    </contour>
    <contour>
      <point x="259" y="57" type="line"/>
      <point x="169" y="57" type="line" smooth="yes"/>
      <point x="133" y="57"/>
      <point x="115" y="78"/>
      <point x="115" y="112" type="curve" smooth="yes"/>
      <point x="115" y="366" type="line" smooth="yes"/>
      <point x="115" y="399"/>
      <point x="133" y="421"/>
      <point x="169" y="421" type="curve" smooth="yes"/>
      <point x="175" y="421"/>
      <point x="191" y="421"/>
      <point x="197" y="420" type="curve"/>
      <point x="259" y="416" type="line"/>
    </contour>
  </outline>
</glyph>
<glyph name="h" format="1">
  <advance width="378"/>
  <unicode hex="0068"/>
  <outline>
    <contour>
      <point x="326" y="0" type="line" name="hr00"/>
      <point x="326" y="425" type="line" smooth="yes"/>
      <point x="326" y="461"/>
      <point x="308" y="478"/>
      <point x="272" y="478" type="curve" smooth="yes"/>
      <point x="266" y="478"/>
      <point x="260" y="478"/>
      <point x="252" y="476" type="curve"/>
      <point x="118" y="462" type="line"/>
      <point x="118" y="764" type="line"/>
      <point x="53" y="764" type="line"/>
      <point x="53" y="0" type="line"/>
      <point x="118" y="0" type="line"/>
      <point x="118" y="413" type="line"/>
      <point x="261" y="417" type="line"/>
      <point x="261" y="0" type="line"/>
    </contour>
  </outline>
</glyph>
<glyph name="i" format="1">
  <advance width="178"/>
  <unicode hex="0069"/>
  <outline>
    <contour>
      <point x="122" y="579" type="line" name="hr00"/>
      <point x="122" y="661" type="line"/>
      <point x="56" y="661" type="line"/>
      <point x="56" y="579" type="line"/>
    </contour>
    <contour>
      <point x="121" y="0" type="line"/>
      <point x="121" y="475" type="line"/>
      <point x="57" y="475" type="line"/>
      <point x="57" y="0" type="line"/>
    </contour>
  </outline>
</glyph>
<glyph name="j" format="1">
  <advance width="178"/>
  <unicode hex="006A"/>
  <outline>
    <contour>
      <point x="122" y="579" type="line" name="hr00"/>
      <point x="122" y="661" type="line"/>
      <point x="56" y="661" type="line"/>
      <point x="56" y="579" type="line"/>
    </contour>
    <contour>
      <point x="121" y="-125" type="curve"/>
      <point x="121" y="475" type="line"/>
      <point x="57" y="475" type="line"/>
      <point x="57" y="-123" type="line"/>
      <point x="-15" y="-123" type="line"/>
      <point x="-15" y="-180" type="line"/>
      <point x="66" y="-180" type="line" smooth="yes"/>
      <point x="103" y="-180"/>
      <point x="121" y="-162"/>
    </contour>
  </outline>
</glyph>
<glyph name="k" format="1">
  <advance width="335"/>
  <unicode hex="006B"/>
  <outline>
    <contour>
      <point x="320" y="0" type="line" name="hr00"/>
      <point x="320" y="2" type="line"/>
      <point x="172" y="263" type="line"/>
      <point x="310" y="473" type="line"/>
      <point x="310" y="475" type="line"/>
      <point x="240" y="475" type="line"/>
      <point x="118" y="279" type="line"/>
      <point x="118" y="764" type="line"/>
      <point x="53" y="764" type="line"/>
      <point x="53" y="0" type="line"/>
      <point x="118" y="0" type="line"/>
      <point x="118" y="242" type="line"/>
      <point x="249" y="0" type="line"/>
    </contour>
  </outline>
</glyph>
<glyph name="l" format="1">
  <advance width="178"/>
  <unicode hex="006C"/>
  <outline>
    <contour>
      <point x="121" y="0" type="line" name="hr00"/>
      <point x="121" y="764" type="line"/>
      <point x="57" y="764" type="line"/>
      <point x="57" y="0" type="line"/>
    </contour>
  </outline>
</glyph>
<glyph name="m" format="1">
  <advance width="583"/>
  <unicode hex="006D"/>
  <outline>
    <contour>
      <point x="531" y="0" type="line" name="hr00"/>
      <point x="531" y="425" type="line" smooth="yes"/>
      <point x="531" y="461"/>
      <point x="513" y="478"/>
      <point x="477" y="478" type="curve" smooth="yes"/>
      <point x="471" y="478"/>
      <point x="465" y="478"/>
      <point x="457" y="476" type="curve"/>
      <point x="315" y="460" type="line"/>
      <point x="311" y="465" type="line" smooth="yes"/>
      <point x="304" y="473"/>
      <point x="290" y="478"/>
      <point x="271" y="478" type="curve" smooth="yes"/>
      <point x="266" y="478"/>
      <point x="256" y="477"/>
      <point x="247" y="476" type="curve" smooth="yes"/>
      <point x="118" y="462" type="line"/>
      <point x="118" y="475" type="line"/>
      <point x="53" y="475" type="line"/>
      <point x="53" y="0" type="line"/>
      <point x="118" y="0" type="line"/>
      <point x="118" y="413" type="line"/>
      <point x="260" y="417" type="line"/>
      <point x="260" y="0" type="line"/>
      <point x="324" y="0" type="line"/>
      <point x="324" y="413" type="line"/>
      <point x="466" y="417" type="line"/>
      <point x="466" y="0" type="line"/>
    </contour>
  </outline>
</glyph>
<glyph name="t" format="1">
  <advance width="254"/>
  <unicode hex="0074"/>
  <outline>
    <contour>
      <point x="224" y="0" type="line" name="hr00"/>
      <point x="224" y="57" type="line"/>
      <point x="141" y="57" type="line"/>
      <point x="141" y="418" type="line"/>
      <point x="224" y="418" type="line"/>
      <point x="224" y="475" type="line"/>
      <point x="141" y="475" type="line"/>
      <point x="141" y="623" type="line"/>
      <point x="77" y="623" type="line"/>
      <point x="77" y="475" type="line"/>
      <point x="20" y="475" type="line"/>
      <point x="20" y="418" type="line"/>
      <point x="77" y="418" type="line"/>
      <point x="77" y="55" type="line" smooth="yes"/>
      <point x="77" y="18"/>
      <point x="95" y="0"/>
      <point x="132" y="0" type="curve" smooth="yes"/>
    </contour>
  </outline>
</glyph>
<glyph name="v" format="1">
  <advance width="347"/>
  <unicode hex="0076"/>
  <outline>
    <contour>
      <point x="321" y="475" type="line" name="hr00"/>
      <point x="256" y="475" type="line"/>
      <point x="174" y="101" type="line"/>
      <point x="93" y="475" type="line"/>
      <point x="26" y="475" type="line"/>
      <point x="144" y="-1" type="line"/>
      <point x="203" y="-1" type="line"/>
    </contour>
  </outline>
</glyph>
<glyph name="w" format="1">
  <advance width="505"/>
  <unicode hex="0077"/>
  <outline>
    <contour>
      <point x="478" y="475" type="line" name="hr00"/>
      <point x="417" y="475" type="line"/>
      <point x="350" y="109" type="line"/>
      <point x="281" y="475" type="line"/>
      <point x="224" y="475" type="line"/>
      <point x="155" y="109" type="line"/>
      <point x="88" y="475" type="line"/>
      <point x="27" y="475" type="line"/>
      <point x="125" y="-1" type="line"/>
      <point x="182" y="-1" type="line"/>
      <point x="252" y="360" type="line"/>
      <point x="322" y="-1" type="line"/>
      <point x="380" y="-1" type="line"/>
    </contour>
  </outline>
</glyph>
<glyph name="x" format="1">
  <advance width="331"/>
  <unicode hex="0078"/>
  <outline>
    <contour>
      <point x="311" y="0" type="line" name="hr00"/>
      <point x="311" y="2" type="line"/>
      <point x="200" y="246" type="line"/>
      <point x="304" y="473" type="line"/>
      <point x="304" y="475" type="line"/>
      <point x="241" y="475" type="line"/>
      <point x="166" y="301" type="line"/>
      <point x="93" y="475" type="line"/>
      <point x="27" y="475" type="line"/>
      <point x="27" y="473" type="line"/>
      <point x="131" y="244" type="line"/>
      <point x="20" y="2" type="line"/>
      <point x="20" y="0" type="line"/>
      <point x="84" y="0" type="line"/>
      <point x="165" y="188" type="line"/>
      <point x="245" y="0" type="line"/>
    </contour>
  </outline>
</glyph>
<glyph name="z" format="1">
  <advance width="320"/>
  <unicode hex="007A"/>
  <outline>
    <contour>
      <point x="281" y="0" type="line" name="hr00"/>
      <point x="281" y="58" type="line"/>
      <point x="107" y="58" type="line"/>
      <point x="281" y="445" type="line"/>
      <point x="281" y="475" type="line"/>
      <point x="49" y="475" type="line"/>
      <point x="49" y="417" type="line"/>
      <point x="204" y="417" type="line"/>
      <point x="31" y="30" type="line"/>
      <point x="31" y="0" type="line"/>
    </contour>
  </outline>
</glyph>
<glyph name="braceleft" format="1">
  <advance width="341"/>
  <unicode hex="007B"/>
  <outline>
    <contour>
      <point x="298" y="-121" type="line" name="hr00"/>
      <point x="298" y="-62" type="line"/>
      <point x="231" y="-62" type="line" smooth="yes"/>
      <point x="200" y="-62"/>
      <point x="181" y="-44"/>
      <point x="181" y="-13" type="curve" smooth="yes"/>
      <point x="181" y="245" type="line" smooth="yes"/>
      <point x="181" y="270"/>
      <point x="176" y="281"/>
      <point x="157" y="297" type="curve" smooth="yes"/>
      <point x="108" y="337" type="line"/>
      <point x="157" y="377" type="line" smooth="yes"/>
      <point x="176" y="393"/>
      <point x="181" y="404"/>
      <point x="181" y="429" type="curve" smooth="yes"/>
      <point x="181" y="656" type="line" smooth="yes"/>
      <point x="181" y="687"/>
      <point x="200" y="705"/>
      <point x="231" y="705" type="curve" smooth="yes"/>
      <point x="298" y="705" type="line"/>
      <point x="298" y="764" type="line"/>
      <point x="213" y="764" type="line" smooth="yes"/>
      <point x="155" y="764"/>
      <point x="113" y="722"/>
      <point x="113" y="664" type="curve" smooth="yes"/>
      <point x="113" y="420" type="line"/>
      <point x="31" y="344" type="line"/>
      <point x="31" y="330" type="line"/>
      <point x="113" y="254" type="line"/>
      <point x="113" y="-21" type="line" smooth="yes"/>
      <point x="113" y="-79"/>
      <point x="155" y="-121"/>
      <point x="213" y="-121" type="curve" smooth="yes"/>
    </contour>
  </outline>
</glyph>
<glyph name="bar" format="1">
  <advance width="204"/>
  <unicode hex="007C"/>
  <outline>
    <contour>
      <point x="133" y="-167" type="line" name="hr00"/>
      <point x="133" y="764" type="line"/>
      <point x="71" y="764" type="line"/>
      <point x="71" y="-167" type="line"/>
    </contour>
  </outline>
</glyph>
<glyph name="braceright" format="1">
  <advance width="341"/>
  <unicode hex="007D"/>
  <outline>
    <contour>
      <point x="310" y="330" type="line" name="hr00"/>
      <point x="310" y="344" type="line"/>
      <point x="228" y="420" type="line"/>
      <point x="228" y="664" type="line" smooth="yes"/>
      <point x="228" y="722"/>
      <point x="185" y="764"/>
      <point x="128" y="764" type="curve" smooth="yes"/>
      <point x="43" y="764" type="line"/>
      <point x="43" y="705" type="line"/>
      <point x="110" y="705" type="line" smooth="yes"/>
      <point x="141" y="705"/>
      <point x="160" y="687"/>
      <point x="160" y="656" type="curve" smooth="yes"/>
      <point x="160" y="429" type="line" smooth="yes"/>
      <point x="160" y="404"/>
      <point x="164" y="393"/>
      <point x="184" y="377" type="curve" smooth="yes"/>
      <point x="233" y="337" type="line"/>
      <point x="184" y="297" type="line" smooth="yes"/>
      <point x="164" y="281"/>
      <point x="160" y="270"/>
      <point x="160" y="245" type="curve" smooth="yes"/>
      <point x="160" y="-13" type="line" smooth="yes"/>
      <point x="160" y="-44"/>
      <point x="141" y="-62"/>
      <point x="110" y="-62" type="curve" smooth="yes"/>
      <point x="43" y="-62" type="line"/>
      <point x="43" y="-121" type="line"/>
      <point x="128" y="-121" type="line" smooth="yes"/>
      <point x="185" y="-121"/>
      <point x="228" y="-79"/>
      <point x="228" y="-21" type="curve" smooth="yes"/>
      <point x="228" y="254" type="line"/>
    </contour>
  </outline>
</glyph>
<glyph name="asciitilde" format="1">
  <advance width="505"/>
  <unicode hex="007E"/>
  <outline>
    <contour>
      <point x="422" y="266" type="curve" name="hr00"/>
      <point x="422" y="368" type="line"/>
      <point x="358" y="368" type="line"/>
      <point x="358" y="291" type="line"/>
      <point x="174" y="361" type="line" smooth="yes"/>
      <point x="157" y="367"/>
      <point x="140" y="371"/>
      <point x="123" y="371" type="curve" smooth="yes"/>
      <point x="97" y="371"/>
      <point x="83" y="355"/>
      <point x="83" y="329" type="curve" smooth="yes"/>
      <point x="83" y="227" type="line"/>
      <point x="147" y="227" type="line"/>
      <point x="147" y="304" type="line"/>
      <point x="331" y="234" type="line" smooth="yes"/>
      <point x="348" y="228"/>
      <point x="365" y="224"/>
      <point x="382" y="224" type="curve" smooth="yes"/>
      <point x="408" y="224"/>
      <point x="422" y="240"/>
    </contour>
  </outline>
</glyph>
<glyph name="exclamdown" format="1">
  <advance width="199"/>
  <unicode hex="00A1"/>
  <outline>
    <contour>
      <point x="136" y="678" type="line" name="hr00"/>
      <point x="136" y="764" type="line"/>
      <point x="63" y="764" type="line"/>
      <point x="63" y="678" type="line"/>
    </contour>
    <contour>
      <point x="137" y="0" type="line"/>
      <point x="122" y="592" type="line"/>
      <point x="77" y="592" type="line"/>
      <point x="62" y="0" type="line"/>
    </contour>
  </outline>
</glyph>
<glyph name="cent" format="1">
  <advance width="369"/>
  <unicode hex="00A2"/>
  <outline>
    <contour>
      <point x="317" y="201" type="curve" name="hr00"/>
      <point x="317" y="309" type="line"/>
      <point x="253" y="309" type="line"/>
      <point x="253" y="203" type="line"/>
      <point x="211" y="203" type="line"/>
      <point x="211" y="564" type="line"/>
      <point x="253" y="564" type="line"/>
      <point x="253" y="471" type="line"/>
      <point x="317" y="471" type="line"/>
      <point x="317" y="566" type="line" smooth="yes"/>
      <point x="317" y="603"/>
      <point x="299" y="621"/>
      <point x="262" y="621" type="curve" smooth="yes"/>
      <point x="211" y="621" type="line"/>
      <point x="211" y="764" type="line"/>
      <point x="159" y="764" type="line"/>
      <point x="159" y="621" type="line"/>
      <point x="108" y="621" type="line" smooth="yes"/>
      <point x="71" y="621"/>
      <point x="53" y="603"/>
      <point x="53" y="566" type="curve" smooth="yes"/>
      <point x="53" y="201" type="line" smooth="yes"/>
      <point x="53" y="164"/>
      <point x="71" y="146"/>
      <point x="108" y="146" type="curve" smooth="yes"/>
      <point x="159" y="146" type="line"/>
      <point x="159" y="0" type="line"/>
      <point x="211" y="0" type="line"/>
      <point x="211" y="146" type="line"/>
      <point x="262" y="146" type="line" smooth="yes"/>
      <point x="299" y="146"/>
      <point x="317" y="164"/>
    </contour>
    <contour>
      <point x="159" y="203" type="line"/>
      <point x="118" y="203" type="line"/>
      <point x="118" y="564" type="line"/>
      <point x="159" y="564" type="line"/>
    </contour>
  </outline>
</glyph>
<glyph name="yen" format="1">
  <advance width="390"/>
  <unicode hex="00A5"/>
  <outline>
    <contour>
      <point x="368" y="760" type="line" name="hr00"/>
      <point x="368" y="764" type="line"/>
      <point x="300" y="764" type="line"/>
      <point x="196" y="382" type="line"/>
      <point x="91" y="764" type="line"/>
      <point x="22" y="764" type="line"/>
      <point x="22" y="760" type="line"/>
      <point x="114" y="454" type="line"/>
      <point x="30" y="454" type="line"/>
      <point x="30" y="397" type="line"/>
      <point x="131" y="397" type="line"/>
      <point x="158" y="308" type="line"/>
      <point x="30" y="308" type="line"/>
      <point x="30" y="251" type="line"/>
      <point x="161" y="251" type="line"/>
      <point x="161" y="0" type="line"/>
      <point x="229" y="0" type="line"/>
      <point x="229" y="251" type="line"/>
      <point x="360" y="251" type="line"/>
      <point x="360" y="308" type="line"/>
      <point x="232" y="308" type="line"/>
      <point x="259" y="397" type="line"/>
      <point x="360" y="397" type="line"/>
      <point x="360" y="454" type="line"/>
      <point x="276" y="454" type="line"/>
    </contour>
  </outline>
</glyph>
<glyph name="section" format="1">
  <advance width="417"/>
  <unicode hex="00A7"/>
  <outline>
    <contour>
      <point x="359" y="54" type="curve" name="hr00"/>
      <point x="359" y="170" type="line" smooth="yes"/>
      <point x="359" y="197"/>
      <point x="351" y="209"/>
      <point x="327" y="223" type="curve" smooth="yes"/>
      <point x="263" y="259" type="line"/>
      <point x="328" y="295" type="line"/>
      <point x="352" y="307"/>
      <point x="359" y="318"/>
      <point x="359" y="347" type="curve" smooth="yes"/>
      <point x="359" y="422" type="line" smooth="yes"/>
      <point x="359" y="451"/>
      <point x="351" y="463"/>
      <point x="327" y="475" type="curve"/>
      <point x="125" y="588" type="line"/>
      <point x="125" y="706" type="line"/>
      <point x="293" y="706" type="line"/>
      <point x="293" y="591" type="line"/>
      <point x="359" y="591" type="line"/>
      <point x="359" y="710" type="line" smooth="yes"/>
      <point x="359" y="742"/>
      <point x="337" y="764"/>
      <point x="305" y="764" type="curve" smooth="yes"/>
      <point x="113" y="764" type="line" smooth="yes"/>
      <point x="81" y="764"/>
      <point x="58" y="742"/>
      <point x="58" y="710" type="curve" smooth="yes"/>
      <point x="58" y="594" type="line" smooth="yes"/>
      <point x="58" y="567"/>
      <point x="66" y="555"/>
      <point x="90" y="541" type="curve" smooth="yes"/>
      <point x="155" y="505" type="line"/>
      <point x="89" y="469" type="line"/>
      <point x="65" y="457"/>
      <point x="58" y="446"/>
      <point x="58" y="417" type="curve" smooth="yes"/>
      <point x="58" y="342" type="line" smooth="yes"/>
      <point x="58" y="313"/>
      <point x="66" y="301"/>
      <point x="90" y="289" type="curve"/>
      <point x="293" y="176" type="line"/>
      <point x="293" y="58" type="line"/>
      <point x="125" y="58" type="line"/>
      <point x="125" y="173" type="line"/>
      <point x="58" y="173" type="line"/>
      <point x="58" y="54" type="line" smooth="yes"/>
      <point x="58" y="22"/>
      <point x="81" y="0"/>
      <point x="113" y="0" type="curve" smooth="yes"/>
      <point x="305" y="0" type="line" smooth="yes"/>
      <point x="337" y="0"/>
      <point x="359" y="22"/>
    </contour>
    <contour>
      <point x="297" y="337" type="line"/>
      <point x="209" y="288" type="line"/>
      <point x="121" y="337" type="line"/>
      <point x="121" y="427" type="line"/>
      <point x="209" y="476" type="line"/>
      <point x="297" y="427" type="line"/>
    </contour>
  </outline>
</glyph>
<glyph name="dieresis" format="1">
  <advance width="400"/>
  <unicode hex="00A8"/>
  <outline>
    <contour>
      <point x="299" y="517" type="line" name="hr00"/>
      <point x="299" y="591" type="line"/>
      <point x="227" y="591" type="line"/>
      <point x="227" y="517" type="line"/>
    </contour>
    <contour>
      <point x="173" y="517" type="line"/>
      <point x="173" y="591" type="line"/>
      <point x="101" y="591" type="line"/>
      <point x="101" y="517" type="line"/>
    </contour>
  </outline>
</glyph>
<glyph name="logicalnot" format="1">
  <advance width="437"/>
  <unicode hex="00AC"/>
  <outline>
    <contour>
      <point x="376" y="0" type="line" name="hr00"/>
      <point x="376" y="764" type="line"/>
      <point x="312" y="764" type="line"/>
      <point x="312" y="212" type="line"/>
      <point x="112" y="764" type="line"/>
      <point x="61" y="764" type="line"/>
      <point x="61" y="0" type="line"/>
      <point x="125" y="0" type="line"/>
      <point x="125" y="562" type="line"/>
      <point x="329" y="0" type="line"/>
    </contour>
    <contour>
      <point x="325" y="920" type="line"/>
      <point x="325" y="922" type="line"/>
      <point x="233" y="922" type="line"/>
      <point x="160" y="810" type="line"/>
      <point x="160" y="807" type="line"/>
      <point x="205" y="807" type="line"/>
    </contour>
  </outline>
</glyph>
<glyph name="registered" format="1">
  <advance width="564"/>
  <unicode hex="00AE"/>
  <outline>
    <contour>
      <point x="503" y="32" type="curve" name="hr00"/>
      <point x="503" y="732" type="line" smooth="yes"/>
      <point x="503" y="752"/>
      <point x="491" y="764"/>
      <point x="471" y="764" type="curve" smooth="yes"/>
      <point x="93" y="764" type="line" smooth="yes"/>
      <point x="73" y="764"/>
      <point x="61" y="752"/>
      <point x="61" y="732" type="curve" smooth="yes"/>
      <point x="61" y="32" type="line" smooth="yes"/>
      <point x="61" y="12"/>
      <point x="73" y="0"/>
      <point x="93" y="0" type="curve" smooth="yes"/>
      <point x="471" y="0" type="line" smooth="yes"/>
      <point x="491" y="0"/>
      <point x="503" y="12"/>
    </contour>
    <contour>
      <point x="466" y="34" type="line"/>
      <point x="98" y="34" type="line"/>
      <point x="98" y="730" type="line"/>
      <point x="466" y="730" type="line"/>
    </contour>
    <contour>
      <point x="386" y="169" type="line"/>
      <point x="386" y="174" type="line"/>
      <point x="316" y="371" type="line"/>
      <point x="346" y="371" type="line"/>
      <point x="364" y="372"/>
      <point x="377" y="386"/>
      <point x="377" y="405" type="curve" smooth="yes"/>
      <point x="377" y="564" type="line" smooth="yes"/>
      <point x="377" y="585"/>
      <point x="363" y="599"/>
      <point x="343" y="599" type="curve" smooth="yes"/>
      <point x="189" y="599" type="line"/>
      <point x="189" y="169" type="line"/>
      <point x="238" y="169" type="line"/>
      <point x="238" y="554" type="line"/>
      <point x="328" y="554" type="line"/>
      <point x="328" y="414" type="line"/>
      <point x="266" y="414" type="line"/>
      <point x="256" y="399" type="line"/>
      <point x="335" y="169" type="line"/>
    </contour>
  </outline>
</glyph>
<glyph name="macron" format="1">
  <advance width="400"/>
  <unicode hex="00AF"/>
  <unicode hex="02C9"/>
  <outline>
    <contour>
      <point x="308" y="532" type="line" name="hr00"/>
      <point x="308" y="584" type="line"/>
      <point x="92" y="584" type="line"/>
      <point x="92" y="532" type="line"/>
    </contour>
  </outline>
</glyph>
<glyph name="degree" format="1">
  <advance width="326"/>
  <unicode hex="00B0"/>
  <outline>
    <contour>
      <point x="281" y="434" type="curve" name="hr00"/>
      <point x="281" y="714" type="line" smooth="yes"/>
      <point x="281" y="748"/>
      <point x="264" y="764"/>
      <point x="230" y="764" type="curve" smooth="yes"/>
      <point x="96" y="764" type="line" smooth="yes"/>
      <point x="62" y="764"/>
      <point x="45" y="748"/>
      <point x="45" y="714" type="curve" smooth="yes"/>
      <point x="45" y="434" type="line" smooth="yes"/>
      <point x="45" y="400"/>
      <point x="62" y="384"/>
      <point x="96" y="384" type="curve" smooth="yes"/>
      <point x="230" y="384" type="line" smooth="yes"/>
      <point x="264" y="384"/>
      <point x="281" y="400"/>
    </contour>
    <contour>
      <point x="225" y="433" type="line"/>
      <point x="100" y="433" type="line"/>
      <point x="100" y="715" type="line"/>
      <point x="225" y="715" type="line"/>
    </contour>
  </outline>
</glyph>
<glyph name="mu" format="1">
  <advance width="600"/>
  <unicode hex="00B5"/>
  <unicode hex="03BC"/>
  <outline>
    <contour>
      <point x="539" y="0" type="line" name="hr00"/>
      <point x="539" y="764" type="line"/>
      <point x="474" y="764" type="line"/>
      <point x="301" y="591" type="line"/>
      <point x="299" y="591" type="line"/>
      <point x="126" y="764" type="line"/>
      <point x="61" y="764" type="line"/>
      <point x="61" y="0" type="line"/>
      <point x="127" y="0" type="line"/>
      <point x="127" y="676" type="line"/>
      <point x="267" y="535" type="line"/>
      <point x="267" y="0" type="line"/>
      <point x="333" y="0" type="line"/>
      <point x="333" y="535" type="line"/>
      <point x="473" y="676" type="line"/>
      <point x="473" y="0" type="line"/>
    </contour>
  </outline>
</glyph>
<glyph name="paragraph" format="1">
  <advance width="463"/>
  <unicode hex="00B6"/>
  <outline>
    <contour>
      <point x="402" y="0" type="line" name="hr00"/>
      <point x="402" y="764" type="line"/>
      <point x="101" y="764" type="line" smooth="yes"/>
      <point x="69" y="764"/>
      <point x="47" y="742"/>
      <point x="47" y="710" type="curve" smooth="yes"/>
      <point x="47" y="358" type="line" smooth="yes"/>
      <point x="47" y="326"/>
      <point x="69" y="303"/>
      <point x="101" y="303" type="curve" smooth="yes"/>
      <point x="186" y="303" type="line"/>
      <point x="186" y="0" type="line"/>
      <point x="251" y="0" type="line"/>
      <point x="251" y="303" type="line"/>
      <point x="337" y="303" type="line"/>
      <point x="337" y="0" type="line"/>
    </contour>
    <contour>
      <point x="337" y="364" type="line"/>
      <point x="207" y="364" type="line"/>
      <point x="207" y="704" type="line"/>
      <point x="337" y="704" type="line"/>
    </contour>
  </outline>
</glyph>
<glyph name="periodcentered" format="1">
  <advance width="166"/>
  <unicode hex="00B7"/>
  <unicode hex="22C5"/>
  <outline>
    <contour>
      <point x="120" y="255" type="line" name="hr00"/>
      <point x="120" y="342" type="line"/>
      <point x="46" y="342" type="line"/>
      <point x="46" y="255" type="line"/>
    </contour>
  </outline>
</glyph>
<glyph name="cedilla" format="1">
  <advance width="400"/>
  <unicode hex="00B8"/>
  <outline>
    <contour>
      <point x="289" y="-141" type="curve" name="hr00"/>
      <point x="289" y="-86" type="line" smooth="yes"/>
      <point x="289" y="-65"/>
      <point x="285" y="-56"/>
      <point x="267" y="-47" type="curve" smooth="yes"/>
      <point x="224" y="-24" type="line"/>
      <point x="224" y="10" type="line"/>
      <point x="172" y="10" type="line"/>
      <point x="172" y="-23" type="line" smooth="yes"/>
      <point x="172" y="-44"/>
      <point x="177" y="-53"/>
      <point x="195" y="-62" type="curve" smooth="yes"/>
      <point x="237" y="-84" type="line"/>
      <point x="237" y="-136" type="line"/>
      <point x="162" y="-136" type="line"/>
      <point x="162" y="-86" type="line"/>
      <point x="111" y="-86" type="line"/>
      <point x="111" y="-141" type="line" smooth="yes"/>
      <point x="111" y="-167"/>
      <point x="123" y="-180"/>
      <point x="150" y="-180" type="curve" smooth="yes"/>
      <point x="250" y="-180" type="line" smooth="yes"/>
      <point x="276" y="-180"/>
      <point x="289" y="-167"/>
    </contour>
  </outline>
</glyph>
<glyph name="Aacute" format="1">
  <advance width="400"/>
  <unicode hex="00C1"/>
  <outline>
    <contour>
      <point x="369" y="0" type="line" name="hr00"/>
      <point x="369" y="2" type="line"/>
      <point x="234" y="766" type="line"/>
      <point x="167" y="766" type="line"/>
      <point x="31" y="2" type="line"/>
      <point x="31" y="0" type="line"/>
      <point x="96" y="0" type="line"/>
      <point x="123" y="170" type="line"/>
      <point x="275" y="170" type="line"/>
      <point x="302" y="0" type="line"/>
    </contour>
    <contour>
      <point x="266" y="230" type="line"/>
      <point x="132" y="230" type="line"/>
      <point x="199" y="644" type="line"/>
    </contour>
    <contour>
      <point x="312" y="920" type="line"/>
      <point x="312" y="922" type="line"/>
      <point x="220" y="922" type="line"/>
      <point x="147" y="810" type="line"/>
      <point x="147" y="807" type="line"/>
      <point x="192" y="807" type="line"/>
    </contour>
  </outline>
</glyph>
<glyph name="Atilde" format="1">
  <advance width="400"/>
  <unicode hex="00C3"/>
  <outline>
    <contour>
      <point x="369" y="0" type="line"/>
      <point x="369" y="2" type="line"/>
      <point x="234" y="766" type="line"/>
      <point x="167" y="766" type="line"/>
      <point x="31" y="2" type="line"/>
      <point x="31" y="0" type="line"/>
      <point x="96" y="0" type="line"/>
      <point x="123" y="170" type="line"/>
      <point x="275" y="170" type="line"/>
      <point x="302" y="0" type="line"/>
    </contour>
    <contour>
      <point x="266" y="230" type="line"/>
      <point x="132" y="230" type="line"/>
      <point x="199" y="644" type="line"/>
    </contour>
    <contour>
      <point x="306" y="841" type="curve" name="hr01"/>
      <point x="306" y="901" type="line"/>
      <point x="254" y="901" type="line"/>
      <point x="254" y="858" type="line"/>
      <point x="165" y="894" type="line" smooth="yes"/>
      <point x="152" y="899"/>
      <point x="142" y="902"/>
      <point x="130" y="902" type="curve" smooth="yes"/>
      <point x="107" y="902"/>
      <point x="94" y="889"/>
      <point x="94" y="866" type="curve" smooth="yes"/>
      <point x="94" y="806" type="line"/>
      <point x="146" y="806" type="line"/>
      <point x="146" y="849" type="line"/>
      <point x="235" y="813" type="line" smooth="yes"/>
      <point x="248" y="808"/>
      <point x="258" y="805"/>
      <point x="270" y="805" type="curve" smooth="yes"/>
      <point x="293" y="805"/>
      <point x="306" y="818"/>
    </contour>
  </outline>
</glyph>
<glyph name="Adieresis" format="1">
  <advance width="400"/>
  <unicode hex="00C4"/>
  <outline>
    <contour>
      <point x="369" y="0" type="line"/>
      <point x="369" y="2" type="line"/>
      <point x="234" y="766" type="line"/>
      <point x="167" y="766" type="line"/>
      <point x="31" y="2" type="line"/>
      <point x="31" y="0" type="line"/>
      <point x="96" y="0" type="line"/>
      <point x="123" y="170" type="line"/>
      <point x="275" y="170" type="line"/>
      <point x="302" y="0" type="line"/>
    </contour>
    <contour>
      <point x="266" y="230" type="line"/>
      <point x="132" y="230" type="line"/>
      <point x="199" y="644" type="line"/>
    </contour>
    <contour>
      <point x="299" y="807" type="line" name="hr01"/>
      <point x="299" y="881" type="line"/>
      <point x="227" y="881" type="line"/>
      <point x="227" y="807" type="line"/>
    </contour>
    <contour>
      <point x="173" y="807" type="line"/>
      <point x="173" y="881" type="line"/>
      <point x="101" y="881" type="line"/>
      <point x="101" y="807" type="line"/>
    </contour>
  </outline>
</glyph>
<glyph name="AE" format="1">
  <advance width="555"/>
  <unicode hex="00C6"/>
  <outline>
    <contour>
      <point x="510" y="0" type="line" name="hr00"/>
      <point x="510" y="60" type="line"/>
      <point x="330" y="60" type="line"/>
      <point x="330" y="358" type="line"/>
      <point x="492" y="358" type="line"/>
      <point x="492" y="419" type="line"/>
      <point x="330" y="419" type="line"/>
      <point x="330" y="704" type="line"/>
      <point x="507" y="704" type="line"/>
      <point x="507" y="764" type="line"/>
      <point x="216" y="764" type="line"/>
      <point x="27" y="2" type="line"/>
      <point x="27" y="0" type="line"/>
      <point x="92" y="0" type="line"/>
      <point x="133" y="170" type="line"/>
      <point x="263" y="170" type="line"/>
      <point x="263" y="0" type="line"/>
    </contour>
    <contour>
      <point x="263" y="230" type="line"/>
      <point x="146" y="230" type="line"/>
      <point x="263" y="712" type="line"/>
    </contour>
  </outline>
</glyph>
<glyph name="Ccedilla" format="1">
  <advance width="425"/>
  <unicode hex="00C7"/>
  <outline>
    <contour>
      <point x="367" y="54" type="curve" name="hr00"/>
      <point x="367" y="248" type="line"/>
      <point x="299" y="248" type="line"/>
      <point x="299" y="60" type="line"/>
      <point x="129" y="60" type="line"/>
      <point x="129" y="704" type="line"/>
      <point x="299" y="704" type="line"/>
      <point x="299" y="532" type="line"/>
      <point x="367" y="532" type="line"/>
      <point x="367" y="710" type="line" smooth="yes"/>
      <point x="367" y="742"/>
      <point x="344" y="764"/>
      <point x="312" y="764" type="curve" smooth="yes"/>
      <point x="115" y="764" type="line" smooth="yes"/>
      <point x="83" y="764"/>
      <point x="61" y="742"/>
      <point x="61" y="710" type="curve" smooth="yes"/>
      <point x="61" y="54" type="line" smooth="yes"/>
      <point x="61" y="22"/>
      <point x="83" y="0"/>
      <point x="115" y="0" type="curve" smooth="yes"/>
      <point x="185" y="0" type="line"/>
      <point x="185" y="-23" type="line" smooth="yes"/>
      <point x="185" y="-44"/>
      <point x="190" y="-53"/>
      <point x="207" y="-62" type="curve" smooth="yes"/>
      <point x="250" y="-84" type="line"/>
      <point x="250" y="-136" type="line"/>
      <point x="174" y="-136" type="line"/>
      <point x="174" y="-86" type="line"/>
      <point x="123" y="-86" type="line"/>
      <point x="123" y="-141" type="line" smooth="yes"/>
      <point x="123" y="-167"/>
      <point x="136" y="-180"/>
      <point x="163" y="-180" type="curve" smooth="yes"/>
      <point x="263" y="-180" type="line" smooth="yes"/>
      <point x="289" y="-180"/>
      <point x="302" y="-167"/>
      <point x="302" y="-141" type="curve" smooth="yes"/>
      <point x="302" y="-86" type="line" smooth="yes"/>
      <point x="302" y="-65"/>
      <point x="297" y="-56"/>
      <point x="280" y="-47" type="curve" smooth="yes"/>
      <point x="237" y="-24" type="line"/>
      <point x="237" y="0" type="line"/>
      <point x="312" y="0" type="line" smooth="yes"/>
      <point x="344" y="0"/>
      <point x="367" y="22"/>
    </contour>
  </outline>
</glyph>
<glyph name="Eacute" format="1">
  <advance width="357"/>
  <unicode hex="00C9"/>
  <outline>
    <contour>
      <point x="312" y="0" type="line" name="hr00"/>
      <point x="312" y="60" type="line"/>
      <point x="129" y="60" type="line"/>
      <point x="129" y="358" type="line"/>
      <point x="293" y="358" type="line"/>
      <point x="293" y="419" type="line"/>
      <point x="129" y="419" type="line"/>
      <point x="129" y="704" type="line"/>
      <point x="309" y="704" type="line"/>
      <point x="309" y="764" type="line"/>
      <point x="61" y="764" type="line"/>
      <point x="61" y="0" type="line"/>
    </contour>
    <contour>
      <point x="283" y="920" type="line"/>
      <point x="283" y="922" type="line"/>
      <point x="191" y="922" type="line"/>
      <point x="118" y="810" type="line"/>
      <point x="118" y="807" type="line"/>
      <point x="163" y="807" type="line"/>
    </contour>
  </outline>
</glyph>
<glyph name="Ecircumflex" format="1">
  <advance width="357"/>
  <unicode hex="00CA"/>
  <outline>
    <contour>
      <point x="312" y="0" type="line" name="hr00"/>
      <point x="312" y="60" type="line"/>
      <point x="129" y="60" type="line"/>
      <point x="129" y="358" type="line"/>
      <point x="293" y="358" type="line"/>
      <point x="293" y="419" type="line"/>
      <point x="129" y="419" type="line"/>
      <point x="129" y="704" type="line"/>
      <point x="309" y="704" type="line"/>
      <point x="309" y="764" type="line"/>
      <point x="61" y="764" type="line"/>
      <point x="61" y="0" type="line"/>
    </contour>
    <contour>
      <point x="300" y="807" type="line"/>
      <point x="300" y="811" type="line"/>
      <point x="204" y="922" type="line"/>
      <point x="166" y="922" type="line"/>
      <point x="70" y="811" type="line"/>
      <point x="70" y="807" type="line"/>
      <point x="110" y="807" type="line"/>
      <point x="184" y="864" type="line"/>
      <point x="258" y="807" type="line"/>
    </contour>
  </outline>
</glyph>
<glyph name="Igrave" format="1">
  <advance width="199"/>
  <unicode hex="00CC"/>
  <outline>
    <contour>
      <point x="133" y="0" type="line" name="hr00"/>
      <point x="133" y="764" type="line"/>
      <point x="65" y="764" type="line"/>
      <point x="65" y="0" type="line"/>
    </contour>
    <contour>
      <point x="150" y="807" type="line"/>
      <point x="150" y="810" type="line"/>
      <point x="77" y="922" type="line"/>
      <point x="-15" y="922" type="line"/>
      <point x="-15" y="920" type="line"/>
      <point x="105" y="807" type="line"/>
    </contour>
  </outline>
</glyph>
<glyph name="Icircumflex" format="1">
  <advance width="199"/>
  <unicode hex="00CE"/>
  <outline>
    <contour>
      <point x="133" y="0" type="line" name="hr00"/>
      <point x="133" y="764" type="line"/>
      <point x="65" y="764" type="line"/>
      <point x="65" y="0" type="line"/>
    </contour>
    <contour>
      <point x="214" y="808" type="line"/>
      <point x="214" y="812" type="line"/>
      <point x="118" y="923" type="line"/>
      <point x="80" y="923" type="line"/>
      <point x="-16" y="812" type="line"/>
      <point x="-16" y="808" type="line"/>
      <point x="24" y="808" type="line"/>
      <point x="98" y="865" type="line"/>
      <point x="172" y="808" type="line"/>
    </contour>
  </outline>
</glyph>
<glyph name="Idieresis" format="1">
  <advance width="199"/>
  <unicode hex="00CF"/>
  <outline>
    <contour>
      <point x="133" y="0" type="line"/>
      <point x="133" y="764" type="line"/>
      <point x="65" y="764" type="line"/>
      <point x="65" y="0" type="line"/>
    </contour>
    <contour>
      <point x="198" y="807" type="line" name="hr01"/>
      <point x="198" y="881" type="line"/>
      <point x="126" y="881" type="line"/>
      <point x="126" y="807" type="line"/>
    </contour>
    <contour>
      <point x="72" y="807" type="line"/>
      <point x="72" y="881" type="line"/>
      <point x="0" y="881" type="line"/>
      <point x="0" y="807" type="line"/>
    </contour>
  </outline>
</glyph>
<glyph name="Eth" format="1">
  <advance width="458"/>
  <unicode hex="00D0"/>
  <outline>
    <contour>
      <point x="400" y="138" type="curve" name="hr00"/>
      <point x="400" y="626" type="line" smooth="yes"/>
      <point x="400" y="702"/>
      <point x="346" y="764"/>
      <point x="260" y="764" type="curve" smooth="yes"/>
      <point x="85" y="764" type="line"/>
      <point x="85" y="428" type="line"/>
      <point x="34" y="428" type="line"/>
      <point x="34" y="367" type="line"/>
      <point x="85" y="367" type="line"/>
      <point x="85" y="0" type="line"/>
      <point x="260" y="0" type="line" smooth="yes"/>
      <point x="344" y="0"/>
      <point x="400" y="61"/>
    </contour>
    <contour>
      <point x="332" y="145" type="line" smooth="yes"/>
      <point x="332" y="97"/>
      <point x="301" y="60"/>
      <point x="243" y="60" type="curve" smooth="yes"/>
      <point x="152" y="60" type="line"/>
      <point x="152" y="367" type="line"/>
      <point x="234" y="367" type="line"/>
      <point x="234" y="428" type="line"/>
      <point x="152" y="428" type="line"/>
      <point x="152" y="704" type="line"/>
      <point x="247" y="704" type="line" smooth="yes"/>
      <point x="298" y="704"/>
      <point x="332" y="670"/>
      <point x="332" y="620" type="curve" smooth="yes"/>
    </contour>
  </outline>
</glyph>
<glyph name="Ntilde" format="1">
  <advance width="437"/>
  <unicode hex="00D1"/>
  <outline>
    <contour>
      <point x="376" y="0" type="line"/>
      <point x="376" y="764" type="line"/>
      <point x="312" y="764" type="line"/>
      <point x="312" y="212" type="line"/>
      <point x="112" y="764" type="line"/>
      <point x="61" y="764" type="line"/>
      <point x="61" y="0" type="line"/>
      <point x="125" y="0" type="line"/>
      <point x="125" y="562" type="line"/>
      <point x="329" y="0" type="line"/>
    </contour>
    <contour>
      <point x="322" y="842" type="curve" name="hr01"/>
      <point x="322" y="902" type="line"/>
      <point x="270" y="902" type="line"/>
      <point x="270" y="859" type="line"/>
      <point x="181" y="895" type="line" smooth="yes"/>
      <point x="168" y="900"/>
      <point x="158" y="903"/>
      <point x="146" y="903" type="curve" smooth="yes"/>
      <point x="123" y="903"/>
      <point x="110" y="890"/>
      <point x="110" y="867" type="curve" smooth="yes"/>
      <point x="110" y="807" type="line"/>
      <point x="162" y="807" type="line"/>
      <point x="162" y="850" type="line"/>
      <point x="251" y="814" type="line" smooth="yes"/>
      <point x="264" y="809"/>
      <point x="274" y="806"/>
      <point x="286" y="806" type="curve" smooth="yes"/>
      <point x="309" y="806"/>
      <point x="322" y="819"/>
    </contour>
  </outline>
</glyph>
<glyph name="Ocircumflex" format="1">
  <advance width="445"/>
  <unicode hex="00D4"/>
  <outline>
    <contour>
      <point x="384" y="54" type="curve" name="hr00"/>
      <point x="384" y="710" type="line" smooth="yes"/>
      <point x="384" y="742"/>
      <point x="361" y="764"/>
      <point x="329" y="764" type="curve" smooth="yes"/>
      <point x="115" y="764" type="line" smooth="yes"/>
      <point x="83" y="764"/>
      <point x="61" y="742"/>
      <point x="61" y="710" type="curve" smooth="yes"/>
      <point x="61" y="54" type="line" smooth="yes"/>
      <point x="61" y="22"/>
      <point x="83" y="0"/>
      <point x="115" y="0" type="curve" smooth="yes"/>
      <point x="329" y="0" type="line" smooth="yes"/>
      <point x="361" y="0"/>
      <point x="384" y="22"/>
    </contour>
    <contour>
      <point x="316" y="60" type="line"/>
      <point x="129" y="60" type="line"/>
      <point x="129" y="704" type="line"/>
      <point x="316" y="704" type="line"/>
    </contour>
    <contour>
      <point x="337" y="807" type="line"/>
      <point x="337" y="811" type="line"/>
      <point x="241" y="922" type="line"/>
      <point x="203" y="922" type="line"/>
      <point x="107" y="811" type="line"/>
      <point x="107" y="807" type="line"/>
      <point x="147" y="807" type="line"/>
      <point x="221" y="864" type="line"/>
      <point x="295" y="807" type="line"/>
    </contour>
  </outline>
</glyph>
<glyph name="Otilde" format="1">
  <advance width="445"/>
  <unicode hex="00D5"/>
  <outline>
    <contour>
      <point x="384" y="54" type="curve"/>
      <point x="384" y="710" type="line" smooth="yes"/>
      <point x="384" y="742"/>
      <point x="361" y="764"/>
      <point x="329" y="764" type="curve" smooth="yes"/>
      <point x="115" y="764" type="line" smooth="yes"/>
      <point x="83" y="764"/>
      <point x="61" y="742"/>
      <point x="61" y="710" type="curve" smooth="yes"/>
      <point x="61" y="54" type="line" smooth="yes"/>
      <point x="61" y="22"/>
      <point x="83" y="0"/>
      <point x="115" y="0" type="curve" smooth="yes"/>
      <point x="329" y="0" type="line" smooth="yes"/>
      <point x="361" y="0"/>
      <point x="384" y="22"/>
    </contour>
    <contour>
      <point x="316" y="60" type="line"/>
      <point x="129" y="60" type="line"/>
      <point x="129" y="704" type="line"/>
      <point x="316" y="704" type="line"/>
    </contour>
    <contour>
      <point x="328" y="842" type="curve" name="hr01"/>
      <point x="328" y="902" type="line"/>
      <point x="276" y="902" type="line"/>
      <point x="276" y="859" type="line"/>
      <point x="187" y="895" type="line" smooth="yes"/>
      <point x="174" y="900"/>
      <point x="164" y="903"/>
      <point x="152" y="903" type="curve" smooth="yes"/>
      <point x="129" y="903"/>
      <point x="116" y="890"/>
      <point x="116" y="867" type="curve" smooth="yes"/>
      <point x="116" y="807" type="line"/>
      <point x="168" y="807" type="line"/>
      <point x="168" y="850" type="line"/>
      <point x="257" y="814" type="line" smooth="yes"/>
      <point x="270" y="809"/>
      <point x="280" y="806"/>
      <point x="292" y="806" type="curve" smooth="yes"/>
      <point x="315" y="806"/>
      <point x="328" y="819"/>
    </contour>
  </outline>
</glyph>
<glyph name="Odieresis" format="1">
  <advance width="445"/>
  <unicode hex="00D6"/>
  <outline>
    <contour>
      <point x="384" y="54" type="curve"/>
      <point x="384" y="710" type="line" smooth="yes"/>
      <point x="384" y="742"/>
      <point x="361" y="764"/>
      <point x="329" y="764" type="curve" smooth="yes"/>
      <point x="115" y="764" type="line" smooth="yes"/>
      <point x="83" y="764"/>
      <point x="61" y="742"/>
      <point x="61" y="710" type="curve" smooth="yes"/>
      <point x="61" y="54" type="line" smooth="yes"/>
      <point x="61" y="22"/>
      <point x="83" y="0"/>
      <point x="115" y="0" type="curve" smooth="yes"/>
      <point x="329" y="0" type="line" smooth="yes"/>
      <point x="361" y="0"/>
      <point x="384" y="22"/>
    </contour>
    <contour>
      <point x="316" y="60" type="line"/>
      <point x="129" y="60" type="line"/>
      <point x="129" y="704" type="line"/>
      <point x="316" y="704" type="line"/>
    </contour>
    <contour>
      <point x="321" y="807" type="line" name="hr01"/>
      <point x="321" y="881" type="line"/>
      <point x="249" y="881" type="line"/>
      <point x="249" y="807" type="line"/>
    </contour>
    <contour>
      <point x="195" y="807" type="line"/>
      <point x="195" y="881" type="line"/>
      <point x="123" y="881" type="line"/>
      <point x="123" y="807" type="line"/>
    </contour>
  </outline>
</glyph>
<glyph name="Oslash" format="1">
  <advance width="445"/>
  <unicode hex="00D8"/>
  <outline>
    <contour>
      <point x="384" y="54" type="curve" name="hr00"/>
      <point x="384" y="710" type="line" smooth="yes"/>
      <point x="384" y="734"/>
      <point x="371" y="753"/>
      <point x="351" y="760" type="curve"/>
      <point x="369" y="835" type="line"/>
      <point x="369" y="839" type="line"/>
      <point x="300" y="839" type="line"/>
      <point x="282" y="764" type="line"/>
      <point x="115" y="764" type="line" smooth="yes"/>
      <point x="83" y="764"/>
      <point x="61" y="742"/>
      <point x="61" y="710" type="curve" smooth="yes"/>
      <point x="61" y="54" type="line" smooth="yes"/>
      <point x="61" y="29"/>
      <point x="74" y="11"/>
      <point x="94" y="3" type="curve"/>
      <point x="76" y="-71" type="line"/>
      <point x="76" y="-75" type="line"/>
      <point x="144" y="-75" type="line"/>
      <point x="162" y="0" type="line"/>
      <point x="329" y="0" type="line" smooth="yes"/>
      <point x="361" y="0"/>
      <point x="384" y="22"/>
    </contour>
    <contour>
      <point x="267" y="704" type="line"/>
      <point x="129" y="140" type="line"/>
      <point x="129" y="704" type="line"/>
    </contour>
    <contour>
      <point x="316" y="60" type="line"/>
      <point x="177" y="60" type="line"/>
      <point x="316" y="623" type="line"/>
    </contour>
  </outline>
</glyph>
<glyph name="Ugrave" format="1">
  <advance width="439"/>
  <unicode hex="00D9"/>
  <outline>
    <contour>
      <point x="378" y="54" type="curve" name="hr00"/>
      <point x="378" y="764" type="line"/>
      <point x="310" y="764" type="line"/>
      <point x="310" y="60" type="line"/>
      <point x="129" y="60" type="line"/>
      <point x="129" y="764" type="line"/>
      <point x="61" y="764" type="line"/>
      <point x="61" y="54" type="line" smooth="yes"/>
      <point x="61" y="22"/>
      <point x="83" y="0"/>
      <point x="115" y="0" type="curve" smooth="yes"/>
      <point x="323" y="0" type="line" smooth="yes"/>
      <point x="355" y="0"/>
      <point x="378" y="22"/>
    </contour>
    <contour>
      <point x="276" y="807" type="line"/>
      <point x="276" y="810" type="line"/>
      <point x="203" y="922" type="line"/>
      <point x="111" y="922" type="line"/>
      <point x="111" y="920" type="line"/>
      <point x="231" y="807" type="line"/>
    </contour>
  </outline>
</glyph>
<glyph name="Udieresis" format="1">
  <advance width="439"/>
  <unicode hex="00DC"/>
  <outline>
    <contour>
      <point x="378" y="54" type="curve"/>
      <point x="378" y="764" type="line"/>
      <point x="310" y="764" type="line"/>
      <point x="310" y="60" type="line"/>
      <point x="129" y="60" type="line"/>
      <point x="129" y="764" type="line"/>
      <point x="61" y="764" type="line"/>
      <point x="61" y="54" type="line" smooth="yes"/>
      <point x="61" y="22"/>
      <point x="83" y="0"/>
      <point x="115" y="0" type="curve" smooth="yes"/>
      <point x="323" y="0" type="line" smooth="yes"/>
      <point x="355" y="0"/>
      <point x="378" y="22"/>
    </contour>
    <contour>
      <point x="318" y="807" type="line" name="hr01"/>
      <point x="318" y="881" type="line"/>
      <point x="246" y="881" type="line"/>
      <point x="246" y="807" type="line"/>
    </contour>
    <contour>
      <point x="192" y="807" type="line"/>
      <point x="192" y="881" type="line"/>
      <point x="120" y="881" type="line"/>
      <point x="120" y="807" type="line"/>
    </contour>
  </outline>
</glyph>
<glyph name="Yacute" format="1">
  <advance width="390"/>
  <unicode hex="00DD"/>
  <outline>
    <contour>
      <point x="368" y="760" type="line" name="hr00"/>
      <point x="368" y="764" type="line"/>
      <point x="300" y="764" type="line"/>
      <point x="196" y="382" type="line"/>
      <point x="91" y="764" type="line"/>
      <point x="22" y="764" type="line"/>
      <point x="22" y="760" type="line"/>
      <point x="161" y="296" type="line"/>
      <point x="161" y="0" type="line"/>
      <point x="229" y="0" type="line"/>
      <point x="229" y="296" type="line"/>
    </contour>
    <contour>
      <point x="306" y="913" type="line"/>
      <point x="306" y="915" type="line"/>
      <point x="214" y="915" type="line"/>
      <point x="141" y="803" type="line"/>
      <point x="141" y="800" type="line"/>
      <point x="186" y="800" type="line"/>
    </contour>
  </outline>
</glyph>
<glyph name="Thorn" format="1">
  <advance width="410"/>
  <unicode hex="00DE"/>
  <outline>
    <contour>
      <point x="364" y="211" type="curve" name="hr00"/>
      <point x="364" y="563" type="line" smooth="yes"/>
      <point x="364" y="595"/>
      <point x="341" y="617"/>
      <point x="309" y="617" type="curve" smooth="yes"/>
      <point x="129" y="617" type="line"/>
      <point x="129" y="764" type="line"/>
      <point x="61" y="764" type="line"/>
      <point x="61" y="0" type="line"/>
      <point x="129" y="0" type="line"/>
      <point x="129" y="157" type="line"/>
      <point x="309" y="157" type="line" smooth="yes"/>
      <point x="341" y="157"/>
      <point x="364" y="179"/>
    </contour>
    <contour>
      <point x="296" y="217" type="line"/>
      <point x="129" y="217" type="line"/>
      <point x="129" y="557" type="line"/>
      <point x="296" y="557" type="line"/>
    </contour>
  </outline>
</glyph>
<glyph name="germandbls" format="1">
  <advance width="385"/>
  <unicode hex="00DF"/>
  <outline>
    <contour>
      <point x="331" y="53" type="curve" name="hr00"/>
      <point x="331" y="294" type="line" smooth="yes"/>
      <point x="331" y="326"/>
      <point x="329" y="337"/>
      <point x="306" y="358" type="curve"/>
      <point x="253" y="401" type="line"/>
      <point x="305" y="445" type="line"/>
      <point x="328" y="466"/>
      <point x="330" y="477"/>
      <point x="330" y="508" type="curve" smooth="yes"/>
      <point x="330" y="662" type="line" smooth="yes"/>
      <point x="330" y="719"/>
      <point x="290" y="764"/>
      <point x="229" y="764" type="curve" smooth="yes"/>
      <point x="53" y="764" type="line"/>
      <point x="53" y="0" type="line"/>
      <point x="118" y="0" type="line"/>
      <point x="118" y="707" type="line"/>
      <point x="213" y="707" type="line" smooth="yes"/>
      <point x="249" y="707"/>
      <point x="266" y="686"/>
      <point x="266" y="652" type="curve" smooth="yes"/>
      <point x="266" y="482" type="line"/>
      <point x="187" y="409" type="line"/>
      <point x="187" y="393" type="line"/>
      <point x="267" y="319" type="line"/>
      <point x="267" y="57" type="line"/>
      <point x="188" y="57" type="line"/>
      <point x="188" y="0" type="line"/>
      <point x="278" y="0" type="line" smooth="yes"/>
      <point x="314" y="0"/>
      <point x="331" y="18"/>
    </contour>
  </outline>
</glyph>
<glyph name="agrave" format="1">
  <advance width="375"/>
  <unicode hex="00E0"/>
  <outline>
    <contour>
      <point x="322" y="0" type="line" name="hr00"/>
      <point x="322" y="420" type="line" smooth="yes"/>
      <point x="322" y="457"/>
      <point x="304" y="475"/>
      <point x="267" y="475" type="curve" smooth="yes"/>
      <point x="111" y="475" type="line" smooth="yes"/>
      <point x="74" y="475"/>
      <point x="56" y="457"/>
      <point x="56" y="420" type="curve" smooth="yes"/>
      <point x="56" y="340" type="line"/>
      <point x="119" y="340" type="line"/>
      <point x="119" y="421" type="line"/>
      <point x="259" y="421" type="line"/>
      <point x="259" y="278" type="line"/>
      <point x="106" y="278" type="line" smooth="yes"/>
      <point x="69" y="278"/>
      <point x="51" y="260"/>
      <point x="51" y="223" type="curve" smooth="yes"/>
      <point x="51" y="50" type="line" smooth="yes"/>
      <point x="51" y="14"/>
      <point x="68" y="-3"/>
      <point x="104" y="-3" type="curve" smooth="yes"/>
      <point x="111" y="-3"/>
      <point x="117" y="-3"/>
      <point x="125" y="-1" type="curve"/>
      <point x="258" y="13" type="line"/>
      <point x="258" y="0" type="line"/>
    </contour>
    <contour>
      <point x="259" y="59" type="line"/>
      <point x="114" y="56" type="line"/>
      <point x="114" y="227" type="line"/>
      <point x="259" y="227" type="line"/>
    </contour>
    <contour>
      <point x="247" y="517" type="line"/>
      <point x="247" y="520" type="line"/>
      <point x="174" y="632" type="line"/>
      <point x="82" y="632" type="line"/>
      <point x="82" y="630" type="line"/>
      <point x="202" y="517" type="line"/>
    </contour>
  </outline>
</glyph>
<glyph name="atilde" format="1">
  <advance width="375"/>
  <unicode hex="00E3"/>
  <outline>
    <contour>
      <point x="322" y="0" type="line"/>
      <point x="322" y="420" type="line" smooth="yes"/>
      <point x="322" y="457"/>
      <point x="304" y="475"/>
      <point x="267" y="475" type="curve" smooth="yes"/>
      <point x="111" y="475" type="line" smooth="yes"/>
      <point x="74" y="475"/>
      <point x="56" y="457"/>
      <point x="56" y="420" type="curve" smooth="yes"/>
      <point x="56" y="340" type="line"/>
      <point x="119" y="340" type="line"/>
      <point x="119" y="421" type="line"/>
      <point x="259" y="421" type="line"/>
      <point x="259" y="278" type="line"/>
      <point x="106" y="278" type="line" smooth="yes"/>
      <point x="69" y="278"/>
      <point x="51" y="260"/>
      <point x="51" y="223" type="curve" smooth="yes"/>
      <point x="51" y="50" type="line" smooth="yes"/>
      <point x="51" y="14"/>
      <point x="68" y="-3"/>
      <point x="104" y="-3" type="curve" smooth="yes"/>
      <point x="111" y="-3"/>
      <point x="117" y="-3"/>
      <point x="125" y="-1" type="curve"/>
      <point x="258" y="13" type="line"/>
      <point x="258" y="0" type="line"/>
    </contour>
    <contour>
      <point x="259" y="59" type="line"/>
      <point x="114" y="56" type="line"/>
      <point x="114" y="227" type="line"/>
      <point x="259" y="227" type="line"/>
    </contour>
    <contour>
      <point x="295" y="552" type="curve" name="hr01"/>
      <point x="295" y="612" type="line"/>
      <point x="243" y="612" type="line"/>
      <point x="243" y="569" type="line"/>
      <point x="154" y="605" type="line" smooth="yes"/>
      <point x="141" y="610"/>
      <point x="131" y="613"/>
      <point x="119" y="613" type="curve" smooth="yes"/>
      <point x="96" y="613"/>
      <point x="83" y="600"/>
      <point x="83" y="577" type="curve" smooth="yes"/>
      <point x="83" y="517" type="line"/>
      <point x="135" y="517" type="line"/>
      <point x="135" y="560" type="line"/>
      <point x="224" y="524" type="line" smooth="yes"/>
      <point x="237" y="519"/>
      <point x="247" y="516"/>
      <point x="259" y="516" type="curve" smooth="yes"/>
      <point x="282" y="516"/>
      <point x="295" y="529"/>
    </contour>
  </outline>
</glyph>
<glyph name="adieresis" format="1">
  <advance width="375"/>
  <unicode hex="00E4"/>
  <outline>
    <contour>
      <point x="322" y="0" type="line"/>
      <point x="322" y="420" type="line" smooth="yes"/>
      <point x="322" y="457"/>
      <point x="304" y="475"/>
      <point x="267" y="475" type="curve" smooth="yes"/>
      <point x="111" y="475" type="line" smooth="yes"/>
      <point x="74" y="475"/>
      <point x="56" y="457"/>
      <point x="56" y="420" type="curve" smooth="yes"/>
      <point x="56" y="340" type="line"/>
      <point x="119" y="340" type="line"/>
      <point x="119" y="421" type="line"/>
      <point x="259" y="421" type="line"/>
      <point x="259" y="278" type="line"/>
      <point x="106" y="278" type="line" smooth="yes"/>
      <point x="69" y="278"/>
      <point x="51" y="260"/>
      <point x="51" y="223" type="curve" smooth="yes"/>
      <point x="51" y="50" type="line" smooth="yes"/>
      <point x="51" y="14"/>
      <point x="68" y="-3"/>
      <point x="104" y="-3" type="curve" smooth="yes"/>
      <point x="111" y="-3"/>
      <point x="117" y="-3"/>
      <point x="125" y="-1" type="curve"/>
      <point x="258" y="13" type="line"/>
      <point x="258" y="0" type="line"/>
    </contour>
    <contour>
      <point x="259" y="59" type="line"/>
      <point x="114" y="56" type="line"/>
      <point x="114" y="227" type="line"/>
      <point x="259" y="227" type="line"/>
    </contour>
    <contour>
      <point x="288" y="517" type="line" name="hr01"/>
      <point x="288" y="591" type="line"/>
      <point x="216" y="591" type="line"/>
      <point x="216" y="517" type="line"/>
    </contour>
    <contour>
      <point x="162" y="517" type="line"/>
      <point x="162" y="591" type="line"/>
      <point x="90" y="591" type="line"/>
      <point x="90" y="517" type="line"/>
    </contour>
  </outline>
</glyph>
<glyph name="aring" format="1">
  <advance width="375"/>
  <unicode hex="00E5"/>
  <outline>
    <contour>
      <point x="322" y="0" type="line"/>
      <point x="322" y="420" type="line" smooth="yes"/>
      <point x="322" y="457"/>
      <point x="304" y="475"/>
      <point x="267" y="475" type="curve" smooth="yes"/>
      <point x="111" y="475" type="line" smooth="yes"/>
      <point x="74" y="475"/>
      <point x="56" y="457"/>
      <point x="56" y="420" type="curve" smooth="yes"/>
      <point x="56" y="340" type="line"/>
      <point x="119" y="340" type="line"/>
      <point x="119" y="421" type="line"/>
      <point x="259" y="421" type="line"/>
      <point x="259" y="278" type="line"/>
      <point x="106" y="278" type="line" smooth="yes"/>
      <point x="69" y="278"/>
      <point x="51" y="260"/>
      <point x="51" y="223" type="curve" smooth="yes"/>
      <point x="51" y="50" type="line" smooth="yes"/>
      <point x="51" y="14"/>
      <point x="68" y="-3"/>
      <point x="104" y="-3" type="curve" smooth="yes"/>
      <point x="111" y="-3"/>
      <point x="117" y="-3"/>
      <point x="125" y="-1" type="curve"/>
      <point x="258" y="13" type="line"/>
      <point x="258" y="0" type="line"/>
    </contour>
    <contour>
      <point x="259" y="59" type="line"/>
      <point x="114" y="56" type="line"/>
      <point x="114" y="227" type="line"/>
      <point x="259" y="227" type="line"/>
    </contour>
    <contour>
      <point x="283" y="562" type="curve" name="hr01"/>
      <point x="283" y="654" type="line" smooth="yes"/>
      <point x="283" y="684"/>
      <point x="268" y="699"/>
      <point x="238" y="699" type="curve" smooth="yes"/>
      <point x="140" y="699" type="line" smooth="yes"/>
      <point x="110" y="699"/>
      <point x="95" y="684"/>
      <point x="95" y="654" type="curve" smooth="yes"/>
      <point x="95" y="562" type="line" smooth="yes"/>
      <point x="95" y="532"/>
      <point x="110" y="517"/>
      <point x="140" y="517" type="curve" smooth="yes"/>
      <point x="238" y="517" type="line" smooth="yes"/>
      <point x="268" y="517"/>
      <point x="283" y="532"/>
    </contour>
    <contour>
      <point x="233" y="562" type="line"/>
      <point x="145" y="562" type="line"/>
      <point x="145" y="654" type="line"/>
      <point x="233" y="654" type="line"/>
    </contour>
  </outline>
</glyph>
<glyph name="ae" format="1">
  <advance width="571"/>
  <unicode hex="00E6"/>
  <outline>
    <contour>
      <point x="518" y="55" type="curve" name="hr00"/>
      <point x="518" y="141" type="line"/>
      <point x="455" y="141" type="line"/>
      <point x="455" y="54" type="line"/>
      <point x="318" y="54" type="line"/>
      <point x="318" y="226" type="line"/>
      <point x="495" y="226" type="line"/>
      <point x="518" y="248" type="line"/>
      <point x="518" y="420" type="line" smooth="yes"/>
      <point x="518" y="457"/>
      <point x="500" y="475"/>
      <point x="463" y="475" type="curve" smooth="yes"/>
      <point x="111" y="475" type="line" smooth="yes"/>
      <point x="74" y="475"/>
      <point x="56" y="457"/>
      <point x="56" y="420" type="curve" smooth="yes"/>
      <point x="56" y="340" type="line"/>
      <point x="119" y="340" type="line"/>
      <point x="119" y="421" type="line"/>
      <point x="256" y="421" type="line"/>
      <point x="256" y="278" type="line"/>
      <point x="106" y="278" type="line" smooth="yes"/>
      <point x="69" y="278"/>
      <point x="51" y="260"/>
      <point x="51" y="223" type="curve" smooth="yes"/>
      <point x="51" y="50" type="line" smooth="yes"/>
      <point x="51" y="14"/>
      <point x="68" y="-3"/>
      <point x="104" y="-3" type="curve" smooth="yes"/>
      <point x="111" y="-3"/>
      <point x="117" y="-3"/>
      <point x="125" y="-2" type="curve" smooth="yes"/>
      <point x="268" y="14" type="line"/>
      <point x="278" y="5"/>
      <point x="291" y="0"/>
      <point x="311" y="0" type="curve" smooth="yes"/>
      <point x="463" y="0" type="line" smooth="yes"/>
      <point x="500" y="0"/>
      <point x="518" y="18"/>
    </contour>
    <contour>
      <point x="455" y="277" type="line"/>
      <point x="318" y="277" type="line"/>
      <point x="318" y="421" type="line"/>
      <point x="455" y="421" type="line"/>
    </contour>
    <contour>
      <point x="256" y="57" type="line"/>
      <point x="114" y="53" type="line"/>
      <point x="114" y="227" type="line"/>
      <point x="256" y="227" type="line"/>
    </contour>
  </outline>
</glyph>
<glyph name="ccedilla" format="1">
  <advance width="369"/>
  <unicode hex="00E7"/>
  <outline>
    <contour>
      <point x="317" y="55" type="curve" name="hr00"/>
      <point x="317" y="163" type="line"/>
      <point x="253" y="163" type="line"/>
      <point x="253" y="57" type="line"/>
      <point x="118" y="57" type="line"/>
      <point x="118" y="418" type="line"/>
      <point x="253" y="418" type="line"/>
      <point x="253" y="325" type="line"/>
      <point x="317" y="325" type="line"/>
      <point x="317" y="420" type="line" smooth="yes"/>
      <point x="317" y="457"/>
      <point x="299" y="475"/>
      <point x="262" y="475" type="curve" smooth="yes"/>
      <point x="108" y="475" type="line" smooth="yes"/>
      <point x="71" y="475"/>
      <point x="53" y="457"/>
      <point x="53" y="420" type="curve" smooth="yes"/>
      <point x="53" y="55" type="line" smooth="yes"/>
      <point x="53" y="18"/>
      <point x="71" y="0"/>
      <point x="108" y="0" type="curve" smooth="yes"/>
      <point x="156" y="0" type="line"/>
      <point x="156" y="-23" type="line" smooth="yes"/>
      <point x="156" y="-44"/>
      <point x="161" y="-53"/>
      <point x="178" y="-62" type="curve" smooth="yes"/>
      <point x="221" y="-84" type="line"/>
      <point x="221" y="-136" type="line"/>
      <point x="145" y="-136" type="line"/>
      <point x="145" y="-86" type="line"/>
      <point x="94" y="-86" type="line"/>
      <point x="94" y="-141" type="line" smooth="yes"/>
      <point x="94" y="-167"/>
      <point x="107" y="-180"/>
      <point x="134" y="-180" type="curve" smooth="yes"/>
      <point x="234" y="-180" type="line" smooth="yes"/>
      <point x="260" y="-180"/>
      <point x="273" y="-167"/>
      <point x="273" y="-141" type="curve" smooth="yes"/>
      <point x="273" y="-86" type="line" smooth="yes"/>
      <point x="273" y="-65"/>
      <point x="268" y="-56"/>
      <point x="251" y="-47" type="curve" smooth="yes"/>
      <point x="208" y="-24" type="line"/>
      <point x="208" y="0" type="line"/>
      <point x="262" y="0" type="line" smooth="yes"/>
      <point x="299" y="0"/>
      <point x="317" y="18"/>
    </contour>
  </outline>
</glyph>
<glyph name="egrave" format="1">
  <advance width="373"/>
  <unicode hex="00E8"/>
  <outline>
    <contour>
      <point x="319" y="55" type="curve" name="hr00"/>
      <point x="319" y="141" type="line"/>
      <point x="256" y="141" type="line"/>
      <point x="256" y="54" type="line"/>
      <point x="116" y="54" type="line"/>
      <point x="116" y="226" type="line"/>
      <point x="297" y="226" type="line"/>
      <point x="319" y="249" type="line"/>
      <point x="319" y="420" type="line" smooth="yes"/>
      <point x="319" y="457"/>
      <point x="301" y="475"/>
      <point x="264" y="475" type="curve" smooth="yes"/>
      <point x="108" y="475" type="line" smooth="yes"/>
      <point x="71" y="475"/>
      <point x="53" y="457"/>
      <point x="53" y="420" type="curve" smooth="yes"/>
      <point x="53" y="55" type="line" smooth="yes"/>
      <point x="53" y="18"/>
      <point x="71" y="0"/>
      <point x="108" y="0" type="curve" smooth="yes"/>
      <point x="264" y="0" type="line" smooth="yes"/>
      <point x="301" y="0"/>
      <point x="319" y="18"/>
    </contour>
    <contour>
      <point x="256" y="278" type="line"/>
      <point x="116" y="278" type="line"/>
      <point x="116" y="421" type="line"/>
      <point x="256" y="421" type="line"/>
    </contour>
    <contour>
      <point x="245" y="517" type="line"/>
      <point x="245" y="520" type="line"/>
      <point x="172" y="632" type="line"/>
      <point x="80" y="632" type="line"/>
      <point x="80" y="630" type="line"/>
      <point x="200" y="517" type="line"/>
    </contour>
  </outline>
</glyph>
<glyph name="ecircumflex" format="1">
  <advance width="373"/>
  <unicode hex="00EA"/>
  <outline>
    <contour>
      <point x="319" y="55" type="curve" name="hr00"/>
      <point x="319" y="141" type="line"/>
      <point x="256" y="141" type="line"/>
      <point x="256" y="54" type="line"/>
      <point x="116" y="54" type="line"/>
      <point x="116" y="226" type="line"/>
      <point x="297" y="226" type="line"/>
      <point x="319" y="249" type="line"/>
      <point x="319" y="420" type="line" smooth="yes"/>
      <point x="319" y="457"/>
      <point x="301" y="475"/>
      <point x="264" y="475" type="curve" smooth="yes"/>
      <point x="108" y="475" type="line" smooth="yes"/>
      <point x="71" y="475"/>
      <point x="53" y="457"/>
      <point x="53" y="420" type="curve" smooth="yes"/>
      <point x="53" y="55" type="line" smooth="yes"/>
      <point x="53" y="18"/>
      <point x="71" y="0"/>
      <point x="108" y="0" type="curve" smooth="yes"/>
      <point x="264" y="0" type="line" smooth="yes"/>
      <point x="301" y="0"/>
      <point x="319" y="18"/>
    </contour>
    <contour>
      <point x="256" y="278" type="line"/>
      <point x="116" y="278" type="line"/>
      <point x="116" y="421" type="line"/>
      <point x="256" y="421" type="line"/>
    </contour>
    <contour>
      <point x="301" y="517" type="line"/>
      <point x="301" y="521" type="line"/>
      <point x="205" y="632" type="line"/>
      <point x="167" y="632" type="line"/>
      <point x="71" y="521" type="line"/>
      <point x="71" y="517" type="line"/>
      <point x="111" y="517" type="line"/>
      <point x="185" y="574" type="line"/>
      <point x="259" y="517" type="line"/>
    </contour>
  </outline>
</glyph>
<glyph name="edieresis" format="1">
  <advance width="373"/>
  <unicode hex="00EB"/>
  <outline>
    <contour>
      <point x="319" y="55" type="curve"/>
      <point x="319" y="141" type="line"/>
      <point x="256" y="141" type="line"/>
      <point x="256" y="54" type="line"/>
      <point x="116" y="54" type="line"/>
      <point x="116" y="226" type="line"/>
      <point x="297" y="226" type="line"/>
      <point x="319" y="249" type="line"/>
      <point x="319" y="420" type="line" smooth="yes"/>
      <point x="319" y="457"/>
      <point x="301" y="475"/>
      <point x="264" y="475" type="curve" smooth="yes"/>
      <point x="108" y="475" type="line" smooth="yes"/>
      <point x="71" y="475"/>
      <point x="53" y="457"/>
      <point x="53" y="420" type="curve" smooth="yes"/>
      <point x="53" y="55" type="line" smooth="yes"/>
      <point x="53" y="18"/>
      <point x="71" y="0"/>
      <point x="108" y="0" type="curve" smooth="yes"/>
      <point x="264" y="0" type="line" smooth="yes"/>
      <point x="301" y="0"/>
      <point x="319" y="18"/>
    </contour>
    <contour>
      <point x="256" y="278" type="line"/>
      <point x="116" y="278" type="line"/>
      <point x="116" y="421" type="line"/>
      <point x="256" y="421" type="line"/>
    </contour>
    <contour>
      <point x="285" y="517" type="line" name="hr01"/>
      <point x="285" y="591" type="line"/>
      <point x="213" y="591" type="line"/>
      <point x="213" y="517" type="line"/>
    </contour>
    <contour>
      <point x="159" y="517" type="line"/>
      <point x="159" y="591" type="line"/>
      <point x="87" y="591" type="line"/>
      <point x="87" y="517" type="line"/>
    </contour>
  </outline>
</glyph>
<glyph name="igrave" format="1">
  <advance width="178"/>
  <unicode hex="00EC"/>
  <outline>
    <contour>
      <point x="121" y="0" type="line" name="hr00"/>
      <point x="121" y="475" type="line"/>
      <point x="57" y="475" type="line"/>
      <point x="57" y="0" type="line"/>
    </contour>
    <contour>
      <point x="141" y="517" type="line"/>
      <point x="141" y="520" type="line"/>
      <point x="68" y="632" type="line"/>
      <point x="-24" y="632" type="line"/>
      <point x="-24" y="630" type="line"/>
      <point x="96" y="517" type="line"/>
    </contour>
  </outline>
</glyph>
<glyph name="iacute" format="1">
  <advance width="178"/>
  <unicode hex="00ED"/>
  <outline>
    <contour>
      <point x="121" y="0" type="line" name="hr00"/>
      <point x="121" y="475" type="line"/>
      <point x="57" y="475" type="line"/>
      <point x="57" y="0" type="line"/>
    </contour>
    <contour>
      <point x="199" y="630" type="line"/>
      <point x="199" y="632" type="line"/>
      <point x="107" y="632" type="line"/>
      <point x="34" y="520" type="line"/>
      <point x="34" y="517" type="line"/>
      <point x="79" y="517" type="line"/>
    </contour>
  </outline>
</glyph>
<glyph name="icircumflex" format="1">
  <advance width="178"/>
  <unicode hex="00EE"/>
  <outline>
    <contour>
      <point x="121" y="0" type="line" name="hr00"/>
      <point x="121" y="475" type="line"/>
      <point x="57" y="475" type="line"/>
      <point x="57" y="0" type="line"/>
    </contour>
    <contour>
      <point x="205" y="510" type="line"/>
      <point x="205" y="514" type="line"/>
      <point x="109" y="625" type="line"/>
      <point x="71" y="625" type="line"/>
      <point x="-25" y="514" type="line"/>
      <point x="-25" y="510" type="line"/>
      <point x="15" y="510" type="line"/>
      <point x="89" y="567" type="line"/>
      <point x="163" y="510" type="line"/>
    </contour>
  </outline>
</glyph>
<glyph name="idieresis" format="1">
  <advance width="178"/>
  <unicode hex="00EF"/>
  <outline>
    <contour>
      <point x="121" y="0" type="line"/>
      <point x="121" y="475" type="line"/>
      <point x="57" y="475" type="line"/>
      <point x="57" y="0" type="line"/>
    </contour>
    <contour>
      <point x="188" y="517" type="line" name="hr01"/>
      <point x="188" y="591" type="line"/>
      <point x="116" y="591" type="line"/>
      <point x="116" y="517" type="line"/>
    </contour>
    <contour>
      <point x="62" y="517" type="line"/>
      <point x="62" y="591" type="line"/>
      <point x="-10" y="591" type="line"/>
      <point x="-10" y="517" type="line"/>
    </contour>
  </outline>
</glyph>
<glyph name="ntilde" format="1">
  <advance width="378"/>
  <unicode hex="00F1"/>
  <outline>
    <contour>
      <point x="326" y="0" type="line"/>
      <point x="326" y="425" type="line" smooth="yes"/>
      <point x="326" y="461"/>
      <point x="308" y="478"/>
      <point x="272" y="478" type="curve" smooth="yes"/>
      <point x="266" y="478"/>
      <point x="258" y="477"/>
      <point x="249" y="476" type="curve" smooth="yes"/>
      <point x="118" y="462" type="line"/>
      <point x="118" y="475" type="line"/>
      <point x="53" y="475" type="line"/>
      <point x="53" y="0" type="line"/>
      <point x="118" y="0" type="line"/>
      <point x="118" y="413" type="line"/>
      <point x="261" y="417" type="line"/>
      <point x="261" y="0" type="line"/>
    </contour>
    <contour>
      <point x="295" y="552" type="curve" name="hr01"/>
      <point x="295" y="612" type="line"/>
      <point x="243" y="612" type="line"/>
      <point x="243" y="569" type="line"/>
      <point x="154" y="605" type="line" smooth="yes"/>
      <point x="141" y="610"/>
      <point x="131" y="613"/>
      <point x="119" y="613" type="curve" smooth="yes"/>
      <point x="96" y="613"/>
      <point x="83" y="600"/>
      <point x="83" y="577" type="curve" smooth="yes"/>
      <point x="83" y="517" type="line"/>
      <point x="135" y="517" type="line"/>
      <point x="135" y="560" type="line"/>
      <point x="224" y="524" type="line" smooth="yes"/>
      <point x="237" y="519"/>
      <point x="247" y="516"/>
      <point x="259" y="516" type="curve" smooth="yes"/>
      <point x="282" y="516"/>
      <point x="295" y="529"/>
    </contour>
  </outline>
</glyph>
<glyph name="ocircumflex" format="1">
  <advance width="379"/>
  <unicode hex="00F4"/>
  <outline>
    <contour>
      <point x="326" y="55" type="curve" name="hr00"/>
      <point x="326" y="420" type="line" smooth="yes"/>
      <point x="326" y="457"/>
      <point x="308" y="475"/>
      <point x="271" y="475" type="curve" smooth="yes"/>
      <point x="108" y="475" type="line" smooth="yes"/>
      <point x="71" y="475"/>
      <point x="53" y="457"/>
      <point x="53" y="420" type="curve" smooth="yes"/>
      <point x="53" y="55" type="line" smooth="yes"/>
      <point x="53" y="18"/>
      <point x="71" y="0"/>
      <point x="108" y="0" type="curve" smooth="yes"/>
      <point x="271" y="0" type="line" smooth="yes"/>
      <point x="308" y="0"/>
      <point x="326" y="18"/>
    </contour>
    <contour>
      <point x="261" y="57" type="line"/>
      <point x="118" y="57" type="line"/>
      <point x="118" y="418" type="line"/>
      <point x="261" y="418" type="line"/>
    </contour>
    <contour>
      <point x="306" y="517" type="line"/>
      <point x="306" y="521" type="line"/>
      <point x="210" y="632" type="line"/>
      <point x="172" y="632" type="line"/>
      <point x="76" y="521" type="line"/>
      <point x="76" y="517" type="line"/>
      <point x="116" y="517" type="line"/>
      <point x="190" y="574" type="line"/>
      <point x="264" y="517" type="line"/>
    </contour>
  </outline>
</glyph>
<glyph name="otilde" format="1">
  <advance width="379"/>
  <unicode hex="00F5"/>
  <outline>
    <contour>
      <point x="326" y="55" type="curve"/>
      <point x="326" y="420" type="line" smooth="yes"/>
      <point x="326" y="457"/>
      <point x="308" y="475"/>
      <point x="271" y="475" type="curve" smooth="yes"/>
      <point x="108" y="475" type="line" smooth="yes"/>
      <point x="71" y="475"/>
      <point x="53" y="457"/>
      <point x="53" y="420" type="curve" smooth="yes"/>
      <point x="53" y="55" type="line" smooth="yes"/>
      <point x="53" y="18"/>
      <point x="71" y="0"/>
      <point x="108" y="0" type="curve" smooth="yes"/>
      <point x="271" y="0" type="line" smooth="yes"/>
      <point x="308" y="0"/>
      <point x="326" y="18"/>
    </contour>
    <contour>
      <point x="261" y="57" type="line"/>
      <point x="118" y="57" type="line"/>
      <point x="118" y="418" type="line"/>
      <point x="261" y="418" type="line"/>
    </contour>
    <contour>
      <point x="296" y="552" type="curve" name="hr01"/>
      <point x="296" y="612" type="line"/>
      <point x="244" y="612" type="line"/>
      <point x="244" y="569" type="line"/>
      <point x="155" y="605" type="line" smooth="yes"/>
      <point x="142" y="610"/>
      <point x="132" y="613"/>
      <point x="120" y="613" type="curve" smooth="yes"/>
      <point x="97" y="613"/>
      <point x="84" y="600"/>
      <point x="84" y="577" type="curve" smooth="yes"/>
      <point x="84" y="517" type="line"/>
      <point x="136" y="517" type="line"/>
      <point x="136" y="560" type="line"/>
      <point x="225" y="524" type="line" smooth="yes"/>
      <point x="238" y="519"/>
      <point x="248" y="516"/>
      <point x="260" y="516" type="curve" smooth="yes"/>
      <point x="283" y="516"/>
      <point x="296" y="529"/>
    </contour>
  </outline>
</glyph>
<glyph name="odieresis" format="1">
  <advance width="379"/>
  <unicode hex="00F6"/>
  <outline>
    <contour>
      <point x="326" y="55" type="curve"/>
      <point x="326" y="420" type="line" smooth="yes"/>
      <point x="326" y="457"/>
      <point x="308" y="475"/>
      <point x="271" y="475" type="curve" smooth="yes"/>
      <point x="108" y="475" type="line" smooth="yes"/>
      <point x="71" y="475"/>
      <point x="53" y="457"/>
      <point x="53" y="420" type="curve" smooth="yes"/>
      <point x="53" y="55" type="line" smooth="yes"/>
      <point x="53" y="18"/>
      <point x="71" y="0"/>
      <point x="108" y="0" type="curve" smooth="yes"/>
      <point x="271" y="0" type="line" smooth="yes"/>
      <point x="308" y="0"/>
      <point x="326" y="18"/>
    </contour>
    <contour>
      <point x="261" y="57" type="line"/>
      <point x="118" y="57" type="line"/>
      <point x="118" y="418" type="line"/>
      <point x="261" y="418" type="line"/>
    </contour>
    <contour>
      <point x="289" y="517" type="line" name="hr01"/>
      <point x="289" y="591" type="line"/>
      <point x="217" y="591" type="line"/>
      <point x="217" y="517" type="line"/>
    </contour>
    <contour>
      <point x="163" y="517" type="line"/>
      <point x="163" y="591" type="line"/>
      <point x="91" y="591" type="line"/>
      <point x="91" y="517" type="line"/>
    </contour>
  </outline>
</glyph>
<glyph name="oslash" format="1">
  <advance width="379"/>
  <unicode hex="00F8"/>
  <outline>
    <contour>
      <point x="326" y="55" type="curve" name="hr00"/>
      <point x="326" y="420" type="line" smooth="yes"/>
      <point x="326" y="446"/>
      <point x="317" y="463"/>
      <point x="298" y="471" type="curve"/>
      <point x="323" y="546" type="line"/>
      <point x="323" y="550" type="line"/>
      <point x="261" y="550" type="line"/>
      <point x="236" y="475" type="line"/>
      <point x="108" y="475" type="line" smooth="yes"/>
      <point x="71" y="475"/>
      <point x="53" y="457"/>
      <point x="53" y="420" type="curve" smooth="yes"/>
      <point x="53" y="55" type="line" smooth="yes"/>
      <point x="53" y="29"/>
      <point x="62" y="12"/>
      <point x="81" y="4" type="curve"/>
      <point x="56" y="-71" type="line"/>
      <point x="56" y="-75" type="line"/>
      <point x="118" y="-75" type="line"/>
      <point x="143" y="0" type="line"/>
      <point x="271" y="0" type="line" smooth="yes"/>
      <point x="308" y="0"/>
      <point x="326" y="18"/>
    </contour>
    <contour>
      <point x="218" y="419" type="line"/>
      <point x="117" y="99" type="line"/>
      <point x="117" y="419" type="line"/>
    </contour>
    <contour>
      <point x="262" y="56" type="line"/>
      <point x="160" y="56" type="line"/>
      <point x="262" y="375" type="line"/>
    </contour>
  </outline>
</glyph>
<glyph name="uacute" format="1">
  <advance width="378"/>
  <unicode hex="00FA"/>
  <outline>
    <contour>
      <point x="325" y="0" type="line" name="hr00"/>
      <point x="325" y="475" type="line"/>
      <point x="261" y="475" type="line"/>
      <point x="261" y="62" type="line"/>
      <point x="117" y="58" type="line"/>
      <point x="117" y="475" type="line"/>
      <point x="53" y="475" type="line"/>
      <point x="53" y="50" type="line" smooth="yes"/>
      <point x="53" y="14"/>
      <point x="70" y="-3"/>
      <point x="106" y="-3" type="curve" smooth="yes"/>
      <point x="112" y="-3"/>
      <point x="121" y="-2"/>
      <point x="130" y="-1" type="curve" smooth="yes"/>
      <point x="261" y="13" type="line"/>
      <point x="261" y="0" type="line"/>
    </contour>
    <contour>
      <point x="296" y="630" type="line"/>
      <point x="296" y="632" type="line"/>
      <point x="204" y="632" type="line"/>
      <point x="131" y="520" type="line"/>
      <point x="131" y="517" type="line"/>
      <point x="176" y="517" type="line"/>
    </contour>
  </outline>
</glyph>
<glyph name="udieresis" format="1">
  <advance width="378"/>
  <unicode hex="00FC"/>
  <outline>
    <contour>
      <point x="325" y="0" type="line"/>
      <point x="325" y="475" type="line"/>
      <point x="261" y="475" type="line"/>
      <point x="261" y="62" type="line"/>
      <point x="117" y="58" type="line"/>
      <point x="117" y="475" type="line"/>
      <point x="53" y="475" type="line"/>
      <point x="53" y="50" type="line" smooth="yes"/>
      <point x="53" y="14"/>
      <point x="70" y="-3"/>
      <point x="106" y="-3" type="curve" smooth="yes"/>
      <point x="112" y="-3"/>
      <point x="121" y="-2"/>
      <point x="130" y="-1" type="curve" smooth="yes"/>
      <point x="261" y="13" type="line"/>
      <point x="261" y="0" type="line"/>
    </contour>
    <contour>
      <point x="288" y="517" type="line" name="hr01"/>
      <point x="288" y="591" type="line"/>
      <point x="216" y="591" type="line"/>
      <point x="216" y="517" type="line"/>
    </contour>
    <contour>
      <point x="162" y="517" type="line"/>
      <point x="162" y="591" type="line"/>
      <point x="90" y="591" type="line"/>
      <point x="90" y="517" type="line"/>
    </contour>
  </outline>
</glyph>
<glyph name="yacute" format="1">
  <advance width="347"/>
  <unicode hex="00FD"/>
  <outline>
    <contour>
      <point x="321" y="475" type="line" name="hr00"/>
      <point x="256" y="475" type="line"/>
      <point x="174" y="101" type="line"/>
      <point x="93" y="475" type="line"/>
      <point x="26" y="475" type="line"/>
      <point x="143" y="4" type="line"/>
      <point x="95" y="-180" type="line"/>
      <point x="159" y="-180" type="line"/>
    </contour>
    <contour>
      <point x="284" y="630" type="line"/>
      <point x="284" y="632" type="line"/>
      <point x="192" y="632" type="line"/>
      <point x="119" y="520" type="line"/>
      <point x="119" y="517" type="line"/>
      <point x="164" y="517" type="line"/>
    </contour>
  </outline>
</glyph>
<glyph name="thorn" format="1">
  <advance width="377"/>
  <unicode hex="00FE"/>
  <outline>
    <contour>
      <point x="326" y="102" type="curve" name="hr00"/>
      <point x="326" y="425" type="line" smooth="yes"/>
      <point x="326" y="461"/>
      <point x="308" y="478"/>
      <point x="272" y="478" type="curve" smooth="yes"/>
      <point x="266" y="478"/>
      <point x="260" y="478"/>
      <point x="252" y="476" type="curve"/>
      <point x="118" y="462" type="line"/>
      <point x="118" y="764" type="line"/>
      <point x="53" y="764" type="line"/>
      <point x="53" y="-180" type="line"/>
      <point x="118" y="-180" type="line"/>
      <point x="118" y="0" type="line"/>
      <point x="225" y="0" type="line" smooth="yes"/>
      <point x="285" y="0"/>
      <point x="326" y="45"/>
    </contour>
    <contour>
      <point x="261" y="112" type="line" smooth="yes"/>
      <point x="261" y="78"/>
      <point x="244" y="57"/>
      <point x="208" y="57" type="curve" smooth="yes"/>
      <point x="118" y="57" type="line"/>
      <point x="118" y="413" type="line"/>
      <point x="261" y="417" type="line"/>
    </contour>
  </outline>
</glyph>
<glyph name="ydieresis" format="1">
  <advance width="347"/>
  <unicode hex="00FF"/>
  <outline>
    <contour>
      <point x="321" y="475" type="line"/>
      <point x="256" y="475" type="line"/>
      <point x="174" y="101" type="line"/>
      <point x="93" y="475" type="line"/>
      <point x="26" y="475" type="line"/>
      <point x="143" y="4" type="line"/>
      <point x="95" y="-180" type="line"/>
      <point x="159" y="-180" type="line"/>
    </contour>
    <contour>
      <point x="273" y="517" type="line" name="hr01"/>
      <point x="273" y="591" type="line"/>
      <point x="201" y="591" type="line"/>
      <point x="201" y="517" type="line"/>
    </contour>
    <contour>
      <point x="147" y="517" type="line"/>
      <point x="147" y="591" type="line"/>
      <point x="75" y="591" type="line"/>
      <point x="75" y="517" type="line"/>
    </contour>
  </outline>
</glyph>
<glyph name="FL0100h" format="1">
  <advance width="400"/>
  <unicode hex="0100"/>
  <outline>
    <contour>
      <point x="369" y="0" type="line" name="hr00"/>
      <point x="369" y="2" type="line"/>
      <point x="234" y="766" type="line"/>
      <point x="167" y="766" type="line"/>
      <point x="31" y="2" type="line"/>
      <point x="31" y="0" type="line"/>
      <point x="96" y="0" type="line"/>
      <point x="123" y="170" type="line"/>
      <point x="275" y="170" type="line"/>
      <point x="302" y="0" type="line"/>
    </contour>
    <contour>
      <point x="266" y="230" type="line"/>
      <point x="132" y="230" type="line"/>
      <point x="199" y="644" type="line"/>
    </contour>
    <contour>
      <point x="308" y="822" type="line"/>
      <point x="308" y="874" type="line"/>
      <point x="92" y="874" type="line"/>
      <point x="92" y="822" type="line"/>
    </contour>
  </outline>
</glyph>
<glyph name="FL0101h" format="1">
  <advance width="375"/>
  <unicode hex="0101"/>
  <outline>
    <contour>
      <point x="322" y="0" type="line" name="hr00"/>
      <point x="322" y="420" type="line" smooth="yes"/>
      <point x="322" y="457"/>
      <point x="304" y="475"/>
      <point x="267" y="475" type="curve" smooth="yes"/>
      <point x="111" y="475" type="line" smooth="yes"/>
      <point x="74" y="475"/>
      <point x="56" y="457"/>
      <point x="56" y="420" type="curve" smooth="yes"/>
      <point x="56" y="340" type="line"/>
      <point x="119" y="340" type="line"/>
      <point x="119" y="421" type="line"/>
      <point x="259" y="421" type="line"/>
      <point x="259" y="278" type="line"/>
      <point x="106" y="278" type="line" smooth="yes"/>
      <point x="69" y="278"/>
      <point x="51" y="260"/>
      <point x="51" y="223" type="curve" smooth="yes"/>
      <point x="51" y="50" type="line" smooth="yes"/>
      <point x="51" y="14"/>
      <point x="68" y="-3"/>
      <point x="104" y="-3" type="curve" smooth="yes"/>
      <point x="111" y="-3"/>
      <point x="117" y="-3"/>
      <point x="125" y="-1" type="curve"/>
      <point x="258" y="13" type="line"/>
      <point x="258" y="0" type="line"/>
    </contour>
    <contour>
      <point x="259" y="59" type="line"/>
      <point x="114" y="56" type="line"/>
      <point x="114" y="227" type="line"/>
      <point x="259" y="227" type="line"/>
    </contour>
    <contour>
      <point x="295" y="532" type="line"/>
      <point x="295" y="584" type="line"/>
      <point x="79" y="584" type="line"/>
      <point x="79" y="532" type="line"/>
    </contour>
  </outline>
</glyph>
<glyph name="FL0102h" format="1">
  <advance width="400"/>
  <unicode hex="0102"/>
  <outline>
    <contour>
      <point x="369" y="0" type="line" name="hr00"/>
      <point x="369" y="2" type="line"/>
      <point x="234" y="766" type="line"/>
      <point x="167" y="766" type="line"/>
      <point x="31" y="2" type="line"/>
      <point x="31" y="0" type="line"/>
      <point x="96" y="0" type="line"/>
      <point x="123" y="170" type="line"/>
      <point x="275" y="170" type="line"/>
      <point x="302" y="0" type="line"/>
    </contour>
    <contour>
      <point x="266" y="230" type="line"/>
      <point x="132" y="230" type="line"/>
      <point x="199" y="644" type="line"/>
    </contour>
    <contour>
      <point x="294" y="852" type="curve"/>
      <point x="294" y="915" type="line"/>
      <point x="243" y="915" type="line"/>
      <point x="243" y="854" type="line"/>
      <point x="157" y="854" type="line"/>
      <point x="157" y="915" type="line"/>
      <point x="106" y="915" type="line"/>
      <point x="106" y="852" type="line" smooth="yes"/>
      <point x="106" y="822"/>
      <point x="121" y="807"/>
      <point x="151" y="807" type="curve" smooth="yes"/>
      <point x="249" y="807" type="line" smooth="yes"/>
      <point x="279" y="807"/>
      <point x="294" y="822"/>
    </contour>
  </outline>
</glyph>
<glyph name="FL0104h" format="1">
  <advance width="400"/>
  <unicode hex="0104"/>
  <outline>
    <contour>
      <point x="266" y="230" type="line" name="hr00"/>
      <point x="132" y="230" type="line"/>
      <point x="199" y="644" type="line"/>
    </contour>
    <contour>
      <point x="364" y="0" type="line"/>
      <point x="369" y="0" type="line"/>
      <point x="369" y="2" type="line"/>
      <point x="234" y="766" type="line"/>
      <point x="167" y="766" type="line"/>
      <point x="31" y="2" type="line"/>
      <point x="31" y="0" type="line"/>
      <point x="96" y="0" type="line"/>
      <point x="123" y="170" type="line"/>
      <point x="275" y="170" type="line"/>
      <point x="301" y="4" type="line"/>
      <point x="251" y="-44" type="line" smooth="yes"/>
      <point x="238" y="-57"/>
      <point x="232" y="-67"/>
      <point x="232" y="-88" type="curve" smooth="yes"/>
      <point x="232" y="-145" type="line" smooth="yes"/>
      <point x="232" y="-171"/>
      <point x="246" y="-184"/>
      <point x="271" y="-184" type="curve" smooth="yes"/>
      <point x="379" y="-184" type="line"/>
      <point x="379" y="-138" type="line"/>
      <point x="287" y="-138" type="line"/>
      <point x="287" y="-77" type="line"/>
    </contour>
  </outline>
</glyph>
<glyph name="FL0105h" format="1">
  <advance width="375"/>
  <unicode hex="0105"/>
  <outline>
    <contour>
      <point x="259" y="59" type="line" name="hr00"/>
      <point x="114" y="56" type="line"/>
      <point x="114" y="227" type="line"/>
      <point x="259" y="227" type="line"/>
    </contour>
    <contour>
      <point x="322" y="0" type="line"/>
      <point x="322" y="420" type="line" smooth="yes"/>
      <point x="322" y="457"/>
      <point x="304" y="475"/>
      <point x="267" y="475" type="curve" smooth="yes"/>
      <point x="111" y="475" type="line" smooth="yes"/>
      <point x="74" y="475"/>
      <point x="56" y="457"/>
      <point x="56" y="420" type="curve" smooth="yes"/>
      <point x="56" y="340" type="line"/>
      <point x="119" y="340" type="line"/>
      <point x="119" y="421" type="line"/>
      <point x="259" y="421" type="line"/>
      <point x="259" y="278" type="line"/>
      <point x="106" y="278" type="line" smooth="yes"/>
      <point x="69" y="278"/>
      <point x="51" y="260"/>
      <point x="51" y="223" type="curve" smooth="yes"/>
      <point x="51" y="50" type="line" smooth="yes"/>
      <point x="51" y="14"/>
      <point x="68" y="-3"/>
      <point x="104" y="-3" type="curve" smooth="yes"/>
      <point x="111" y="-3"/>
      <point x="117" y="-3"/>
      <point x="125" y="-1" type="curve"/>
      <point x="258" y="13" type="line"/>
      <point x="258" y="3" type="line"/>
      <point x="207" y="-46" type="line" smooth="yes"/>
      <point x="194" y="-59"/>
      <point x="188" y="-69"/>
      <point x="188" y="-90" type="curve" smooth="yes"/>
      <point x="188" y="-147" type="line" smooth="yes"/>
      <point x="188" y="-173"/>
      <point x="202" y="-186"/>
      <point x="227" y="-186" type="curve" smooth="yes"/>
      <point x="332" y="-186" type="line"/>
      <point x="332" y="-140" type="line"/>
      <point x="243" y="-140" type="line"/>
      <point x="243" y="-79" type="line"/>
    </contour>
  </outline>
</glyph>
<glyph name="FL010Ch" format="1">
  <advance width="425"/>
  <unicode hex="010C"/>
  <outline>
    <contour>
      <point x="367" y="54" type="curve" name="hr00"/>
      <point x="367" y="248" type="line"/>
      <point x="299" y="248" type="line"/>
      <point x="299" y="60" type="line"/>
      <point x="129" y="60" type="line"/>
      <point x="129" y="704" type="line"/>
      <point x="299" y="704" type="line"/>
      <point x="299" y="532" type="line"/>
      <point x="367" y="532" type="line"/>
      <point x="367" y="710" type="line" smooth="yes"/>
      <point x="367" y="742"/>
      <point x="344" y="764"/>
      <point x="312" y="764" type="curve" smooth="yes"/>
      <point x="115" y="764" type="line" smooth="yes"/>
      <point x="83" y="764"/>
      <point x="61" y="742"/>
      <point x="61" y="710" type="curve" smooth="yes"/>
      <point x="61" y="54" type="line" smooth="yes"/>
      <point x="61" y="22"/>
      <point x="83" y="0"/>
      <point x="115" y="0" type="curve" smooth="yes"/>
      <point x="312" y="0" type="line" smooth="yes"/>
      <point x="344" y="0"/>
      <point x="367" y="22"/>
    </contour>
    <contour>
      <point x="330" y="919" type="line"/>
      <point x="330" y="922" type="line"/>
      <point x="290" y="922" type="line"/>
      <point x="213" y="864" type="line"/>
      <point x="136" y="922" type="line"/>
      <point x="94" y="922" type="line"/>
      <point x="94" y="919" type="line"/>
      <point x="193" y="807" type="line"/>
      <point x="231" y="807" type="line"/>
    </contour>
  </outline>
</glyph>
<glyph name="FL010Eh" format="1">
  <advance width="434"/>
  <unicode hex="010E"/>
  <outline>
    <contour>
      <point x="376" y="138" type="curve" name="hr00"/>
      <point x="376" y="626" type="line" smooth="yes"/>
      <point x="376" y="702"/>
      <point x="322" y="764"/>
      <point x="236" y="764" type="curve" smooth="yes"/>
      <point x="61" y="764" type="line"/>
      <point x="61" y="0" type="line"/>
      <point x="236" y="0" type="line" smooth="yes"/>
      <point x="320" y="0"/>
      <point x="376" y="61"/>
    </contour>
    <contour>
      <point x="308" y="145" type="line" smooth="yes"/>
      <point x="308" y="97"/>
      <point x="277" y="60"/>
      <point x="219" y="60" type="curve" smooth="yes"/>
      <point x="129" y="60" type="line"/>
      <point x="129" y="704" type="line"/>
      <point x="223" y="704" type="line" smooth="yes"/>
      <point x="274" y="704"/>
      <point x="308" y="670"/>
      <point x="308" y="620" type="curve" smooth="yes"/>
    </contour>
    <contour>
      <point x="335" y="919" type="line"/>
      <point x="335" y="922" type="line"/>
      <point x="295" y="922" type="line"/>
      <point x="218" y="864" type="line"/>
      <point x="141" y="922" type="line"/>
      <point x="99" y="922" type="line"/>
      <point x="99" y="919" type="line"/>
      <point x="198" y="807" type="line"/>
      <point x="236" y="807" type="line"/>
    </contour>
  </outline>
</glyph>
<glyph name="FL010Fh" format="1">
  <advance width="377"/>
  <unicode hex="010F"/>
  <outline>
    <contour>
      <point x="323" y="0" type="line"/>
      <point x="323" y="764" type="line"/>
      <point x="259" y="764" type="line"/>
      <point x="259" y="475" type="line"/>
      <point x="152" y="475" type="line" smooth="yes"/>
      <point x="92" y="475"/>
      <point x="51" y="430"/>
      <point x="51" y="373" type="curve" smooth="yes"/>
      <point x="51" y="95" type="line" smooth="yes"/>
      <point x="51" y="36"/>
      <point x="91" y="-3"/>
      <point x="143" y="-3" type="curve" smooth="yes"/>
      <point x="154" y="-3"/>
      <point x="163" y="-2"/>
      <point x="174" y="0" type="curve" smooth="yes"/>
      <point x="259" y="13" type="line"/>
      <point x="259" y="0" type="line"/>
    </contour>
    <contour>
      <point x="259" y="59" type="line"/>
      <point x="197" y="55" type="line"/>
      <point x="191" y="54"/>
      <point x="175" y="54"/>
      <point x="169" y="54" type="curve" smooth="yes"/>
      <point x="133" y="54"/>
      <point x="115" y="76"/>
      <point x="115" y="109" type="curve" smooth="yes"/>
      <point x="115" y="363" type="line" smooth="yes"/>
      <point x="115" y="397"/>
      <point x="133" y="418"/>
      <point x="169" y="418" type="curve" smooth="yes"/>
      <point x="259" y="418" type="line"/>
    </contour>
    <contour>
      <point x="467" y="764" type="line" name="hr01"/>
      <point x="395" y="764" type="line"/>
      <point x="377" y="524" type="line"/>
      <point x="421" y="524" type="line"/>
    </contour>
  </outline>
</glyph>
<glyph name="FL0112h" format="1">
  <advance width="357"/>
  <unicode hex="0112"/>
  <outline>
    <contour>
      <point x="312" y="0" type="line" name="hr00"/>
      <point x="312" y="60" type="line"/>
      <point x="129" y="60" type="line"/>
      <point x="129" y="358" type="line"/>
      <point x="293" y="358" type="line"/>
      <point x="293" y="419" type="line"/>
      <point x="129" y="419" type="line"/>
      <point x="129" y="704" type="line"/>
      <point x="309" y="704" type="line"/>
      <point x="309" y="764" type="line"/>
      <point x="61" y="764" type="line"/>
      <point x="61" y="0" type="line"/>
    </contour>
    <contour>
      <point x="286" y="822" type="line"/>
      <point x="286" y="874" type="line"/>
      <point x="70" y="874" type="line"/>
      <point x="70" y="822" type="line"/>
    </contour>
  </outline>
</glyph>
<glyph name="FL0116h" format="1">
  <advance width="357"/>
  <unicode hex="0116"/>
  <outline>
    <contour>
      <point x="312" y="0" type="line"/>
      <point x="312" y="60" type="line"/>
      <point x="129" y="60" type="line"/>
      <point x="129" y="358" type="line"/>
      <point x="293" y="358" type="line"/>
      <point x="293" y="419" type="line"/>
      <point x="129" y="419" type="line"/>
      <point x="129" y="704" type="line"/>
      <point x="309" y="704" type="line"/>
      <point x="309" y="764" type="line"/>
      <point x="61" y="764" type="line"/>
      <point x="61" y="0" type="line"/>
    </contour>
    <contour>
      <point x="214" y="807" type="line" name="hr01"/>
      <point x="214" y="881" type="line"/>
      <point x="142" y="881" type="line"/>
      <point x="142" y="807" type="line"/>
    </contour>
  </outline>
</glyph>
<glyph name="FL0118h" format="1">
  <advance width="357"/>
  <unicode hex="0118"/>
  <outline>
    <contour>
      <point x="245" y="0" type="line" name="hr00"/>
      <point x="197" y="-46" type="line" smooth="yes"/>
      <point x="184" y="-59"/>
      <point x="178" y="-69"/>
      <point x="178" y="-90" type="curve" smooth="yes"/>
      <point x="178" y="-147" type="line" smooth="yes"/>
      <point x="178" y="-173"/>
      <point x="192" y="-186"/>
      <point x="217" y="-186" type="curve" smooth="yes"/>
      <point x="350" y="-186" type="line"/>
      <point x="350" y="-140" type="line"/>
      <point x="233" y="-140" type="line"/>
      <point x="233" y="-79" type="line"/>
      <point x="312" y="0" type="line"/>
      <point x="312" y="60" type="line"/>
      <point x="129" y="60" type="line"/>
      <point x="129" y="358" type="line"/>
      <point x="293" y="358" type="line"/>
      <point x="293" y="419" type="line"/>
      <point x="129" y="419" type="line"/>
      <point x="129" y="704" type="line"/>
      <point x="309" y="704" type="line"/>
      <point x="309" y="764" type="line"/>
      <point x="61" y="764" type="line"/>
      <point x="61" y="0" type="line"/>
    </contour>
  </outline>
</glyph>
<glyph name="FL0119h" format="1">
  <advance width="373"/>
  <unicode hex="0119"/>
  <outline>
    <contour>
      <point x="256" y="278" type="line"/>
      <point x="116" y="278" type="line"/>
      <point x="116" y="421" type="line"/>
      <point x="256" y="421" type="line"/>
    </contour>
    <contour>
      <point x="267" y="0" type="line"/>
      <point x="302" y="1"/>
      <point x="319" y="19"/>
      <point x="319" y="55" type="curve" smooth="yes"/>
      <point x="319" y="141" type="line"/>
      <point x="256" y="141" type="line"/>
      <point x="256" y="54" type="line"/>
      <point x="116" y="54" type="line"/>
      <point x="116" y="226" type="line"/>
      <point x="297" y="226" type="line"/>
      <point x="319" y="249" type="line"/>
      <point x="319" y="420" type="line" smooth="yes"/>
      <point x="319" y="457"/>
      <point x="301" y="475"/>
      <point x="264" y="475" type="curve" smooth="yes"/>
      <point x="108" y="475" type="line" smooth="yes"/>
      <point x="71" y="475"/>
      <point x="53" y="457"/>
      <point x="53" y="420" type="curve" smooth="yes"/>
      <point x="53" y="55" type="line" smooth="yes"/>
      <point x="53" y="18"/>
      <point x="71" y="0"/>
      <point x="108" y="0" type="curve" smooth="yes"/>
      <point x="200" y="0" type="line"/>
      <point x="158" y="-40" type="line" smooth="yes"/>
      <point x="145" y="-53"/>
      <point x="139" y="-63"/>
      <point x="139" y="-84" type="curve" smooth="yes"/>
      <point x="139" y="-141" type="line" smooth="yes"/>
      <point x="139" y="-167"/>
      <point x="153" y="-180"/>
      <point x="178" y="-180" type="curve" smooth="yes"/>
      <point x="311" y="-180" type="line"/>
      <point x="311" y="-134" type="line"/>
      <point x="194" y="-134" type="line"/>
      <point x="194" y="-73" type="line"/>
    </contour>
  </outline>
</glyph>
<glyph name="FL0122h" format="1">
  <advance width="430"/>
  <unicode hex="0122"/>
  <outline>
    <contour>
      <point x="370" y="54" type="curve" name="hr00"/>
      <point x="370" y="383" type="line"/>
      <point x="220" y="383" type="line"/>
      <point x="220" y="324" type="line"/>
      <point x="302" y="324" type="line"/>
      <point x="302" y="60" type="line"/>
      <point x="129" y="60" type="line"/>
      <point x="129" y="704" type="line"/>
      <point x="302" y="704" type="line"/>
      <point x="302" y="532" type="line"/>
      <point x="370" y="532" type="line"/>
      <point x="370" y="710" type="line" smooth="yes"/>
      <point x="370" y="742"/>
      <point x="348" y="764"/>
      <point x="316" y="764" type="curve" smooth="yes"/>
      <point x="115" y="764" type="line" smooth="yes"/>
      <point x="83" y="764"/>
      <point x="61" y="742"/>
      <point x="61" y="710" type="curve" smooth="yes"/>
      <point x="61" y="54" type="line" smooth="yes"/>
      <point x="61" y="22"/>
      <point x="83" y="0"/>
      <point x="115" y="0" type="curve" smooth="yes"/>
      <point x="316" y="0" type="line" smooth="yes"/>
      <point x="348" y="0"/>
      <point x="370" y="22"/>
    </contour>
    <contour>
      <point x="262" y="-20" type="line"/>
      <point x="186" y="-20" type="line"/>
      <point x="172" y="-160" type="line"/>
      <point x="219" y="-160" type="line"/>
    </contour>
  </outline>
</glyph>
<glyph name="FL012Ah" format="1">
  <advance width="199"/>
  <unicode hex="012A"/>
  <outline>
    <contour>
      <point x="133" y="0" type="line" name="hr00"/>
      <point x="133" y="764" type="line"/>
      <point x="65" y="764" type="line"/>
      <point x="65" y="0" type="line"/>
    </contour>
    <contour>
      <point x="207" y="822" type="line"/>
      <point x="207" y="874" type="line"/>
      <point x="-9" y="874" type="line"/>
      <point x="-9" y="822" type="line"/>
    </contour>
  </outline>
</glyph>
<glyph name="FL012Bh" format="1">
  <advance width="178"/>
  <unicode hex="012B"/>
  <outline>
    <contour>
      <point x="121" y="0" type="line" name="hr00"/>
      <point x="121" y="475" type="line"/>
      <point x="57" y="475" type="line"/>
      <point x="57" y="0" type="line"/>
    </contour>
    <contour>
      <point x="197" y="532" type="line"/>
      <point x="197" y="584" type="line"/>
      <point x="-19" y="584" type="line"/>
      <point x="-19" y="532" type="line"/>
    </contour>
  </outline>
</glyph>
<glyph name="FL012Eh" format="1">
  <advance width="199"/>
  <unicode hex="012E"/>
  <outline>
    <contour>
      <point x="66" y="0" type="line" name="hr00"/>
      <point x="18" y="-46" type="line" smooth="yes"/>
      <point x="5" y="-59"/>
      <point x="-1" y="-69"/>
      <point x="-1" y="-90" type="curve" smooth="yes"/>
      <point x="-1" y="-147" type="line" smooth="yes"/>
      <point x="-1" y="-173"/>
      <point x="13" y="-186"/>
      <point x="38" y="-186" type="curve" smooth="yes"/>
      <point x="171" y="-186" type="line"/>
      <point x="171" y="-140" type="line"/>
      <point x="54" y="-140" type="line"/>
      <point x="54" y="-79" type="line"/>
      <point x="133" y="0" type="line"/>
      <point x="133" y="764" type="line"/>
      <point x="65" y="764" type="line"/>
      <point x="65" y="0" type="line"/>
    </contour>
  </outline>
</glyph>
<glyph name="FL012Fh" format="1">
  <advance width="178"/>
  <unicode hex="012F"/>
  <outline>
    <contour>
      <point x="57" y="3" type="line" name="hr00"/>
      <point x="6" y="-46" type="line" smooth="yes"/>
      <point x="-7" y="-59"/>
      <point x="-13" y="-69"/>
      <point x="-13" y="-90" type="curve" smooth="yes"/>
      <point x="-13" y="-147" type="line" smooth="yes"/>
      <point x="-13" y="-173"/>
      <point x="1" y="-186"/>
      <point x="26" y="-186" type="curve" smooth="yes"/>
      <point x="159" y="-186" type="line"/>
      <point x="159" y="-140" type="line"/>
      <point x="42" y="-140" type="line"/>
      <point x="42" y="-79" type="line"/>
      <point x="121" y="0" type="line"/>
      <point x="121" y="475" type="line"/>
      <point x="57" y="475" type="line"/>
    </contour>
    <contour>
      <point x="122" y="579" type="line"/>
      <point x="122" y="661" type="line"/>
      <point x="56" y="661" type="line"/>
      <point x="56" y="579" type="line"/>
    </contour>
  </outline>
</glyph>
<glyph name="dotlessi" format="1">
  <advance width="178"/>
  <unicode hex="0131"/>
  <outline>
    <contour>
      <point x="121" y="0" type="line" name="hr00"/>
      <point x="121" y="475" type="line"/>
      <point x="57" y="475" type="line"/>
      <point x="57" y="0" type="line"/>
    </contour>
  </outline>
</glyph>
<glyph name="FL0136h" format="1">
  <advance width="385"/>
  <unicode hex="0136"/>
  <outline>
    <contour>
      <point x="380" y="0" type="line" name="hr00"/>
      <point x="380" y="4" type="line"/>
      <point x="190" y="396" type="line"/>
      <point x="363" y="760" type="line"/>
      <point x="363" y="764" type="line"/>
      <point x="289" y="764" type="line"/>
      <point x="129" y="421" type="line"/>
      <point x="129" y="764" type="line"/>
      <point x="61" y="764" type="line"/>
      <point x="61" y="0" type="line"/>
      <point x="129" y="0" type="line"/>
      <point x="129" y="367" type="line"/>
      <point x="305" y="0" type="line"/>
    </contour>
    <contour>
      <point x="239" y="-20" type="line"/>
      <point x="163" y="-20" type="line"/>
      <point x="149" y="-160" type="line"/>
      <point x="196" y="-160" type="line"/>
    </contour>
  </outline>
</glyph>
<glyph name="FL0137h" format="1">
  <advance width="335"/>
  <unicode hex="0137"/>
  <outline>
    <contour>
      <point x="320" y="0" type="line" name="hr00"/>
      <point x="320" y="2" type="line"/>
      <point x="172" y="263" type="line"/>
      <point x="310" y="473" type="line"/>
      <point x="310" y="475" type="line"/>
      <point x="240" y="475" type="line"/>
      <point x="118" y="279" type="line"/>
      <point x="118" y="764" type="line"/>
      <point x="53" y="764" type="line"/>
      <point x="53" y="0" type="line"/>
      <point x="118" y="0" type="line"/>
      <point x="118" y="242" type="line"/>
      <point x="249" y="0" type="line"/>
    </contour>
    <contour>
      <point x="214" y="-20" type="line"/>
      <point x="138" y="-20" type="line"/>
      <point x="124" y="-160" type="line"/>
      <point x="171" y="-160" type="line"/>
    </contour>
  </outline>
</glyph>
<glyph name="FL0139h" format="1">
  <advance width="178"/>
  <unicode hex="0139"/>
  <outline>
    <contour>
      <point x="121" y="0" type="line"/>
      <point x="121" y="764" type="line"/>
      <point x="57" y="764" type="line"/>
      <point x="57" y="0" type="line"/>
    </contour>
    <contour>
      <point x="267" y="764" type="line" name="hr01"/>
      <point x="195" y="764" type="line"/>
      <point x="177" y="524" type="line"/>
      <point x="221" y="524" type="line"/>
    </contour>
  </outline>
</glyph>
<glyph name="FL013Ah" format="1">
  <advance width="337"/>
  <unicode hex="013A"/>
  <outline>
    <contour>
      <point x="305" y="0" type="line" name="hr00"/>
      <point x="305" y="60" type="line"/>
      <point x="129" y="60" type="line"/>
      <point x="129" y="764" type="line"/>
      <point x="61" y="764" type="line"/>
      <point x="61" y="0" type="line"/>
    </contour>
    <contour>
      <point x="235" y="920" type="line"/>
      <point x="235" y="922" type="line"/>
      <point x="143" y="922" type="line"/>
      <point x="70" y="810" type="line"/>
      <point x="70" y="807" type="line"/>
      <point x="115" y="807" type="line"/>
    </contour>
  </outline>
</glyph>
<glyph name="FL013Ch" format="1">
  <advance width="337"/>
  <unicode hex="013C"/>
  <outline>
    <contour>
      <point x="305" y="0" type="line" name="hr00"/>
      <point x="305" y="60" type="line"/>
      <point x="129" y="60" type="line"/>
      <point x="129" y="764" type="line"/>
      <point x="61" y="764" type="line"/>
      <point x="61" y="0" type="line"/>
    </contour>
    <contour>
      <point x="215" y="-20" type="line"/>
      <point x="139" y="-20" type="line"/>
      <point x="125" y="-160" type="line"/>
      <point x="172" y="-160" type="line"/>
    </contour>
  </outline>
</glyph>
<glyph name="FL013Dh" format="1">
  <advance width="178"/>
  <unicode hex="013D"/>
  <outline>
    <contour>
      <point x="121" y="0" type="line" name="hr00"/>
      <point x="121" y="764" type="line"/>
      <point x="57" y="764" type="line"/>
      <point x="57" y="0" type="line"/>
    </contour>
    <contour>
      <point x="136" y="-20" type="line"/>
      <point x="60" y="-20" type="line"/>
      <point x="46" y="-160" type="line"/>
      <point x="93" y="-160" type="line"/>
    </contour>
  </outline>
</glyph>
<glyph name="FL013Eh" format="1">
  <advance width="337"/>
  <unicode hex="013E"/>
  <outline>
    <contour>
      <point x="305" y="0" type="line"/>
      <point x="305" y="60" type="line"/>
      <point x="129" y="60" type="line"/>
      <point x="129" y="764" type="line"/>
      <point x="61" y="764" type="line"/>
      <point x="61" y="0" type="line"/>
    </contour>
    <contour>
      <point x="288" y="764" type="line" name="hr01"/>
      <point x="216" y="764" type="line"/>
      <point x="198" y="524" type="line"/>
      <point x="242" y="524" type="line"/>
    </contour>
  </outline>
</glyph>
<glyph name="Lslash" format="1">
  <advance width="361"/>
  <unicode hex="0141"/>
  <outline>
    <contour>
      <point x="329" y="0" type="line" name="hr00"/>
      <point x="329" y="60" type="line"/>
      <point x="152" y="60" type="line"/>
      <point x="152" y="311" type="line"/>
      <point x="246" y="375" type="line"/>
      <point x="246" y="447" type="line"/>
      <point x="242" y="447" type="line"/>
      <point x="152" y="384" type="line"/>
      <point x="152" y="764" type="line"/>
      <point x="85" y="764" type="line"/>
      <point x="85" y="342" type="line"/>
      <point x="34" y="308" type="line"/>
      <point x="34" y="236" type="line"/>
      <point x="38" y="236" type="line"/>
      <point x="85" y="269" type="line"/>
      <point x="85" y="0" type="line"/>
    </contour>
  </outline>
</glyph>
<glyph name="lslash" format="1">
  <advance width="226"/>
  <unicode hex="0142"/>
  <outline>
    <contour>
      <point x="195" y="344" type="line" name="hr00"/>
      <point x="195" y="414" type="line"/>
      <point x="191" y="414" type="line"/>
      <point x="144" y="382" type="line"/>
      <point x="144" y="764" type="line"/>
      <point x="81" y="764" type="line"/>
      <point x="81" y="341" type="line"/>
      <point x="31" y="306" type="line"/>
      <point x="31" y="236" type="line"/>
      <point x="35" y="236" type="line"/>
      <point x="81" y="268" type="line"/>
      <point x="81" y="0" type="line"/>
      <point x="144" y="0" type="line"/>
      <point x="144" y="309" type="line"/>
    </contour>
  </outline>
</glyph>
<glyph name="FL0143h" format="1">
  <advance width="378"/>
  <unicode hex="0143"/>
  <outline>
    <contour>
      <point x="326" y="0" type="line" name="hr00"/>
      <point x="326" y="425" type="line" smooth="yes"/>
      <point x="326" y="461"/>
      <point x="308" y="478"/>
      <point x="272" y="478" type="curve" smooth="yes"/>
      <point x="266" y="478"/>
      <point x="258" y="477"/>
      <point x="249" y="476" type="curve" smooth="yes"/>
      <point x="118" y="462" type="line"/>
      <point x="118" y="475" type="line"/>
      <point x="53" y="475" type="line"/>
      <point x="53" y="0" type="line"/>
      <point x="118" y="0" type="line"/>
      <point x="118" y="413" type="line"/>
      <point x="261" y="417" type="line"/>
      <point x="261" y="0" type="line"/>
    </contour>
    <contour>
      <point x="236" y="-20" type="line"/>
      <point x="160" y="-20" type="line"/>
      <point x="146" y="-160" type="line"/>
      <point x="193" y="-160" type="line"/>
    </contour>
  </outline>
</glyph>
<glyph name="FL0146h" format="1">
  <advance width="437"/>
  <unicode hex="0146"/>
  <outline>
    <contour>
      <point x="376" y="0" type="line" name="hr00"/>
      <point x="376" y="764" type="line"/>
      <point x="312" y="764" type="line"/>
      <point x="312" y="212" type="line"/>
      <point x="112" y="764" type="line"/>
      <point x="61" y="764" type="line"/>
      <point x="61" y="0" type="line"/>
      <point x="125" y="0" type="line"/>
      <point x="125" y="562" type="line"/>
      <point x="329" y="0" type="line"/>
    </contour>
    <contour>
      <point x="265" y="-20" type="line"/>
      <point x="189" y="-20" type="line"/>
      <point x="175" y="-160" type="line"/>
      <point x="222" y="-160" type="line"/>
    </contour>
  </outline>
</glyph>
<glyph name="FL0148h" format="1">
  <advance width="378"/>
  <unicode hex="0148"/>
  <outline>
    <contour>
      <point x="326" y="0" type="line" name="hr00"/>
      <point x="326" y="425" type="line" smooth="yes"/>
      <point x="326" y="461"/>
      <point x="308" y="478"/>
      <point x="272" y="478" type="curve" smooth="yes"/>
      <point x="266" y="478"/>
      <point x="258" y="477"/>
      <point x="249" y="476" type="curve" smooth="yes"/>
      <point x="118" y="462" type="line"/>
      <point x="118" y="475" type="line"/>
      <point x="53" y="475" type="line"/>
      <point x="53" y="0" type="line"/>
      <point x="118" y="0" type="line"/>
      <point x="118" y="413" type="line"/>
      <point x="261" y="417" type="line"/>
      <point x="261" y="0" type="line"/>
    </contour>
    <contour>
      <point x="307" y="629" type="line"/>
      <point x="307" y="632" type="line"/>
      <point x="267" y="632" type="line"/>
      <point x="190" y="574" type="line"/>
      <point x="113" y="632" type="line"/>
      <point x="71" y="632" type="line"/>
      <point x="71" y="629" type="line"/>
      <point x="170" y="517" type="line"/>
      <point x="208" y="517" type="line"/>
    </contour>
  </outline>
</glyph>
<glyph name="FL014Ch" format="1">
  <advance width="445"/>
  <unicode hex="014C"/>
  <outline>
    <contour>
      <point x="384" y="54" type="curve" name="hr00"/>
      <point x="384" y="710" type="line" smooth="yes"/>
      <point x="384" y="742"/>
      <point x="361" y="764"/>
      <point x="329" y="764" type="curve" smooth="yes"/>
      <point x="115" y="764" type="line" smooth="yes"/>
      <point x="83" y="764"/>
      <point x="61" y="742"/>
      <point x="61" y="710" type="curve" smooth="yes"/>
      <point x="61" y="54" type="line" smooth="yes"/>
      <point x="61" y="22"/>
      <point x="83" y="0"/>
      <point x="115" y="0" type="curve" smooth="yes"/>
      <point x="329" y="0" type="line" smooth="yes"/>
      <point x="361" y="0"/>
      <point x="384" y="22"/>
    </contour>
    <contour>
      <point x="316" y="60" type="line"/>
      <point x="129" y="60" type="line"/>
      <point x="129" y="704" type="line"/>
      <point x="316" y="704" type="line"/>
    </contour>
    <contour>
      <point x="330" y="822" type="line"/>
      <point x="330" y="874" type="line"/>
      <point x="114" y="874" type="line"/>
      <point x="114" y="822" type="line"/>
    </contour>
  </outline>
</glyph>
<glyph name="FL014Dh" format="1">
  <advance width="379"/>
  <unicode hex="014D"/>
  <outline>
    <contour>
      <point x="326" y="55" type="curve" name="hr00"/>
      <point x="326" y="420" type="line" smooth="yes"/>
      <point x="326" y="457"/>
      <point x="308" y="475"/>
      <point x="271" y="475" type="curve" smooth="yes"/>
      <point x="108" y="475" type="line" smooth="yes"/>
      <point x="71" y="475"/>
      <point x="53" y="457"/>
      <point x="53" y="420" type="curve" smooth="yes"/>
      <point x="53" y="55" type="line" smooth="yes"/>
      <point x="53" y="18"/>
      <point x="71" y="0"/>
      <point x="108" y="0" type="curve" smooth="yes"/>
      <point x="271" y="0" type="line" smooth="yes"/>
      <point x="308" y="0"/>
      <point x="326" y="18"/>
    </contour>
    <contour>
      <point x="261" y="57" type="line"/>
      <point x="118" y="57" type="line"/>
      <point x="118" y="418" type="line"/>
      <point x="261" y="418" type="line"/>
    </contour>
    <contour>
      <point x="297" y="532" type="line"/>
      <point x="297" y="584" type="line"/>
      <point x="81" y="584" type="line"/>
      <point x="81" y="532" type="line"/>
    </contour>
  </outline>
</glyph>
<glyph name="FL0150h" format="1">
  <advance width="445"/>
  <unicode hex="0150"/>
  <outline>
    <contour>
      <point x="384" y="54" type="curve" name="hr00"/>
      <point x="384" y="710" type="line" smooth="yes"/>
      <point x="384" y="742"/>
      <point x="361" y="764"/>
      <point x="329" y="764" type="curve" smooth="yes"/>
      <point x="115" y="764" type="line" smooth="yes"/>
      <point x="83" y="764"/>
      <point x="61" y="742"/>
      <point x="61" y="710" type="curve" smooth="yes"/>
      <point x="61" y="54" type="line" smooth="yes"/>
      <point x="61" y="22"/>
      <point x="83" y="0"/>
      <point x="115" y="0" type="curve" smooth="yes"/>
      <point x="329" y="0" type="line" smooth="yes"/>
      <point x="361" y="0"/>
      <point x="384" y="22"/>
    </contour>
    <contour>
      <point x="316" y="60" type="line"/>
      <point x="129" y="60" type="line"/>
      <point x="129" y="704" type="line"/>
      <point x="316" y="704" type="line"/>
    </contour>
    <contour>
      <point x="409" y="920" type="line"/>
      <point x="409" y="922" type="line"/>
      <point x="322" y="922" type="line"/>
      <point x="248" y="810" type="line"/>
      <point x="248" y="807" type="line"/>
      <point x="289" y="807" type="line"/>
    </contour>
    <contour>
      <point x="279" y="920" type="line"/>
      <point x="279" y="922" type="line"/>
      <point x="192" y="922" type="line"/>
      <point x="118" y="810" type="line"/>
      <point x="118" y="807" type="line"/>
      <point x="159" y="807" type="line"/>
    </contour>
  </outline>
</glyph>
<glyph name="FL0151h" format="1">
  <advance width="379"/>
  <unicode hex="0151"/>
  <outline>
    <contour>
      <point x="326" y="55" type="curve" name="hr00"/>
      <point x="326" y="420" type="line" smooth="yes"/>
      <point x="326" y="457"/>
      <point x="308" y="475"/>
      <point x="271" y="475" type="curve" smooth="yes"/>
      <point x="108" y="475" type="line" smooth="yes"/>
      <point x="71" y="475"/>
      <point x="53" y="457"/>
      <point x="53" y="420" type="curve" smooth="yes"/>
      <point x="53" y="55" type="line" smooth="yes"/>
      <point x="53" y="18"/>
      <point x="71" y="0"/>
      <point x="108" y="0" type="curve" smooth="yes"/>
      <point x="271" y="0" type="line" smooth="yes"/>
      <point x="308" y="0"/>
      <point x="326" y="18"/>
    </contour>
    <contour>
      <point x="261" y="57" type="line"/>
      <point x="118" y="57" type="line"/>
      <point x="118" y="418" type="line"/>
      <point x="261" y="418" type="line"/>
    </contour>
    <contour>
      <point x="376" y="630" type="line"/>
      <point x="376" y="632" type="line"/>
      <point x="289" y="632" type="line"/>
      <point x="215" y="520" type="line"/>
      <point x="215" y="517" type="line"/>
      <point x="256" y="517" type="line"/>
    </contour>
    <contour>
      <point x="246" y="630" type="line"/>
      <point x="246" y="632" type="line"/>
      <point x="159" y="632" type="line"/>
      <point x="85" y="520" type="line"/>
      <point x="85" y="517" type="line"/>
      <point x="126" y="517" type="line"/>
    </contour>
  </outline>
</glyph>
<glyph name="OE" format="1">
  <advance width="590"/>
  <unicode hex="0152"/>
  <outline>
    <contour>
      <point x="545" y="0" type="line" name="hr00"/>
      <point x="545" y="60" type="line"/>
      <point x="364" y="60" type="line"/>
      <point x="364" y="358" type="line"/>
      <point x="527" y="358" type="line"/>
      <point x="527" y="419" type="line"/>
      <point x="364" y="419" type="line"/>
      <point x="364" y="704" type="line"/>
      <point x="542" y="704" type="line"/>
      <point x="542" y="764" type="line"/>
      <point x="115" y="764" type="line" smooth="yes"/>
      <point x="83" y="764"/>
      <point x="61" y="742"/>
      <point x="61" y="710" type="curve" smooth="yes"/>
      <point x="61" y="54" type="line" smooth="yes"/>
      <point x="61" y="22"/>
      <point x="83" y="0"/>
      <point x="115" y="0" type="curve" smooth="yes"/>
    </contour>
    <contour>
      <point x="296" y="60" type="line"/>
      <point x="129" y="60" type="line"/>
      <point x="129" y="704" type="line"/>
      <point x="296" y="704" type="line"/>
    </contour>
  </outline>
</glyph>
<glyph name="oe" format="1">
  <advance width="573"/>
  <unicode hex="0153"/>
  <outline>
    <contour>
      <point x="520" y="55" type="curve" name="hr00"/>
      <point x="520" y="141" type="line"/>
      <point x="458" y="141" type="line"/>
      <point x="458" y="54" type="line"/>
      <point x="320" y="54" type="line"/>
      <point x="320" y="226" type="line"/>
      <point x="497" y="226" type="line"/>
      <point x="520" y="249" type="line"/>
      <point x="520" y="420" type="line" smooth="yes"/>
      <point x="520" y="457"/>
      <point x="502" y="475"/>
      <point x="465" y="475" type="curve" smooth="yes"/>
      <point x="108" y="475" type="line" smooth="yes"/>
      <point x="71" y="475"/>
      <point x="53" y="457"/>
      <point x="53" y="420" type="curve" smooth="yes"/>
      <point x="53" y="55" type="line" smooth="yes"/>
      <point x="53" y="18"/>
      <point x="71" y="0"/>
      <point x="108" y="0" type="curve" smooth="yes"/>
      <point x="465" y="0" type="line" smooth="yes"/>
      <point x="502" y="0"/>
      <point x="520" y="18"/>
    </contour>
    <contour>
      <point x="458" y="278" type="line"/>
      <point x="320" y="278" type="line"/>
      <point x="320" y="421" type="line"/>
      <point x="458" y="421" type="line"/>
    </contour>
    <contour>
      <point x="259" y="54" type="line"/>
      <point x="117" y="54" type="line"/>
      <point x="117" y="421" type="line"/>
      <point x="259" y="421" type="line"/>
    </contour>
  </outline>
</glyph>
<glyph name="FL0155h" format="1">
  <advance width="331"/>
  <unicode hex="0155"/>
  <outline>
    <contour>
      <point x="302" y="319" type="line" name="hr00"/>
      <point x="302" y="425" type="line" smooth="yes"/>
      <point x="302" y="461"/>
      <point x="284" y="478"/>
      <point x="248" y="478" type="curve" smooth="yes"/>
      <point x="242" y="478"/>
      <point x="235" y="478"/>
      <point x="228" y="476" type="curve"/>
      <point x="118" y="462" type="line"/>
      <point x="118" y="475" type="line"/>
      <point x="53" y="475" type="line"/>
      <point x="53" y="0" type="line"/>
      <point x="118" y="0" type="line"/>
      <point x="118" y="413" type="line"/>
      <point x="238" y="417" type="line"/>
      <point x="238" y="319" type="line"/>
    </contour>
    <contour>
      <point x="272" y="630" type="line"/>
      <point x="272" y="632" type="line"/>
      <point x="180" y="632" type="line"/>
      <point x="107" y="520" type="line"/>
      <point x="107" y="517" type="line"/>
      <point x="152" y="517" type="line"/>
    </contour>
  </outline>
</glyph>
<glyph name="FL0156h" format="1">
  <advance width="427"/>
  <unicode hex="0156"/>
  <outline>
    <contour>
      <point x="386" y="0" type="line" name="hr00"/>
      <point x="386" y="1" type="line"/>
      <point x="255" y="366" type="line"/>
      <point x="319" y="366" type="line"/>
      <point x="349" y="367"/>
      <point x="371" y="388"/>
      <point x="371" y="420" type="curve" smooth="yes"/>
      <point x="371" y="710" type="line" smooth="yes"/>
      <point x="371" y="742"/>
      <point x="349" y="764"/>
      <point x="317" y="764" type="curve" smooth="yes"/>
      <point x="61" y="764" type="line"/>
      <point x="61" y="0" type="line"/>
      <point x="129" y="0" type="line"/>
      <point x="129" y="704" type="line"/>
      <point x="303" y="704" type="line"/>
      <point x="303" y="423" type="line"/>
      <point x="182" y="423" type="line"/>
      <point x="173" y="409" type="line"/>
      <point x="315" y="0" type="line"/>
    </contour>
    <contour>
      <point x="260" y="-20" type="line"/>
      <point x="184" y="-20" type="line"/>
      <point x="170" y="-160" type="line"/>
      <point x="217" y="-160" type="line"/>
    </contour>
  </outline>
</glyph>
<glyph name="FL0158h" format="1">
  <advance width="427"/>
  <unicode hex="0158"/>
  <outline>
    <contour>
      <point x="386" y="0" type="line" name="hr00"/>
      <point x="386" y="1" type="line"/>
      <point x="255" y="366" type="line"/>
      <point x="319" y="366" type="line"/>
      <point x="349" y="367"/>
      <point x="371" y="388"/>
      <point x="371" y="420" type="curve" smooth="yes"/>
      <point x="371" y="710" type="line" smooth="yes"/>
      <point x="371" y="742"/>
      <point x="349" y="764"/>
      <point x="317" y="764" type="curve" smooth="yes"/>
      <point x="61" y="764" type="line"/>
      <point x="61" y="0" type="line"/>
      <point x="129" y="0" type="line"/>
      <point x="129" y="704" type="line"/>
      <point x="303" y="704" type="line"/>
      <point x="303" y="423" type="line"/>
      <point x="182" y="423" type="line"/>
      <point x="173" y="409" type="line"/>
      <point x="315" y="0" type="line"/>
    </contour>
    <contour>
      <point x="331" y="919" type="line"/>
      <point x="331" y="922" type="line"/>
      <point x="291" y="922" type="line"/>
      <point x="214" y="864" type="line"/>
      <point x="137" y="922" type="line"/>
      <point x="95" y="922" type="line"/>
      <point x="95" y="919" type="line"/>
      <point x="194" y="807" type="line"/>
      <point x="232" y="807" type="line"/>
    </contour>
  </outline>
</glyph>
<glyph name="FL0159h" format="1">
  <advance width="331"/>
  <unicode hex="0159"/>
  <outline>
    <contour>
      <point x="302" y="319" type="line" name="hr00"/>
      <point x="302" y="425" type="line" smooth="yes"/>
      <point x="302" y="461"/>
      <point x="284" y="478"/>
      <point x="248" y="478" type="curve" smooth="yes"/>
      <point x="242" y="478"/>
      <point x="235" y="478"/>
      <point x="228" y="476" type="curve"/>
      <point x="118" y="462" type="line"/>
      <point x="118" y="475" type="line"/>
      <point x="53" y="475" type="line"/>
      <point x="53" y="0" type="line"/>
      <point x="118" y="0" type="line"/>
      <point x="118" y="413" type="line"/>
      <point x="238" y="417" type="line"/>
      <point x="238" y="319" type="line"/>
    </contour>
    <contour>
      <point x="283" y="629" type="line"/>
      <point x="283" y="632" type="line"/>
      <point x="243" y="632" type="line"/>
      <point x="166" y="574" type="line"/>
      <point x="89" y="632" type="line"/>
      <point x="47" y="632" type="line"/>
      <point x="47" y="629" type="line"/>
      <point x="146" y="517" type="line"/>
      <point x="184" y="517" type="line"/>
    </contour>
  </outline>
</glyph>
<glyph name="FL015Ah" format="1">
  <advance width="418"/>
  <unicode hex="015A"/>
  <outline>
    <contour>
      <point x="359" y="54" type="curve" name="hr00"/>
      <point x="359" y="231" type="line" smooth="yes"/>
      <point x="359" y="256"/>
      <point x="354" y="269"/>
      <point x="338" y="288" type="curve" smooth="yes"/>
      <point x="126" y="543" type="line"/>
      <point x="126" y="704" type="line"/>
      <point x="291" y="704" type="line"/>
      <point x="291" y="532" type="line"/>
      <point x="359" y="532" type="line"/>
      <point x="359" y="710" type="line" smooth="yes"/>
      <point x="359" y="742"/>
      <point x="337" y="764"/>
      <point x="305" y="764" type="curve" smooth="yes"/>
      <point x="113" y="764" type="line" smooth="yes"/>
      <point x="81" y="764"/>
      <point x="58" y="742"/>
      <point x="58" y="710" type="curve" smooth="yes"/>
      <point x="58" y="555" type="line" smooth="yes"/>
      <point x="58" y="529"/>
      <point x="64" y="516"/>
      <point x="80" y="497" type="curve" smooth="yes"/>
      <point x="291" y="242" type="line"/>
      <point x="291" y="60" type="line"/>
      <point x="126" y="60" type="line"/>
      <point x="126" y="248" type="line"/>
      <point x="58" y="248" type="line"/>
      <point x="58" y="54" type="line" smooth="yes"/>
      <point x="58" y="22"/>
      <point x="81" y="0"/>
      <point x="113" y="0" type="curve" smooth="yes"/>
      <point x="305" y="0" type="line" smooth="yes"/>
      <point x="337" y="0"/>
      <point x="359" y="22"/>
    </contour>
    <contour>
      <point x="316" y="920" type="line"/>
      <point x="316" y="922" type="line"/>
      <point x="224" y="922" type="line"/>
      <point x="151" y="810" type="line"/>
      <point x="151" y="807" type="line"/>
      <point x="196" y="807" type="line"/>
    </contour>
  </outline>
</glyph>
<glyph name="FL015Bh" format="1">
  <advance width="359"/>
  <unicode hex="015B"/>
  <outline>
    <contour>
      <point x="309" y="55" type="curve" name="hr00"/>
      <point x="309" y="145" type="line" smooth="yes"/>
      <point x="309" y="172"/>
      <point x="301" y="185"/>
      <point x="285" y="197" type="curve"/>
      <point x="114" y="336" type="line"/>
      <point x="114" y="419" type="line"/>
      <point x="245" y="419" type="line"/>
      <point x="245" y="325" type="line"/>
      <point x="308" y="325" type="line"/>
      <point x="308" y="420" type="line" smooth="yes"/>
      <point x="308" y="457"/>
      <point x="290" y="475"/>
      <point x="253" y="475" type="curve" smooth="yes"/>
      <point x="106" y="475" type="line" smooth="yes"/>
      <point x="69" y="475"/>
      <point x="51" y="457"/>
      <point x="51" y="420" type="curve" smooth="yes"/>
      <point x="51" y="341" type="line" smooth="yes"/>
      <point x="51" y="315"/>
      <point x="59" y="302"/>
      <point x="75" y="290" type="curve"/>
      <point x="245" y="151" type="line"/>
      <point x="245" y="56" type="line"/>
      <point x="114" y="56" type="line"/>
      <point x="114" y="163" type="line"/>
      <point x="50" y="163" type="line"/>
      <point x="50" y="55" type="line" smooth="yes"/>
      <point x="50" y="18"/>
      <point x="68" y="0"/>
      <point x="105" y="0" type="curve" smooth="yes"/>
      <point x="254" y="0" type="line" smooth="yes"/>
      <point x="291" y="0"/>
      <point x="309" y="18"/>
    </contour>
    <contour>
      <point x="286" y="630" type="line"/>
      <point x="286" y="632" type="line"/>
      <point x="194" y="632" type="line"/>
      <point x="121" y="520" type="line"/>
      <point x="121" y="517" type="line"/>
      <point x="166" y="517" type="line"/>
    </contour>
  </outline>
</glyph>
<glyph name="scaron" format="1">
  <advance width="359"/>
  <unicode hex="0161"/>
  <outline>
    <contour>
      <point x="309" y="55" type="curve" name="hr00"/>
      <point x="309" y="145" type="line" smooth="yes"/>
      <point x="309" y="172"/>
      <point x="301" y="185"/>
      <point x="285" y="197" type="curve"/>
      <point x="114" y="336" type="line"/>
      <point x="114" y="419" type="line"/>
      <point x="245" y="419" type="line"/>
      <point x="245" y="325" type="line"/>
      <point x="308" y="325" type="line"/>
      <point x="308" y="420" type="line" smooth="yes"/>
      <point x="308" y="457"/>
      <point x="290" y="475"/>
      <point x="253" y="475" type="curve" smooth="yes"/>
      <point x="106" y="475" type="line" smooth="yes"/>
      <point x="69" y="475"/>
      <point x="51" y="457"/>
      <point x="51" y="420" type="curve" smooth="yes"/>
      <point x="51" y="341" type="line" smooth="yes"/>
      <point x="51" y="315"/>
      <point x="59" y="302"/>
      <point x="75" y="290" type="curve"/>
      <point x="245" y="151" type="line"/>
      <point x="245" y="56" type="line"/>
      <point x="114" y="56" type="line"/>
      <point x="114" y="163" type="line"/>
      <point x="50" y="163" type="line"/>
      <point x="50" y="55" type="line" smooth="yes"/>
      <point x="50" y="18"/>
      <point x="68" y="0"/>
      <point x="105" y="0" type="curve" smooth="yes"/>
      <point x="254" y="0" type="line" smooth="yes"/>
      <point x="291" y="0"/>
      <point x="309" y="18"/>
    </contour>
    <contour>
      <point x="298" y="629" type="line"/>
      <point x="298" y="632" type="line"/>
      <point x="258" y="632" type="line"/>
      <point x="181" y="574" type="line"/>
      <point x="104" y="632" type="line"/>
      <point x="62" y="632" type="line"/>
      <point x="62" y="629" type="line"/>
      <point x="161" y="517" type="line"/>
      <point x="199" y="517" type="line"/>
    </contour>
  </outline>
</glyph>
<glyph name="FL0162h" format="1">
  <advance width="343"/>
  <unicode hex="0162"/>
  <outline>
    <contour>
      <point x="324" y="704" type="line" name="hr00"/>
      <point x="324" y="764" type="line"/>
      <point x="19" y="764" type="line"/>
      <point x="19" y="704" type="line"/>
      <point x="138" y="704" type="line"/>
      <point x="138" y="0" type="line"/>
      <point x="206" y="0" type="line"/>
      <point x="206" y="704" type="line"/>
    </contour>
    <contour>
      <point x="218" y="-20" type="line"/>
      <point x="142" y="-20" type="line"/>
      <point x="128" y="-160" type="line"/>
      <point x="175" y="-160" type="line"/>
    </contour>
  </outline>
</glyph>
<glyph name="FL0163h" format="1">
  <advance width="254"/>
  <unicode hex="0163"/>
  <outline>
    <contour>
      <point x="224" y="0" type="line"/>
      <point x="224" y="57" type="line"/>
      <point x="141" y="57" type="line"/>
      <point x="141" y="418" type="line"/>
      <point x="224" y="418" type="line"/>
      <point x="224" y="475" type="line"/>
      <point x="141" y="475" type="line"/>
      <point x="141" y="623" type="line"/>
      <point x="77" y="623" type="line"/>
      <point x="77" y="475" type="line"/>
      <point x="20" y="475" type="line"/>
      <point x="20" y="418" type="line"/>
      <point x="77" y="418" type="line"/>
      <point x="77" y="55" type="line" smooth="yes"/>
      <point x="77" y="18"/>
      <point x="95" y="0"/>
      <point x="132" y="0" type="curve" smooth="yes"/>
    </contour>
    <contour>
      <point x="174" y="-20" type="line"/>
      <point x="98" y="-20" type="line"/>
      <point x="84" y="-160" type="line"/>
      <point x="131" y="-160" type="line"/>
    </contour>
  </outline>
</glyph>
<glyph name="FL0164h" format="1">
  <advance width="343"/>
  <unicode hex="0164"/>
  <outline>
    <contour>
      <point x="324" y="704" type="line" name="hr00"/>
      <point x="324" y="764" type="line"/>
      <point x="19" y="764" type="line"/>
      <point x="19" y="704" type="line"/>
      <point x="138" y="704" type="line"/>
      <point x="138" y="0" type="line"/>
      <point x="206" y="0" type="line"/>
      <point x="206" y="704" type="line"/>
    </contour>
    <contour>
      <point x="289" y="919" type="line"/>
      <point x="289" y="922" type="line"/>
      <point x="249" y="922" type="line"/>
      <point x="172" y="864" type="line"/>
      <point x="95" y="922" type="line"/>
      <point x="53" y="922" type="line"/>
      <point x="53" y="919" type="line"/>
      <point x="152" y="807" type="line"/>
      <point x="190" y="807" type="line"/>
    </contour>
  </outline>
</glyph>
<glyph name="FL0165h" format="1">
  <advance width="254"/>
  <unicode hex="0165"/>
  <outline>
    <contour>
      <point x="224" y="0" type="line"/>
      <point x="224" y="57" type="line"/>
      <point x="141" y="57" type="line"/>
      <point x="141" y="418" type="line"/>
      <point x="224" y="418" type="line"/>
      <point x="224" y="475" type="line"/>
      <point x="141" y="475" type="line"/>
      <point x="141" y="623" type="line"/>
      <point x="77" y="623" type="line"/>
      <point x="77" y="475" type="line"/>
      <point x="20" y="475" type="line"/>
      <point x="20" y="418" type="line"/>
      <point x="77" y="418" type="line"/>
      <point x="77" y="55" type="line" smooth="yes"/>
      <point x="77" y="18"/>
      <point x="95" y="0"/>
      <point x="132" y="0" type="curve" smooth="yes"/>
    </contour>
    <contour>
      <point x="277" y="764" type="line" name="hr01"/>
      <point x="205" y="764" type="line"/>
      <point x="187" y="524" type="line"/>
      <point x="231" y="524" type="line"/>
    </contour>
  </outline>
</glyph>
<glyph name="FL016Bh" format="1">
  <advance width="378"/>
  <unicode hex="016B"/>
  <outline>
    <contour>
      <point x="325" y="0" type="line" name="hr00"/>
      <point x="325" y="475" type="line"/>
      <point x="261" y="475" type="line"/>
      <point x="261" y="62" type="line"/>
      <point x="117" y="58" type="line"/>
      <point x="117" y="475" type="line"/>
      <point x="53" y="475" type="line"/>
      <point x="53" y="50" type="line" smooth="yes"/>
      <point x="53" y="14"/>
      <point x="70" y="-3"/>
      <point x="106" y="-3" type="curve" smooth="yes"/>
      <point x="112" y="-3"/>
      <point x="121" y="-2"/>
      <point x="130" y="-1" type="curve" smooth="yes"/>
      <point x="261" y="13" type="line"/>
      <point x="261" y="0" type="line"/>
    </contour>
    <contour>
      <point x="297" y="532" type="line"/>
      <point x="297" y="584" type="line"/>
      <point x="81" y="584" type="line"/>
      <point x="81" y="532" type="line"/>
    </contour>
  </outline>
</glyph>
<glyph name="FL016Eh" format="1">
  <advance width="439"/>
  <unicode hex="016E"/>
  <outline>
    <contour>
      <point x="378" y="54" type="curve" name="hr00"/>
      <point x="378" y="764" type="line"/>
      <point x="310" y="764" type="line"/>
      <point x="310" y="60" type="line"/>
      <point x="129" y="60" type="line"/>
      <point x="129" y="764" type="line"/>
      <point x="61" y="764" type="line"/>
      <point x="61" y="54" type="line" smooth="yes"/>
      <point x="61" y="22"/>
      <point x="83" y="0"/>
      <point x="115" y="0" type="curve" smooth="yes"/>
      <point x="323" y="0" type="line" smooth="yes"/>
      <point x="355" y="0"/>
      <point x="378" y="22"/>
    </contour>
    <contour>
      <point x="313" y="852" type="curve"/>
      <point x="313" y="944" type="line" smooth="yes"/>
      <point x="313" y="974"/>
      <point x="298" y="989"/>
      <point x="268" y="989" type="curve" smooth="yes"/>
      <point x="170" y="989" type="line" smooth="yes"/>
      <point x="140" y="989"/>
      <point x="125" y="974"/>
      <point x="125" y="944" type="curve" smooth="yes"/>
      <point x="125" y="852" type="line" smooth="yes"/>
      <point x="125" y="822"/>
      <point x="140" y="807"/>
      <point x="170" y="807" type="curve" smooth="yes"/>
      <point x="268" y="807" type="line" smooth="yes"/>
      <point x="298" y="807"/>
      <point x="313" y="822"/>
    </contour>
    <contour>
      <point x="263" y="852" type="line"/>
      <point x="175" y="852" type="line"/>
      <point x="175" y="944" type="line"/>
      <point x="263" y="944" type="line"/>
    </contour>
  </outline>
</glyph>
<glyph name="FL016Fh" format="1">
  <advance width="378"/>
  <unicode hex="016F"/>
  <outline>
    <contour>
      <point x="325" y="0" type="line" name="hr00"/>
      <point x="325" y="475" type="line"/>
      <point x="261" y="475" type="line"/>
      <point x="261" y="62" type="line"/>
      <point x="117" y="58" type="line"/>
      <point x="117" y="475" type="line"/>
      <point x="53" y="475" type="line"/>
      <point x="53" y="50" type="line" smooth="yes"/>
      <point x="53" y="14"/>
      <point x="70" y="-3"/>
      <point x="106" y="-3" type="curve" smooth="yes"/>
      <point x="112" y="-3"/>
      <point x="121" y="-2"/>
      <point x="130" y="-1" type="curve" smooth="yes"/>
      <point x="261" y="13" type="line"/>
      <point x="261" y="0" type="line"/>
    </contour>
    <contour>
      <point x="283" y="562" type="curve"/>
      <point x="283" y="654" type="line" smooth="yes"/>
      <point x="283" y="684"/>
      <point x="268" y="699"/>
      <point x="238" y="699" type="curve" smooth="yes"/>
      <point x="140" y="699" type="line" smooth="yes"/>
      <point x="110" y="699"/>
      <point x="95" y="684"/>
      <point x="95" y="654" type="curve" smooth="yes"/>
      <point x="95" y="562" type="line" smooth="yes"/>
      <point x="95" y="532"/>
      <point x="110" y="517"/>
      <point x="140" y="517" type="curve" smooth="yes"/>
      <point x="238" y="517" type="line" smooth="yes"/>
      <point x="268" y="517"/>
      <point x="283" y="532"/>
    </contour>
    <contour>
      <point x="233" y="562" type="line"/>
      <point x="145" y="562" type="line"/>
      <point x="145" y="654" type="line"/>
      <point x="233" y="654" type="line"/>
    </contour>
  </outline>
</glyph>
<glyph name="FL0170h" format="1">
  <advance width="439"/>
  <unicode hex="0170"/>
  <outline>
    <contour>
      <point x="378" y="54" type="curve" name="hr00"/>
      <point x="378" y="764" type="line"/>
      <point x="310" y="764" type="line"/>
      <point x="310" y="60" type="line"/>
      <point x="129" y="60" type="line"/>
      <point x="129" y="764" type="line"/>
      <point x="61" y="764" type="line"/>
      <point x="61" y="54" type="line" smooth="yes"/>
      <point x="61" y="22"/>
      <point x="83" y="0"/>
      <point x="115" y="0" type="curve" smooth="yes"/>
      <point x="323" y="0" type="line" smooth="yes"/>
      <point x="355" y="0"/>
      <point x="378" y="22"/>
    </contour>
    <contour>
      <point x="406" y="920" type="line"/>
      <point x="406" y="922" type="line"/>
      <point x="319" y="922" type="line"/>
      <point x="245" y="810" type="line"/>
      <point x="245" y="807" type="line"/>
      <point x="286" y="807" type="line"/>
    </contour>
    <contour>
      <point x="276" y="920" type="line"/>
      <point x="276" y="922" type="line"/>
      <point x="189" y="922" type="line"/>
      <point x="115" y="810" type="line"/>
      <point x="115" y="807" type="line"/>
      <point x="156" y="807" type="line"/>
    </contour>
  </outline>
</glyph>
<glyph name="FL0171h" format="1">
  <advance width="378"/>
  <unicode hex="0171"/>
  <outline>
    <contour>
      <point x="325" y="0" type="line"/>
      <point x="325" y="475" type="line"/>
      <point x="261" y="475" type="line"/>
      <point x="261" y="62" type="line"/>
      <point x="117" y="58" type="line"/>
      <point x="117" y="475" type="line"/>
      <point x="53" y="475" type="line"/>
      <point x="53" y="50" type="line" smooth="yes"/>
      <point x="53" y="14"/>
      <point x="70" y="-3"/>
      <point x="106" y="-3" type="curve" smooth="yes"/>
      <point x="112" y="-3"/>
      <point x="121" y="-2"/>
      <point x="130" y="-1" type="curve" smooth="yes"/>
      <point x="261" y="13" type="line"/>
      <point x="261" y="0" type="line"/>
    </contour>
    <contour>
      <point x="376" y="630" type="line"/>
      <point x="376" y="632" type="line"/>
      <point x="289" y="632" type="line"/>
      <point x="215" y="520" type="line"/>
      <point x="215" y="517" type="line"/>
      <point x="256" y="517" type="line"/>
    </contour>
    <contour>
      <point x="246" y="630" type="line"/>
      <point x="246" y="632" type="line"/>
      <point x="159" y="632" type="line"/>
      <point x="85" y="520" type="line"/>
      <point x="85" y="517" type="line"/>
      <point x="126" y="517" type="line"/>
    </contour>
  </outline>
</glyph>
<glyph name="FL0172h" format="1">
  <advance width="439"/>
  <unicode hex="0172"/>
  <outline>
    <contour>
      <point x="190" y="0" type="line"/>
      <point x="148" y="-40" type="line" smooth="yes"/>
      <point x="135" y="-53"/>
      <point x="129" y="-63"/>
      <point x="129" y="-84" type="curve" smooth="yes"/>
      <point x="129" y="-141" type="line" smooth="yes"/>
      <point x="129" y="-167"/>
      <point x="143" y="-180"/>
      <point x="168" y="-180" type="curve" smooth="yes"/>
      <point x="301" y="-180" type="line"/>
      <point x="301" y="-134" type="line"/>
      <point x="184" y="-134" type="line"/>
      <point x="184" y="-73" type="line"/>
      <point x="257" y="0" type="line"/>
      <point x="323" y="0" type="line" smooth="yes"/>
      <point x="355" y="0"/>
      <point x="378" y="22"/>
      <point x="378" y="54" type="curve" smooth="yes"/>
      <point x="378" y="764" type="line"/>
      <point x="310" y="764" type="line"/>
      <point x="310" y="60" type="line"/>
      <point x="129" y="60" type="line"/>
      <point x="129" y="764" type="line"/>
      <point x="61" y="764" type="line"/>
      <point x="61" y="54" type="line" smooth="yes"/>
      <point x="61" y="22"/>
      <point x="83" y="0"/>
      <point x="115" y="0" type="curve" smooth="yes"/>
    </contour>
  </outline>
</glyph>
<glyph name="FL0173h" format="1">
  <advance width="378"/>
  <unicode hex="0173"/>
  <outline>
    <contour>
      <point x="261" y="9" type="line"/>
      <point x="210" y="-40" type="line" smooth="yes"/>
      <point x="197" y="-53"/>
      <point x="191" y="-63"/>
      <point x="191" y="-84" type="curve" smooth="yes"/>
      <point x="191" y="-141" type="line" smooth="yes"/>
      <point x="191" y="-167"/>
      <point x="205" y="-180"/>
      <point x="230" y="-180" type="curve" smooth="yes"/>
      <point x="335" y="-180" type="line"/>
      <point x="335" y="-134" type="line"/>
      <point x="246" y="-134" type="line"/>
      <point x="246" y="-73" type="line"/>
      <point x="325" y="6" type="line"/>
      <point x="325" y="475" type="line"/>
      <point x="261" y="475" type="line"/>
      <point x="261" y="62" type="line"/>
      <point x="117" y="58" type="line"/>
      <point x="117" y="475" type="line"/>
      <point x="53" y="475" type="line"/>
      <point x="53" y="50" type="line" smooth="yes"/>
      <point x="53" y="14"/>
      <point x="70" y="-3"/>
      <point x="106" y="-3" type="curve" smooth="yes"/>
      <point x="112" y="-3"/>
      <point x="121" y="-2"/>
      <point x="130" y="-1" type="curve" smooth="yes"/>
      <point x="261" y="13" type="line"/>
    </contour>
  </outline>
</glyph>
<glyph name="Ydieresis" format="1">
  <advance width="390"/>
  <unicode hex="0178"/>
  <outline>
    <contour>
      <point x="368" y="760" type="line"/>
      <point x="368" y="764" type="line"/>
      <point x="300" y="764" type="line"/>
      <point x="196" y="382" type="line"/>
      <point x="91" y="764" type="line"/>
      <point x="22" y="764" type="line"/>
      <point x="22" y="760" type="line"/>
      <point x="161" y="296" type="line"/>
      <point x="161" y="0" type="line"/>
      <point x="229" y="0" type="line"/>
      <point x="229" y="296" type="line"/>
    </contour>
    <contour>
      <point x="294" y="807" type="line" name="hr01"/>
      <point x="294" y="881" type="line"/>
      <point x="222" y="881" type="line"/>
      <point x="222" y="807" type="line"/>
    </contour>
    <contour>
      <point x="168" y="807" type="line"/>
      <point x="168" y="881" type="line"/>
      <point x="96" y="881" type="line"/>
      <point x="96" y="807" type="line"/>
    </contour>
  </outline>
</glyph>
<glyph name="FL0179h" format="1">
  <advance width="344"/>
  <unicode hex="0179"/>
  <outline>
    <contour>
      <point x="317" y="0" type="line" name="hr00"/>
      <point x="317" y="60" type="line"/>
      <point x="102" y="60" type="line"/>
      <point x="317" y="729" type="line"/>
      <point x="317" y="764" type="line"/>
      <point x="45" y="764" type="line"/>
      <point x="45" y="704" type="line"/>
      <point x="239" y="704" type="line"/>
      <point x="24" y="36" type="line"/>
      <point x="24" y="0" type="line"/>
    </contour>
    <contour>
      <point x="279" y="920" type="line"/>
      <point x="279" y="922" type="line"/>
      <point x="187" y="922" type="line"/>
      <point x="114" y="810" type="line"/>
      <point x="114" y="807" type="line"/>
      <point x="159" y="807" type="line"/>
    </contour>
  </outline>
</glyph>
<glyph name="FL017Ah" format="1">
  <advance width="320"/>
  <unicode hex="017A"/>
  <outline>
    <contour>
      <point x="281" y="0" type="line" name="hr00"/>
      <point x="281" y="58" type="line"/>
      <point x="107" y="58" type="line"/>
      <point x="281" y="445" type="line"/>
      <point x="281" y="475" type="line"/>
      <point x="49" y="475" type="line"/>
      <point x="49" y="417" type="line"/>
      <point x="204" y="417" type="line"/>
      <point x="31" y="30" type="line"/>
      <point x="31" y="0" type="line"/>
    </contour>
    <contour>
      <point x="267" y="630" type="line"/>
      <point x="267" y="632" type="line"/>
      <point x="175" y="632" type="line"/>
      <point x="102" y="520" type="line"/>
      <point x="102" y="517" type="line"/>
      <point x="147" y="517" type="line"/>
    </contour>
  </outline>
</glyph>
<glyph name="FL017Bh" format="1">
  <advance width="344"/>
  <unicode hex="017B"/>
  <outline>
    <contour>
      <point x="317" y="0" type="line"/>
      <point x="317" y="60" type="line"/>
      <point x="102" y="60" type="line"/>
      <point x="317" y="729" type="line"/>
      <point x="317" y="764" type="line"/>
      <point x="45" y="764" type="line"/>
      <point x="45" y="704" type="line"/>
      <point x="239" y="704" type="line"/>
      <point x="24" y="36" type="line"/>
      <point x="24" y="0" type="line"/>
    </contour>
    <contour>
      <point x="208" y="807" type="line" name="hr01"/>
      <point x="208" y="881" type="line"/>
      <point x="136" y="881" type="line"/>
      <point x="136" y="807" type="line"/>
    </contour>
  </outline>
</glyph>
<glyph name="FL017Ch" format="1">
  <advance width="320"/>
  <unicode hex="017C"/>
  <outline>
    <contour>
      <point x="281" y="0" type="line"/>
      <point x="281" y="58" type="line"/>
      <point x="107" y="58" type="line"/>
      <point x="281" y="445" type="line"/>
      <point x="281" y="475" type="line"/>
      <point x="49" y="475" type="line"/>
      <point x="49" y="417" type="line"/>
      <point x="204" y="417" type="line"/>
      <point x="31" y="30" type="line"/>
      <point x="31" y="0" type="line"/>
    </contour>
    <contour>
      <point x="196" y="517" type="line" name="hr01"/>
      <point x="196" y="591" type="line"/>
      <point x="124" y="591" type="line"/>
      <point x="124" y="517" type="line"/>
    </contour>
  </outline>
</glyph>
<glyph name="zcaron" format="1">
  <advance width="320"/>
  <unicode hex="017E"/>
  <outline>
    <contour>
      <point x="281" y="0" type="line" name="hr00"/>
      <point x="281" y="58" type="line"/>
      <point x="107" y="58" type="line"/>
      <point x="281" y="445" type="line"/>
      <point x="281" y="475" type="line"/>
      <point x="49" y="475" type="line"/>
      <point x="49" y="417" type="line"/>
      <point x="204" y="417" type="line"/>
      <point x="31" y="30" type="line"/>
      <point x="31" y="0" type="line"/>
    </contour>
    <contour>
      <point x="285" y="629" type="line"/>
      <point x="285" y="632" type="line"/>
      <point x="245" y="632" type="line"/>
      <point x="168" y="574" type="line"/>
      <point x="91" y="632" type="line"/>
      <point x="49" y="632" type="line"/>
      <point x="49" y="629" type="line"/>
      <point x="148" y="517" type="line"/>
      <point x="186" y="517" type="line"/>
    </contour>
  </outline>
</glyph>
<glyph name="florin" format="1">
  <advance width="305"/>
  <unicode hex="0192"/>
  <outline>
    <contour>
      <point x="299" y="764" type="line" name="hr00"/>
      <point x="198" y="764" type="line" smooth="yes"/>
      <point x="161" y="764"/>
      <point x="140" y="746"/>
      <point x="135" y="709" type="curve" smooth="yes"/>
      <point x="103" y="475" type="line"/>
      <point x="48" y="475" type="line"/>
      <point x="39" y="418" type="line"/>
      <point x="94" y="418" type="line"/>
      <point x="18" y="-123" type="line"/>
      <point x="-54" y="-123" type="line"/>
      <point x="-61" y="-180" type="line"/>
      <point x="20" y="-180" type="line" smooth="yes"/>
      <point x="57" y="-180"/>
      <point x="77" y="-162"/>
      <point x="82" y="-125" type="curve" smooth="yes"/>
      <point x="158" y="418" type="line"/>
      <point x="240" y="418" type="line"/>
      <point x="249" y="475" type="line"/>
      <point x="167" y="475" type="line"/>
      <point x="199" y="707" type="line"/>
      <point x="292" y="707" type="line"/>
    </contour>
  </outline>
</glyph>
<glyph name="circumflex" format="1">
  <advance width="400"/>
  <unicode hex="02C6"/>
  <outline>
    <contour>
      <point x="315" y="517" type="line"/>
      <point x="315" y="521" type="line"/>
      <point x="219" y="632" type="line"/>
      <point x="181" y="632" type="line"/>
      <point x="85" y="521" type="line"/>
      <point x="85" y="517" type="line"/>
      <point x="125" y="517" type="line"/>
      <point x="199" y="574" type="line"/>
      <point x="273" y="517" type="line"/>
    </contour>
  </outline>
</glyph>
<glyph name="dotaccent" format="1">
  <advance width="400"/>
  <unicode hex="02D9"/>
  <outline>
    <contour>
      <point x="236" y="517" type="line" name="hr00"/>
      <point x="236" y="591" type="line"/>
      <point x="164" y="591" type="line"/>
      <point x="164" y="517" type="line"/>
    </contour>
  </outline>
</glyph>
<glyph name="ring" format="1">
  <advance width="400"/>
  <unicode hex="02DA"/>
  <outline>
    <contour>
      <point x="294" y="562" type="curve" name="hr00"/>
      <point x="294" y="654" type="line" smooth="yes"/>
      <point x="294" y="684"/>
      <point x="279" y="699"/>
      <point x="249" y="699" type="curve" smooth="yes"/>
      <point x="151" y="699" type="line" smooth="yes"/>
      <point x="121" y="699"/>
      <point x="106" y="684"/>
      <point x="106" y="654" type="curve" smooth="yes"/>
      <point x="106" y="562" type="line" smooth="yes"/>
      <point x="106" y="532"/>
      <point x="121" y="517"/>
      <point x="151" y="517" type="curve" smooth="yes"/>
      <point x="249" y="517" type="line" smooth="yes"/>
      <point x="279" y="517"/>
      <point x="294" y="532"/>
    </contour>
    <contour>
      <point x="244" y="562" type="line"/>
      <point x="156" y="562" type="line"/>
      <point x="156" y="654" type="line"/>
      <point x="244" y="654" type="line"/>
    </contour>
  </outline>
</glyph>
<glyph name="ogonek" format="1">
  <advance width="400"/>
  <unicode hex="02DB"/>
  <outline>
    <contour>
      <point x="282" y="-180" type="line" name="hr00"/>
      <point x="282" y="-134" type="line"/>
      <point x="165" y="-134" type="line"/>
      <point x="165" y="-73" type="line"/>
      <point x="244" y="6" type="line"/>
      <point x="244" y="10" type="line"/>
      <point x="181" y="10" type="line"/>
      <point x="129" y="-40" type="line" smooth="yes"/>
      <point x="116" y="-53"/>
      <point x="110" y="-63"/>
      <point x="110" y="-84" type="curve" smooth="yes"/>
      <point x="110" y="-141" type="line" smooth="yes"/>
      <point x="110" y="-167"/>
      <point x="124" y="-180"/>
      <point x="149" y="-180" type="curve" smooth="yes"/>
    </contour>
  </outline>
</glyph>
